<?xml version="1.0" encoding="UTF-8" standalone="no"?>
<!-- Generator: Adobe Illustrator 15.0.0, SVG Export Plug-In . SVG Version: 6.00 Build 0)  -->
<svg id="svg3038" xmlns:rdf="http://www.w3.org/1999/02/22-rdf-syntax-ns#" xmlns="http://www.w3.org/2000/svg" xml:space="preserve" height="100%" width="100%" version="1.0" xmlns:cc="http://creativecommons.org/ns#" xmlns:dc="http://purl.org/dc/elements/1.1/" viewBox="0 0 56.779 75.000594"><metadata id="metadata3051"><rdf:RDF><cc:Work rdf:about=""><dc:format>image/svg+xml</dc:format><dc:type rdf:resource="http://purl.org/dc/dcmitype/StillImage"/><dc:title/></cc:Work></rdf:RDF></metadata><path id="path3403" fill="#FFF" d="m42.469,19.609s-1.4543,2.1865-0.675,4.0125c-7.709,3.7624-6.1285,10.572-6,12.75,0.15322,2.6689,1.2,9.6375,1.2,9.6375s0.14779-1.5486,0.375-3.2625c0,0,0.43583-0.05063,0.6375,1.125,0.20134,1.1743,0.20351,3.8485,3.5625,4.0875,3.3583,0.23899,4.6393-2.0187,5.025-3.45,0.24083-0.89479,0.63336-1.1332,0.9-1.2,0.30427,0.04762,0.79298,0.24938,1.05,1.2,0.38435,1.4317,1.7042,3.689,5.0625,3.45,3.3593-0.239,3.3983-2.9132,3.6-4.0875,0.20232-1.1753,0.675-1.125,0.675-1.125,0.35167,2.3144,0.49651,5.2002,0.525,4.9125,0.03924-0.40465,2.5125-7.1625,2.5125-7.1625,0.96513-3.7365,2.5579-9.3262-1.3125-13.725-3.8717-4.3984-11.062-5.1375-11.062-5.1375s-2.4911-0.49476-4.0125-0.6375c-1.522-0.14241-2.0625-1.3875-2.0625-1.3875zm1.5,10.838c0.07157-0.0037,0.11648,0.0023,0.1875,0,0.02086-0.000655,0.05422,0.000556,0.075,0,1.1426-0.02503,2.5107,0.1453,3.9375,0.7875,3.6718,1.6513,5.4501,8.9623,9.4125,9.8625,0.03294,0.12155,0.0444,0.27664,0.075,0.4125-0.20367-0.02646-0.46663-0.09522-0.7875-0.1125-0.679-0.036-1.9708-0.26232-3.7875-0.225-1.8177,0.037-2.505,0.1785-3.975,0.6375-0.79454,0.24782-1.2585,0.34218-1.5375,0.375-0.21537-0.0208-0.67082-0.09309-1.575-0.375-1.467-0.45835-1.9695-0.60051-3.7875-0.6375-1.8167-0.03734-3.1072,0.18899-3.7875,0.225-0.35944,0.01926-0.687,0.08405-0.9,0.1125,0.0569-0.37266,0.12422-0.76915,0.1875-1.125,0.44001-2.4567-1.0903-4.9499,1.7625-8.1,0.61325-0.67789,1.3343-1.1371,2.1375-1.425,0.01116-0.0036,0.02602,0.0036,0.0375,0,0.007-0.0024,0.03046,0.0024,0.0375,0,0.51367-0.16247,1.3084-0.36151,2.2875-0.4125zm-3.0375,11.325c0.25085-0.02089,0.52576,0.0019,0.825,0,0.34198-0.0018,0.71585-0.01864,1.125,0,0,0,1.6642,0.03103,2.3625,0.6,0.69668,0.56966,0.74384,1.2228,0.4875,2.2875-0.25831,1.0647-0.80085,2.5567-3.1875,2.85-2.3863,0.29366-3.7512-1.0962-3.8625-3.2625-0.08397-1.6586,0.49408-2.3288,2.25-2.475zm11.438,0c0.40928-0.01836,0.78291-0.0022,1.125,0,2.3946,0.01558,3.1724,0.57947,3.075,2.475-0.10999,2.1663-1.4762,3.5562-3.8625,3.2625-2.3863-0.29367-2.9295-1.785-3.1875-2.85-0.25602-1.0643-0.20951-1.6807,0.4875-2.25,0.69733-0.569,2.3625-0.6375,2.3625-0.6375zm5.85,16.162s-7.893,15.043-9.1125,14.738c-2.1156-0.52873-9.45-13.088-9.45-13.088-1.6657,2.2351-4.8078,3.0394-12.038,5.5125-7.2297,2.4731-7.9845,8.2894-8.175,10.762-0.05374,0.69976-0.50649,5.6099-0.8625,9.5625h63.15c-1.717-8.8297-3.8571-17.247-5.5125-19.8-2.2829-3.5188-16.162-6.6375-16.162-6.6375-0.57064-0.95073-1.8375-1.05-1.8375-1.05z"/>
</svg>
