<?xml version="1.0" encoding="utf-8"?>
<!-- Generator: Adobe Illustrator 15.0.0, SVG Export Plug-In . SVG Version: 6.00 Build 0)  -->
<!DOCTYPE svg PUBLIC "-//W3C//DTD SVG 1.1//EN" "http://www.w3.org/Graphics/SVG/1.1/DTD/svg11.dtd">
<svg version="1.1" id="Ebene_1" xmlns="http://www.w3.org/2000/svg" xmlns:xlink="http://www.w3.org/1999/xlink" x="0px" y="0px"
	 width="100px" height="100px" viewBox="0 0 100 100" enable-background="new 0 0 100 100" xml:space="preserve">
<path fill="#FFFFFF" d="M34.478,31.907h12.595c0.87,0,1.573-0.715,1.573-1.605c0-0.893-0.703-1.597-1.573-1.597H34.478
	c-0.867,0-1.573,0.704-1.573,1.597C32.905,31.191,33.611,31.907,34.478,31.907z M34.478,25.233h12.595
	c0.87,0,1.573-0.708,1.573-1.596c0-0.892-0.703-1.608-1.573-1.608H34.478c-0.867,0-1.573,0.717-1.573,1.608
	C32.905,24.526,33.611,25.233,34.478,25.233z M34.478,38.585h12.595c0.87,0,1.573-0.718,1.573-1.612
	c0-0.892-0.703-1.608-1.573-1.608H34.478c-0.867,0-1.573,0.717-1.573,1.608C32.905,37.867,33.611,38.585,34.478,38.585z
	 M72.646,75.979c0,1.023-0.841,1.856-1.867,1.856H27.58c-1.017,0-1.845-0.833-1.845-1.856c0-1.024,0.828-1.855,1.845-1.855h43.199
	C71.805,74.123,72.646,74.954,72.646,75.979z M77.675,44.647h-4.653V32.921c0-0.489-0.193-0.954-0.532-1.288L54.286,13.515
	c-0.334-0.347-0.801-0.537-1.294-0.537h-19.68c-4.415,0-7.988,3.585-7.988,7.996v23.674h-4.561c-5.45,0-9.907,4.466-9.907,9.921
	v13.479c0,5.447,4.457,9.913,9.907,9.913h1.689v-0.141c0.102-4.336,4.073-7.85,8.96-7.85c0.004,0,29.249,0.006,29.249,0.006
	c0-0.006,6.262-0.006,6.262-0.006c4.882,0,8.859,3.675,8.942,8.016c0,0.022,1.81-0.025,1.81-0.025c5.448,0,9.904-4.466,9.904-9.913
	V54.568C87.579,49.113,83.123,44.647,77.675,44.647z M54.302,18.685l12.677,12.61h-8.33c-2.399,0-4.347-1.941-4.347-4.353V18.685z
	 M28.964,44.647V20.973c0-2.404,1.953-4.344,4.348-4.344H50.66v10.313c0,4.417,3.595,8,7.988,8h10.723v9.705H28.964z M64.362,58.54
	c-2.005,0-3.63-1.631-3.63-3.643c0-2.004,1.625-3.622,3.63-3.622s3.633,1.618,3.633,3.622C67.995,56.909,66.367,58.54,64.362,58.54z
	 M77.037,58.54c-1.995,0-3.627-1.631-3.627-3.643c0-2.004,1.632-3.622,3.627-3.622c2.013,0,3.64,1.618,3.64,3.622
	C80.677,56.909,79.05,58.54,77.037,58.54z"/>
</svg>
