<?xml version="1.0" encoding="utf-8"?>
<!-- Generator: Adobe Illustrator 15.0.0, SVG Export Plug-In . SVG Version: 6.00 Build 0)  -->
<!DOCTYPE svg PUBLIC "-//W3C//DTD SVG 1.1//EN" "http://www.w3.org/Graphics/SVG/1.1/DTD/svg11.dtd">
<svg version="1.1" id="Ebene_1" xmlns="http://www.w3.org/2000/svg" xmlns:xlink="http://www.w3.org/1999/xlink" x="0px" y="0px"
	 width="100px" height="100px" viewBox="0 0 100 100" enable-background="new 0 0 100 100" xml:space="preserve">
<g>
	<path fill="#FFFFFF" d="M50.736,73.245c-15.897,0-28.831-12.933-28.831-28.828c0-15.897,12.933-28.831,28.831-28.831
		c15.896,0,28.828,12.934,28.828,28.831c0,2.309-0.279,4.551-0.795,6.704l3.385,0.811c0.574-2.413,0.889-4.927,0.889-7.516
		c0-17.843-14.465-32.308-32.307-32.308c-17.844,0-32.309,14.465-32.309,32.308c0,17.842,14.465,32.307,32.309,32.307
		c2.227,0,4.4-0.225,6.5-0.654l-0.713-3.405C54.652,73.044,52.717,73.245,50.736,73.245z"/>
	<path fill="#FFFFFF" d="M50.736,17.829c-14.684,0-26.587,11.903-26.587,26.588c0,14.683,11.903,26.585,26.587,26.585
		c1.824,0,3.604-0.186,5.328-0.533L50.6,44.374l3.646,0.872c-0.41-0.475-0.668-1.086-0.668-1.764c0-1.498,1.215-2.712,2.713-2.712
		S59,41.984,59,43.482c0,1.127-0.689,2.095-1.67,2.504L76.592,50.6c0.473-1.985,0.73-4.054,0.73-6.183
		C77.322,29.732,65.418,17.829,50.736,17.829z M34.658,31.367c2.148,0,3.89,1.741,3.89,3.889s-1.741,3.889-3.89,3.889
		c-2.147,0-3.889-1.74-3.889-3.889C30.77,33.108,32.511,31.367,34.658,31.367z M34.349,56.436c-2.722,0-4.927-2.205-4.927-4.926
		c0-2.722,2.205-4.927,4.927-4.927c2.721,0,4.927,2.205,4.927,4.927C39.275,54.23,37.069,56.436,34.349,56.436z M46.512,35.256
		c1.817,0,3.291,1.475,3.291,3.292s-1.474,3.29-3.291,3.29c-1.817,0-3.291-1.473-3.291-3.29S44.694,35.256,46.512,35.256z
		 M43.258,51.105c0-1.796,1.457-3.254,3.254-3.254c1.797,0,3.254,1.458,3.254,3.254c0,1.797-1.457,3.254-3.254,3.254
		C44.715,54.359,43.258,52.902,43.258,51.105z M53.468,63.542c0,2.045-1.657,3.702-3.702,3.702c-2.045,0-3.702-1.657-3.702-3.702
		s1.657-3.702,3.702-3.702C51.811,59.84,53.468,61.497,53.468,63.542z M50.744,31.498c-2.557,0-4.629-2.071-4.629-4.628
		s2.072-4.628,4.629-4.628c2.557,0,4.629,2.071,4.629,4.628S53.301,31.498,50.744,31.498z M59,30.02
		c0-1.797,1.457-3.254,3.255-3.254c1.796,0,3.254,1.457,3.254,3.254s-1.458,3.254-3.254,3.254C60.457,33.273,59,31.816,59,30.02z
		 M68.051,45.95c-2.457,0-4.449-1.992-4.449-4.45c0-2.457,1.992-4.449,4.449-4.449S72.5,39.043,72.5,41.5
		C72.5,43.958,70.508,45.95,68.051,45.95z"/>
	<path fill="#FFFFFF" d="M86.868,59.146C84.291,69.99,75.579,78.484,64.611,80.73l0.713,3.406
		c12.3-2.514,22.047-12.019,24.929-24.18L86.868,59.146z"/>
	<path fill="#FFFFFF" d="M84.689,58.625L65.48,54.023c-0.338,0.15-0.709,0.238-1.104,0.238c-0.847,0-1.593-0.396-2.09-1.003
		l-3.611-0.866l5.476,26.143C74.287,76.475,82.318,68.645,84.689,58.625z M77.029,57.305c1.49,0,2.701,1.211,2.701,2.701
		c0,1.491-1.211,2.7-2.701,2.7c-1.492,0-2.701-1.209-2.701-2.7C74.328,58.516,75.537,57.305,77.029,57.305z M66.605,67.711
		c-2.562,0-4.64-2.077-4.64-4.639c0-2.561,2.076-4.637,4.64-4.637c2.561,0,4.637,2.076,4.637,4.637
		C71.242,65.635,69.166,67.711,66.605,67.711z"/>
</g>
</svg>
