<?xml version="1.0" encoding="utf-8"?>
<!-- Generator: Adobe Illustrator 15.0.0, SVG Export Plug-In . SVG Version: 6.00 Build 0)  -->
<!DOCTYPE svg PUBLIC "-//W3C//DTD SVG 1.1//EN" "http://www.w3.org/Graphics/SVG/1.1/DTD/svg11.dtd">
<svg version="1.1" id="Ebene_1" xmlns="http://www.w3.org/2000/svg" xmlns:xlink="http://www.w3.org/1999/xlink" x="0px" y="0px"
	 width="100px" height="100px" viewBox="0 0 100 100" enable-background="new 0 0 100 100" xml:space="preserve">
<path fill="#FFFFFF" d="M83.451,64.843c-0.35-0.523-0.854-0.924-1.386-1.25c-2.946-9.079-5.725-18.218-8.565-27.331
	c-0.463-1.252-0.33-2.637,0.119-3.872c1.502-0.292,3.893-0.833,3.748-2.786c-0.479-0.643-1.189-0.979-1.976-1.068
	c-0.781,0.438-1.454,1.062-2.276,1.42c-0.062-0.119-0.185-0.356-0.244-0.475c-0.246,0.251-0.531,0.566-0.912,0.35
	c-2.776-0.888-5.416-2.175-8.189-3.068c-3.837-1.438-7.848-2.481-11.893-3.049c0.326-1.193-0.633-2.127-0.846-3.23
	c0.08-0.811-0.005-1.615,0.232-2.402c-0.197-0.086-0.391-0.17-0.584-0.257c0.057-1.198,0.449-2.348,0.613-3.532
	c-0.09-0.17-0.237-0.306-0.358-0.453c-1.255-0.102-2.513-0.084-3.765,0.029c-0.062,0.106-0.18,0.315-0.239,0.42
	c0.214,1.123,0.524,2.231,0.595,3.377c-0.938,0.354-0.255,1.252-0.43,1.957c0.312,1.149-0.471,2.139-0.837,3.166
	c0.294,0.405,0.09,0.809-0.23,1.118c-0.602,0.021-1.215,0.095-1.801-0.087c-3.209,1.088-6.487,2.044-9.522,3.579
	c-2.274,1.015-4.496,2.155-6.688,3.337c-1.415,0.63-2.666-1.214-4.072-0.418c-1.213,0.37-1.295,1.838-1.008,2.861
	c0.528,0.863,1.552,1.228,2.476,1.503c-2.818,9.178-5.718,18.333-8.551,27.506c0.155,1.755,1.834,2.75,3.15,3.659
	c2.341,1.006,4.953,0.939,7.455,0.917c2.779-0.318,5.727-0.604,8.146-2.143c0.909-0.965,2.342-1.891,2.146-3.404
	c-3.31-8.662-6.625-17.327-9.94-25.992c-0.25-0.503,0.033-1.036,0.104-1.544c3.676-0.924,7.051-2.816,10.791-3.522
	c1.195-0.289,2.408-0.549,3.638-0.659c1.46,0.041,2.892-0.475,4.354-0.264c0.14,0.782,0.638,1.421,0.896,2.155
	c0.045,1.411,0.02,2.825-0.146,4.228c-0.182,5.45-0.069,10.913-0.117,16.368c-0.112,0.839-0.174,1.695,0.011,2.534
	c-0.188,0.137-0.372,0.276-0.556,0.416c-0.002,0.222-0.002,0.444-0.002,0.668c0.199,0.137,0.399,0.272,0.604,0.407
	c-1.351,2.562,0.267,5.462-0.104,8.154c-0.6,1.402-0.768,3.307,0.502,4.396c-0.349,1.612-1.371,3.164-1.197,4.901
	c-3.439,0.625-7.102,1.103-10.025,3.182c-1.046,0.447-2.094,1.414-1.885,2.665c-0.242,1.968,1.503,3.256,2.977,4.167
	c3.515,1.808,7.535,2.273,11.428,2.378c3.867-0.172,7.867-0.633,11.349-2.472c1.698-0.842,3.501-2.5,3.028-4.594
	c-0.604-1.66-2.23-2.615-3.707-3.406c-2.521-1.133-5.314-1.481-7.983-1.92c0.207-1.433-0.5-2.73-0.926-4.053
	c-0.661-1.134,0.949-1.924,0.755-3.085c0.249-1.198-1.054-2.12-0.624-3.291c0.21-1.376,0.412-2.752,0.472-4.141
	c0.319-0.886-0.041-1.822-0.408-2.634c-0.098-0.438,0.404-0.68,0.623-0.984c-0.191-0.325-0.441-0.604-0.68-0.893
	c-0.147-2.471,0.228-4.966-0.197-7.409c0.041-4.9,0.197-9.812-0.125-14.703c-0.071-1.164,0.617-2.202,1.096-3.215
	c0.669-0.116,1.347-0.014,2.018,0.041c4.079-0.229,8.076,0.876,11.986,1.912c2.07,0.759,4.227,1.232,6.406,1.512
	c0.285,1.643-0.926,3.059-1.496,4.527c-3.059,8.431-6.098,16.87-9.141,25.304c-0.231,0.337-0.547,0.607-0.824,0.904
	c-0.396,2.44,2.088,3.892,3.771,5.136c3.802,1.541,8.011,1.69,12.056,1.495c2.471-0.17,4.756-1.44,6.41-3.247
	C83.289,66.136,83.689,65.47,83.451,64.843z M29.041,41.844c2.311,6.023,4.604,12.058,6.92,18.079
	c0.052,0.168,0.074,0.348,0.104,0.522c-1.025-0.364-2.171-0.386-3.261-0.44c-0.556-3.588-1.685-7.08-2.291-10.661
	c-0.453-0.937-0.247-2.019-0.709-2.951c-0.459-1.5-0.659-3.068-1.089-4.576C28.797,41.822,28.959,41.836,29.041,41.844z
	 M30.851,56.559c0.211,1.062,0.584,2.097,0.608,3.188c-2.588-0.024-5.159,0.256-7.728,0.494c-1.733,0.287-3.534,0.502-5.11,1.335
	c-0.061-0.048-0.181-0.14-0.244-0.187c2.562-8.198,5.098-16.41,7.738-24.583c0.049,0.056,0.149,0.168,0.2,0.224
	C27.813,43.543,29.346,50.047,30.851,56.559z M71.92,54.925c-0.325,2.268-0.193,4.549-0.149,6.826
	c-2.42-0.375-4.849,0.01-7.272,0.08c-0.496,0.026-1.152,0.596-1.539,0.231c2.801-7.945,5.729-15.85,8.559-23.789
	c0.157-0.452,0.443-0.843,0.605-1.29C71.971,42.969,71.908,48.936,71.92,54.925z M72.977,61.774
	c-0.191-5.468,0.387-10.929,0.113-16.401c0.287-1.654,0.053-3.302,0.109-4.971L73.5,40.5c2.149,6.855,4.307,13.71,6.451,20.569
	c0.207,0.584,0.403,1.18,0.426,1.811C77.934,62.368,75.472,61.929,72.977,61.774z"/>
</svg>
