<?xml version="1.0" encoding="utf-8"?>
<!-- Generator: Adobe Illustrator 15.0.0, SVG Export Plug-In . SVG Version: 6.00 Build 0)  -->
<!DOCTYPE svg PUBLIC "-//W3C//DTD SVG 1.1//EN" "http://www.w3.org/Graphics/SVG/1.1/DTD/svg11.dtd">
<svg version="1.1"
	 id="Ebene_1" xmlns:rdf="http://www.w3.org/1999/02/22-rdf-syntax-ns#" xmlns:dc="http://purl.org/dc/elements/1.1/" xmlns:inkscape="http://www.inkscape.org/namespaces/inkscape" inkscape:version="0.48.2 r9819" sodipodi:docname="act.svg" xmlns:svg="http://www.w3.org/2000/svg" xmlns:cc="http://creativecommons.org/ns#" xmlns:sodipodi="http://sodipodi.sourceforge.net/DTD/sodipodi-0.dtd"
	 xmlns="http://www.w3.org/2000/svg" xmlns:xlink="http://www.w3.org/1999/xlink" x="0px" y="0px" width="100px" height="100px"
	 viewBox="0 0 100 100" enable-background="new 0 0 100 100" xml:space="preserve">
<sodipodi:namedview  id="namedview3001" inkscape:current-layer="Ebene_1" borderopacity="1" gridtolerance="10" inkscape:window-y="209" inkscape:window-height="480" inkscape:zoom="2.36" inkscape:cx="50" inkscape:pageopacity="0" pagecolor="#ffffff" inkscape:window-x="593" inkscape:window-maximized="0" inkscape:cy="50" bordercolor="#666666" objecttolerance="10" inkscape:window-width="640" inkscape:pageshadow="2" guidetolerance="10" showgrid="false">
	</sodipodi:namedview>
<path id="path2999" inkscape:connector-curvature="0" fill="#FFFFFF" d="M49.913,21.986c-18.445,0-33.398,9.943-33.398,22.207
	c0,7.017,4.908,13.267,12.552,17.335c-1.088,3.607-3.259,7.602-7.453,11.135c0,0,9.792-0.648,16.708-7.664
	c0.397,0.098,0.81,0.17,1.212,0.261c-0.378-1.127-0.601-2.3-0.601-3.52c0-8.274,9.209-14.754,20.971-14.754
	c8.448,0,15.557,3.355,18.903,8.306c2.849-3.268,4.505-7.052,4.505-11.101C83.312,31.93,68.356,21.986,49.913,21.986z
	 M78.434,61.743c0-6.805-8.294-12.323-18.532-12.323c-10.232,0-18.531,5.519-18.531,12.323c0,6.807,8.299,12.322,18.531,12.322
	c2.266,0,4.424-0.282,6.432-0.777c3.836,3.895,9.27,4.253,9.27,4.253c-2.327-1.961-3.529-4.178-4.135-6.18
	C75.707,69.105,78.434,65.638,78.434,61.743z"/>
</svg>
