<?xml version="1.0" encoding="utf-8"?>
<!-- Generator: Adobe Illustrator 15.0.0, SVG Export Plug-In . SVG Version: 6.00 Build 0)  -->
<!DOCTYPE svg PUBLIC "-//W3C//DTD SVG 1.1//EN" "http://www.w3.org/Graphics/SVG/1.1/DTD/svg11.dtd">
<svg version="1.1"
	 id="Ebene_1" xmlns:rdf="http://www.w3.org/1999/02/22-rdf-syntax-ns#" xmlns:dc="http://purl.org/dc/elements/1.1/" xmlns:inkscape="http://www.inkscape.org/namespaces/inkscape" inkscape:version="0.48.2 r9819" sodipodi:docname="team.svg" xmlns:svg="http://www.w3.org/2000/svg" xmlns:cc="http://creativecommons.org/ns#" xmlns:sodipodi="http://sodipodi.sourceforge.net/DTD/sodipodi-0.dtd"
	 xmlns="http://www.w3.org/2000/svg" xmlns:xlink="http://www.w3.org/1999/xlink" x="0px" y="0px" width="100px" height="100px"
	 viewBox="0 0 100 100" enable-background="new 0 0 100 100" xml:space="preserve">
<sodipodi:namedview  id="namedview3072" inkscape:current-layer="Ebene_1" borderopacity="1" gridtolerance="10" inkscape:window-y="-4" inkscape:window-height="1017" inkscape:zoom="2.36" inkscape:cx="3.3898305" inkscape:pageopacity="0" pagecolor="#ffffff" inkscape:window-x="-4" inkscape:window-maximized="1" inkscape:cy="50" bordercolor="#666666" objecttolerance="10" inkscape:window-width="1920" inkscape:pageshadow="2" guidetolerance="10" showgrid="false">
	</sodipodi:namedview>
<path id="path3070_1_" inkscape:connector-curvature="0" fill="#FFFFFF" d="M62.882,61.6c2.834-1.576,2.467-7.645-0.816-13.562
	c-1.41-2.549-3.138-4.611-4.869-6.055c-2.02,1.479-4.481,2.38-7.162,2.38c-2.688,0-5.15-0.903-7.166-2.38
	c-1.73,1.443-3.458,3.506-4.873,6.055c-3.283,5.918-3.644,11.986-0.809,13.562c1.268,0.719,2.602,0.18,3.979-1.146
	c-0.242,1.344-0.384,2.801-0.384,4.324c0,6.783,2.63,12.264,5.871,12.264c1.953,0,2.921-1.996,3.385-5.051
	c0.462,3.033,1.431,5.051,3.373,5.051c3.223,0,5.876-5.482,5.876-12.264c0-1.523-0.144-2.98-0.389-4.324
	C60.28,61.779,61.612,62.328,62.882,61.6z M50.032,42.054c5.451,0,9.875-4.423,9.875-9.879s-4.424-9.876-9.875-9.876
	c-5.455,0-9.881,4.423-9.881,9.879C40.151,37.633,44.577,42.054,50.032,42.054z M69.873,48.316c4.474,0,8.108-3.631,8.108-8.109
	c0-4.477-3.632-8.111-8.108-8.111c-4.479,0-8.11,3.633-8.11,8.111S65.392,48.316,69.873,48.316z M79.755,53.232
	c-1.16-2.094-2.577-3.789-4-4.973c-1.656,1.214-3.68,1.953-5.877,1.953c-1.746,0-3.369-0.479-4.793-1.27
	c1.145,2.523,1.854,5.078,1.988,7.363c0.215,3.5-0.881,6.098-3.068,7.307c-0.471,0.271-0.984,0.424-1.508,0.518
	c-0.129,0.906-0.22,1.85-0.22,2.842c0,5.568,2.159,10.068,4.821,10.068c1.602,0,2.398-1.639,2.779-4.146
	c0.376,2.492,1.172,4.146,2.768,4.146c2.646,0,4.826-4.502,4.826-10.068c0-1.25-0.121-2.447-0.322-3.551
	c1.137,1.09,2.23,1.541,3.274,0.939C82.749,63.072,82.448,58.088,79.755,53.232z M30.191,48.316c4.477,0,8.108-3.631,8.108-8.109
	c0-4.477-3.632-8.111-8.108-8.111c-4.479,0-8.112,3.633-8.112,8.111S25.713,48.316,30.191,48.316z M36.044,63.605
	c-3.678-2.043-4.015-8.137-1.055-14.67c-1.43,0.799-3.053,1.277-4.798,1.277c-2.207,0-4.229-0.742-5.885-1.953
	c-1.422,1.184-2.837,2.879-4.001,4.973c-2.693,4.857-2.99,9.84-0.662,11.129c1.041,0.594,2.135,0.148,3.264-0.939
	c-0.198,1.107-0.313,2.301-0.313,3.551c0,5.568,2.159,10.068,4.82,10.068c1.603,0,2.399-1.639,2.78-4.146
	c0.381,2.492,1.175,4.146,2.772,4.146c2.646,0,4.823-4.502,4.823-10.068c0-0.996-0.093-1.941-0.225-2.846
	C37.044,64.031,36.528,63.883,36.044,63.605z"/>
</svg>
