<?xml version="1.0" encoding="UTF-8" standalone="no"?>
<!-- Generator: Adobe Illustrator 15.0.0, SVG Export Plug-In . SVG Version: 6.00 Build 0)  -->

<svg
   xmlns:dc="http://purl.org/dc/elements/1.1/"
   xmlns:cc="http://creativecommons.org/ns#"
   xmlns:rdf="http://www.w3.org/1999/02/22-rdf-syntax-ns#"
   xmlns:svg="http://www.w3.org/2000/svg"
   xmlns="http://www.w3.org/2000/svg"
   xmlns:sodipodi="http://sodipodi.sourceforge.net/DTD/sodipodi-0.dtd"
   xmlns:inkscape="http://www.inkscape.org/namespaces/inkscape"
   version="1.1"
   id="Layer_1"
   x="0px"
   y="0px"
   width="71.989998"
   height="50.361"
   viewBox="0 0 71.989998 50.361"
   enable-background="new 0 0 800 600"
   xml:space="preserve"
   inkscape:version="0.48+devel r11876"
   sodipodi:docname="stipends.svg"><metadata
     id="metadata935"><rdf:RDF><cc:Work
         rdf:about=""><dc:format>image/svg+xml</dc:format><dc:type
           rdf:resource="http://purl.org/dc/dcmitype/StillImage" /><dc:title></dc:title></cc:Work></rdf:RDF></metadata><defs
     id="defs933" /><sodipodi:namedview
     pagecolor="#ffffff"
     bordercolor="#666666"
     borderopacity="1"
     objecttolerance="10"
     gridtolerance="10"
     guidetolerance="10"
     inkscape:pageopacity="0"
     inkscape:pageshadow="2"
     inkscape:window-width="1198"
     inkscape:window-height="1899"
     id="namedview931"
     showgrid="false"
     fit-margin-top="0"
     fit-margin-left="0"
     fit-margin-right="0"
     fit-margin-bottom="0"
     inkscape:zoom="0.39333333"
     inkscape:cx="-449.1911"
     inkscape:cy="11.911"
     inkscape:window-x="0"
     inkscape:window-y="19"
     inkscape:window-maximized="0"
     inkscape:current-layer="Layer_1" /><g
     id="g913"
     transform="translate(-371.225,-261.55)"><polygon
       points="371.225,261.55 371.225,297.546 375.225,297.546 375.225,265.55 428.816,265.55 428.816,261.55 "
       id="polygon915"
       style="fill:#ffffff" /><polygon
       points="378.424,268.749 378.424,304.744 382.423,304.744 382.423,272.716 436.018,272.716 436.018,268.749 "
       id="polygon917"
       style="fill:#ffffff" /><path
       d="M 385.624,275.915 385.624,311.911 443.215,311.911 443.215,275.915 385.624,275.915 Z M 440.016,308.711 388.823,308.711 388.823,279.114 440.016,279.114 440.016,308.711 Z"
       id="path919"
       inkscape:connector-curvature="0"
       style="fill:#ffffff" /><path
       d="M 397.09,296.49 C 397.345,296.49 398.116,295.55 398.116,293.84 398.116,292.13 397.345,291.191 397.09,291.191 396.834,291.191 396.063,292.13 396.063,293.84 396.063,295.55 396.834,296.49 397.09,296.49 Z"
       id="path921"
       inkscape:connector-curvature="0"
       style="fill:#ffffff" /><path
       d="M 431.785,296.49 C 432.039,296.49 432.812,295.55 432.812,293.84 432.812,292.13 432.039,291.191 431.785,291.191 431.527,291.191 430.756,292.13 430.756,293.84 430.756,295.55 431.527,296.49 431.785,296.49 Z"
       id="path923"
       inkscape:connector-curvature="0"
       style="fill:#ffffff" /><path
       d="M 403.871,293.84 C 403.871,288.536 406.064,283.921 409.305,281.515 L 391.222,281.515 391.222,306.312 409.508,306.312 C 406.156,303.949 403.871,299.254 403.871,293.84 Z M 394.462,293.84 C 394.462,291.493 395.637,289.591 397.09,289.591 398.54,289.591 399.717,291.493 399.717,293.84 399.717,296.187 398.54,298.09 397.09,298.09 395.637,298.09 394.462,296.187 394.462,293.84 Z"
       id="path925"
       inkscape:connector-curvature="0"
       style="fill:#ffffff" /><path
       d="M 419.535,281.515 C 422.773,283.921 424.969,288.536 424.969,293.84 424.969,299.254 422.682,303.949 419.332,306.312 L 437.615,306.312 437.615,281.515 419.535,281.515 Z M 431.785,289.591 C 433.236,289.591 434.412,291.493 434.412,293.84 434.412,296.187 433.236,298.09 431.785,298.09 430.334,298.09 429.156,296.187 429.156,293.84 429.156,291.493 430.334,289.591 431.785,289.591 Z"
       id="path927"
       inkscape:connector-curvature="0"
       style="fill:#ffffff" /><path
       d="M 413.643,302.765 413.643,303.91 C 413.643,304.344 413.721,304.42 414.178,304.42 L 414.688,304.42 C 415.145,304.42 415.221,304.344 415.221,303.91 L 415.221,302.765 C 416.903,302.486 419.674,301.314 419.674,297.777 419.674,294.519 416.875,293.424 415.221,292.61 L 415.221,287.902 C 416.315,287.902 417.971,288.92 418.121,288.92 418.225,288.92 418.301,288.844 418.351,288.718 L 419.138,286.987 C 419.191,286.885 419.216,286.808 419.216,286.707 419.216,285.843 415.958,285.282 415.22,285.231 L 415.22,283.983 C 415.22,283.55 415.144,283.475 414.687,283.475 L 414.177,283.475 C 413.72,283.475 413.642,283.55 413.642,283.983 L 413.642,285.231 C 412.472,285.282 409.163,286.35 409.163,290.092 409.163,293.45 412.091,294.341 413.642,295.03 L 413.642,300.017 C 412.091,299.838 410.384,298.846 410.232,298.846 410.13,298.846 410.029,298.998 410.002,299.049 L 409.266,301.188 C 409.215,301.34 409.215,301.34 409.215,301.417 409.215,302.179 412.777,302.765 413.643,302.765 Z M 412.092,289.886 C 412.092,288.386 413.313,288.03 413.821,287.902 L 413.821,292.05 C 413.26,291.795 412.092,291.261 412.092,289.886 Z M 415.043,295.612 C 415.629,295.919 416.748,296.452 416.748,297.928 416.748,299.327 415.781,299.811 415.043,300.015 L 415.043,295.612 Z"
       id="path929"
       inkscape:connector-curvature="0"
       style="fill:#ffffff" /></g></svg>