<?xml version="1.0" encoding="UTF-8" standalone="no"?>
<svg xmlns:svg="http://www.w3.org/2000/svg" xmlns="http://www.w3.org/2000/svg" viewBox="0 0 48.75 48.749999" version="1.1">
  <path style="fill:#51b849;fill-opacity:1;fill-rule:nonzero;stroke:none" d="M 24.375,48.75 C 37.8375,48.75 48.75,37.8375 48.75,24.375 48.75,10.9125 37.8375,0 24.375,0 10.9125,0 0,10.9125 0,24.375 0,37.8375 10.9125,48.75 24.375,48.75" />
  <path style="fill:#ffffff;fill-opacity:1;fill-rule:nonzero;stroke:none" d="m 24.4003,7.96937 c -9.1138,0 -16.4563,7.29125 -16.4563,16.355 0,9.165 7.3425,16.45625 16.4563,16.45625 9.165,0 16.405,-7.29125 16.405,-16.45625 0,-9.06375 -7.24,-16.355 -16.405,-16.355 m 0.9113,29.7225 0,-6.5325 c 1.57,-0.05 3.14,-0.15125 4.7087,-0.30375 -0.6575,2.27875 -2.075,6.83625 -4.7087,6.83625 m -5.215,-3.29125 c -0.6075,-1.06375 -1.0638,-2.2275 -1.3675,-3.545 1.5187,0.1525 3.0887,0.25375 4.6587,0.30375 l 0,6.5325 c -1.3675,0 -2.5325,-1.46875 -3.2912,-3.29125 m -9.0126,-8.2025 c -0.1012,-0.5575 -0.1012,-1.21625 -0.1012,-1.87375 0,-1.31625 0.2025,-2.68375 0.5562,-3.89875 1.0638,0.455 2.43,0.81 4.76,1.26625 -0.1012,0.96125 -0.1524,1.77125 -0.1524,2.78375 0,1.3675 0.1012,2.785 0.3037,4.05125 -3.0375,-0.5575 -4.7088,-1.57 -5.3663,-2.32875 m 6.8863,-1.7225 c 0,-0.91125 0.05,-1.67 0.05,-2.5825 1.7213,0.20375 3.545,0.305 5.3675,0.355 l 0,7.14 c -1.7212,-0.0513 -3.3925,-0.2025 -5.1137,-0.5075 -0.2025,-1.36625 -0.3038,-2.93625 -0.3038,-4.405 m 5.3163,-13.4175 0.1012,0 0,9.4175 c -1.7212,-0.05 -3.4437,-0.15125 -5.1137,-0.30375 0.81,-4.6575 2.7337,-8.2025 5.0125,-9.11375 m 3.3412,0.70875 c 1.7225,1.57 3.19,4.76 3.8488,8.405 -1.7213,0.1525 -3.3925,0.25375 -5.165,0.30375 l 0,-9.4175 c 0.355,0 0.8612,0.405 1.3162,0.70875 m -1.3162,17.62125 0,-7.14 c 1.8737,-0.05 3.6462,-0.15125 5.3674,-0.30375 0.05,0.86125 0.05,1.62 0.05,2.53125 0,1.52 -0.05,3.08875 -0.3038,4.45625 -1.67,0.25375 -3.3412,0.405 -5.1137,0.45625 m 7.14,-7.69625 c 2.025,-0.20375 3.7462,-0.81125 4.7087,-1.21625 0.405,1.21625 0.6075,2.5825 0.6075,3.84875 0,2.1775 -0.2025,3.3925 -5.4688,4.25375 0.1526,-1.26625 0.2538,-2.735 0.2538,-4.1025 0,-1.0125 0,-1.8225 -0.1012,-2.78375 m 4,-2.98875 c -0.405,0.305 -1.5188,0.76 -4.2538,1.26625 -0.5062,-3.29125 -1.4687,-6.07625 -2.9875,-8.05125 3.14,1.115 5.8238,3.64625 7.2413,6.785 m -21.52,-3.74625 c 1.3674,-1.46875 2.8862,-2.1775 4.6075,-2.9875 -1.5188,2.025 -2.4813,4.70875 -3.0375,7.95 -2.9875,-0.81 -3.7475,-0.86125 -4.2026,-1.26625 0.6075,-1.31625 1.4675,-2.6325 2.6325,-3.69625 m 0,18.83625 c -1.4687,-1.3675 -2.43,-3.03875 -3.19,-4.9125 1.215,0.65875 3.0388,1.21625 5.0638,1.67125 0.5063,2.43125 1.2663,4.50625 2.43,6.1275 -1.57,-0.65875 -3.0887,-1.57 -4.3038,-2.88625 m 18.8863,0 c -1.215,1.31625 -2.785,2.2275 -4.3537,2.88625 1.2149,-1.67125 1.9237,-3.64625 2.4812,-6.07625 1.8725,-0.405 3.595,-0.91125 4.9113,-1.51875 -0.6588,1.77125 -1.6201,3.39125 -3.0388,4.70875" />
</svg>
