<?xml version="1.0" encoding="utf-8"?>
<!-- Generator: Adobe Illustrator 16.0.5, SVG Export Plug-In . SVG Version: 6.00 Build 0)  -->
<!DOCTYPE svg PUBLIC "-//W3C//DTD SVG 1.1//EN" "http://www.w3.org/Graphics/SVG/1.1/DTD/svg11.dtd">
<svg version="1.1" id="Layer_1" xmlns="http://www.w3.org/2000/svg" xmlns:xlink="http://www.w3.org/1999/xlink" x="0px" y="0px"
	 width="50px" height="50px" viewBox="0 0 50 50" style="enable-background:new 0 0 50 50;" xml:space="preserve">
<style type="text/css">
<![CDATA[
	.st0{fill:#51B849;}
]]>
</style>
<g>
	<path class="st0" d="M25,5c11.1,0,20,8.9,20,20c0,10.5-7.9,19-18.2,20V31h5l0.7-6.1h-5.7v-2.8c0-0.9,0.1-1.5,0.2-1.9
		c0.4-0.5,1.1-0.8,2.1-0.8h3.2v-6h-5.5c-1.2,0-2.4,0.2-3.5,0.6c-2.5,1-3.8,3.4-3.8,7.2v3.7H16V31h3.6v13.3C11.2,42,5,34.2,5,25
		C5,13.9,13.9,5,25,5z"/>
</g>
</svg>
