<?xml version="1.0" encoding="utf-8"?>
<!-- Generator: Adobe Illustrator 16.0.5, SVG Export Plug-In . SVG Version: 6.00 Build 0)  -->
<!DOCTYPE svg PUBLIC "-//W3C//DTD SVG 1.1//EN" "http://www.w3.org/Graphics/SVG/1.1/DTD/svg11.dtd">
<svg version="1.1" id="Layer_1" xmlns="http://www.w3.org/2000/svg" xmlns:xlink="http://www.w3.org/1999/xlink" x="0px" y="0px"
	 width="50px" height="50px" viewBox="0 0 50 50" style="enable-background:new 0 0 50 50;" xml:space="preserve">
<style type="text/css">
<![CDATA[
	.st0{fill:#51B849;}
]]>
</style>
<g>
	<path class="st0" d="M25,5c11.1-0.1,20,8.9,20,20c0,11-8.9,20-20,20C13.9,45,5,36,5,25C5,13.9,13.9,5,25,5z M18.9,13.7
		C18.4,13.3,17.8,13,17,13s-1.4,0.2-1.9,0.7c-0.5,0.5-0.8,1.1-0.7,1.7c-0.1,0.6,0.3,1.2,0.7,1.7c0.4,0.5,1,0.8,1.9,0.8
		c0.8,0,1.5-0.2,2-0.8c0.5-0.5,0.8-1.1,0.8-1.7C19.6,14.8,19.4,14.3,18.9,13.7z M19.3,33.7v-14h-4.8v14H19.3z M21.9,33.9h4.8V26
		c0-0.5,0-0.8,0.2-1.1c0.5-1.2,1.4-1.8,2.7-1.7s2,1.2,2,3.1v7.7h4.7v-8.2c0-1.9-0.3-3.4-1.2-4.3c-0.8-0.9-1.8-1.6-2.9-1.9
		c-1.1-0.2-2.1-0.1-3.2,0.2c-1.1,0.4-1.8,1.1-2.4,2h0v-2h-4.6V33.9z"/>
</g>
</svg>
