<?xml version="1.0" encoding="UTF-8" standalone="no"?>
<svg xmlns:svg="http://www.w3.org/2000/svg" xmlns="http://www.w3.org/2000/svg" viewBox="0 0 550 550" version="1.1" enable-background="new 0 0 550 550">
  <circle style="fill:#51b849;fill-opacity:1" r="256" cy="275" cx="275" />
  <path style="fill:#ffffff" d="m 219.2,366.5 -38.8,0 0,-124.3 38.8,0 0,124.3 z m -20.4,-139.9 -0.3,0 c -14.1,0 -23.2,-9.5 -23.2,-21.6 0,-12.3 9.4,-21.6 23.7,-21.6 14.3,0 23.1,9.3 23.4,21.5 0.1,12.2 -9,21.7 -23.6,21.7 z m 175.8,139.9 -44,0 0,-64.3 c 0,-16.8 -6.9,-28.3 -22,-28.3 -11.6,0 -18,7.7 -21,15.2 -1.1,2.7 -0.9,6.4 -0.9,10.2 l 0,67.3 -43.7,0 c 0,0 0.6,-113.9 0,-124.3 l 43.6,0 0,19.5 c 2.6,-8.5 16.5,-20.7 38.8,-20.7 27.6,0 49.3,17.9 49.3,56.4 l 0,69 z" />
</svg>
