<?xml version="1.0" encoding="UTF-8" standalone="no"?>
<!-- Created with Inkscape (http://www.inkscape.org/) -->

<svg
   xmlns:dc="http://purl.org/dc/elements/1.1/"
   xmlns:cc="http://creativecommons.org/ns#"
   xmlns:rdf="http://www.w3.org/1999/02/22-rdf-syntax-ns#"
   xmlns:svg="http://www.w3.org/2000/svg"
   xmlns="http://www.w3.org/2000/svg"
   version="1.1"
   width="97.633125"
   height="81.070213"
   id="svg4154">
  <defs
     id="defs4156">
    <clipPath
       id="clipPath1056">
      <path
         d="m 751.893,2539.513 78.107,0 0,67.592 -78.107,0 0,-67.592 z"
         id="path1058" />
    </clipPath>
  </defs>
  <metadata
     id="metadata4159">
    <rdf:RDF>
      <cc:Work
         rdf:about="">
        <dc:format>image/svg+xml</dc:format>
        <dc:type
           rdf:resource="http://purl.org/dc/dcmitype/StillImage" />
        <dc:title></dc:title>
      </cc:Work>
    </rdf:RDF>
  </metadata>
  <g
     transform="translate(-419.75486,-471.8271)"
     id="layer1">
    <g
       transform="matrix(1.25,0,0,-1.25,-520.11201,3730.7076)"
       id="g1052">
      <g
         clip-path="url(#clipPath1056)"
         id="g1054">
        <g
           transform="translate(796.3441,2572.0825)"
           id="g1060">
          <path
             d="m 0,0 c 0,0 5.971,-6.695 11.761,-7.599 5.79,-0.905 19.905,-2.351 21.895,-13.751 0,0.543 -8.324,11.217 -19,9.227 -0.182,0.18 1.81,-4.524 12.667,-5.248 -0.182,0 -4.161,-4.342 -16.105,3.982 -0.271,-0.272 0.362,-13.572 13.209,-16.285 -0.181,0 -10.312,-2.895 -17.914,15.923 -2.352,4.523 -3.981,7.781 -7.78,9.59 C -5.067,-2.351 0,0 0,0"
             id="path1062"
             style="fill:#61ac46;fill-opacity:1;fill-rule:nonzero;stroke:none" />
        </g>
        <g
           transform="translate(791.2775,2572.2644)"
           id="g1064">
          <path
             d="M 0,0 C -1.255,1.047 -13.752,12.127 -24.074,21.288 -33.566,12.941 -37.636,4.523 -37.636,4.523 c 1.583,8.34 6.046,14.408 11.28,18.791 -6.3,5.593 -11.316,10.052 -11.606,10.309 0.071,-0.034 0.28,-0.012 0.868,0.575 2.355,-1.025 7.11,-4.817 12.483,-9.493 10.016,7.481 21.907,9.302 22.077,9.131 -8.152,-2.814 -14.699,-6.885 -19.835,-11.1 C -12.117,13.647 -0.556,2.364 0.905,0.905 3.257,-1.448 2.171,-1.81 0,0 m -2.223,34.379 -37.161,0.461 0,-30.875 45.912,-9.575 -8.751,39.989 z"
             id="path1066"
             style="fill:#4e5867;fill-opacity:1;fill-rule:nonzero;stroke:none" />
        </g>
      </g>
    </g>
  </g>
</svg>
