<?xml version="1.0" encoding="UTF-8" standalone="no"?>
<svg xmlns:svg="http://www.w3.org/2000/svg" xmlns="http://www.w3.org/2000/svg" version="1.1" viewBox="0 0 70.501253 48.633749">
  <path style="fill:#51b849;fill-opacity:1;fill-rule:nonzero;stroke:none" d="m 44.4537,2.06875 -0.0425,0 0,-0.0425 c 0.28125,-0.4225 0.465,-0.88625 0.54875,-1.3925 l 0,-0.085 -0.0425,-0.0425 -1.7725,1.30875 c -1.99875,1.915 -3.39125,3.56125 -4.18,4.94 -1.8575,3.01125 -3.53125,6.58625 -5.02375,10.7225 l -0.04125,0 C 32.74495,16.38 31.53495,15.325 30.2687,14.31125 28.4962,13.07375 25.1187,11.3425 20.13745,9.11875 15.8312,7.29 12.60745,6.02375 10.46995,5.32 l 0,0.88625 c 0,1.37875 0.59,2.9125 1.7725,4.60125 1.71625,1.83 3.0675,2.91375 4.0525,3.25125 l 0,0.04125 c -1.26625,0 -2.645,0.1975 -4.1375,0.59125 0.085,1.01375 0.5775,2.195 1.4775,3.54625 1.21,1.54875 3.25125,2.68875 6.1225,3.42 l 0,0.0425 -1.05625,0.12625 c -1.18125,0.085 -2.35,0.675 -3.50375,1.7725 1.57625,2.9275 4.025,4.39125 7.34625,4.39125 l 1.0125,0 0,0.0425 c -1.68875,0.84375 -2.5325,1.815 -2.5325,2.9125 0,0.4225 0.15375,0.8725 0.46375,1.35125 0.92875,1.12625 2.0825,1.68875 3.4625,1.68875 l 0.6325,0 0.465,-0.0425 0,0.0425 c -0.14125,0 -0.3525,0.19625 -0.63375,0.59 -3.715,3.32125 -7.89375,4.9825 -12.5375,4.9825 -4.8975,0 -9.19,-1.64625 -12.87625,-4.94 0,0.16875 0.7875,1.16875 2.36375,2.9975 2.6175,2.6175 4.57375,4.32125 5.86875,5.10875 6.135,3.94 12.495,5.91 19.08125,5.91 l 1.64625,0 c 5.5725,0 11.23,-1.37875 16.97125,-4.1375 2.2225,-1.125 4.30625,-2.44875 6.24875,-3.9675 1.18125,-0.845 2.56,-2.18125 4.13625,-4.01125 2.89875,-3.2925 4.8125,-6.895 5.74125,-10.8075 l 0,-0.085 c 3.6025,0 6.4175,-1.02625 8.44375,-3.08125 l 0,-0.085 -0.08375,-0.04125 -1.6475,0.12625 -0.54875,0 -2.1525,-0.12625 c -2.195,-0.3375 -3.2925,-0.61875 -3.2925,-0.845 0.92875,0 2.0825,-0.26625 3.46125,-0.80125 1.9975,-0.845 3.30625,-2.06875 3.92625,-3.67375 l 0,-0.08375 C 68.27745,17.8575 66.37745,18.28 64.46495,18.28 l -0.25375,0 c -1.38,0 -2.18125,-0.1825 -2.40625,-0.54875 -0.1975,-1.66 -1.01375,-3.7575 -2.44875,-6.29 C 55.92245,6.85375 52.05245,4.56 47.7462,4.56 l -0.80125,0 0,-0.085 c 0.95625,-0.3375 2.2375,-0.7175 3.84125,-1.14 1.06875,-0.42125 1.68875,-0.84375 1.8575,-1.26625 l 0,-0.295 C 52.6437,1.295 52.31995,1.055 51.67245,1.055 c -0.8725,0 -2.195,0.33875 -3.9675,1.01375 l -0.085,0 c 1.1825,-0.76 1.7725,-1.40625 1.7725,-1.94125 l 0,-0.1275 C 48.1262,0 46.47995,0.69 44.4537,2.06875" />
</svg>
