<?xml version="1.0" encoding="UTF-8" standalone="no"?>
<!-- Created with Inkscape (http://www.inkscape.org/) -->

<svg
   xmlns:dc="http://purl.org/dc/elements/1.1/"
   xmlns:cc="http://creativecommons.org/ns#"
   xmlns:rdf="http://www.w3.org/1999/02/22-rdf-syntax-ns#"
   xmlns:svg="http://www.w3.org/2000/svg"
   xmlns="http://www.w3.org/2000/svg"
   version="1.1"
   width="84.434502"
   height="63.285999"
   id="svg4220">
  <defs
     id="defs4222">
    <clipPath
       id="clipPath1072">
      <path
         d="m 751.893,2462.262 67.548,0 0,50.629 -67.548,0 0,-50.629 z"
         id="path1074" />
    </clipPath>
  </defs>
  <metadata
     id="metadata4225">
    <rdf:RDF>
      <cc:Work
         rdf:about="">
        <dc:format>image/svg+xml</dc:format>
        <dc:type
           rdf:resource="http://purl.org/dc/dcmitype/StillImage" />
        <dc:title></dc:title>
      </cc:Work>
    </rdf:RDF>
  </metadata>
  <g
     transform="translate(-332.78275,-500.71915)"
     id="layer1">
    <g
       transform="matrix(1.25,0,0,-1.25,-607.08375,3641.8329)"
       id="g1068">
      <g
         clip-path="url(#clipPath1072)"
         id="g1070">
        <g
           transform="translate(768.9468,2498.4412)"
           id="g1076">
          <path
             d="M 0,0 C 1.857,-0.825 3.854,-1.382 5.949,-1.632 3.811,-0.351 2.168,1.68 1.396,4.1 3.397,2.913 5.613,2.05 7.974,1.585 c 1.888,2.015 4.581,3.271 7.561,3.271 5.721,0 10.359,-4.638 10.359,-10.359 0,-0.811 -0.091,-1.601 -0.269,-2.359 8.61,0.43 16.244,4.554 21.354,10.823 0.89,-1.529 1.402,-3.31 1.402,-5.208 0,-3.595 -1.829,-6.765 -4.609,-8.623 1.698,0.055 3.296,0.52 4.693,1.297 l 0,-0.132 c 0,-5.019 -3.57,-9.205 -8.311,-10.158 0.869,-0.237 1.785,-0.363 2.731,-0.363 0.668,0 1.316,0.065 1.949,0.187 -1.318,-4.116 -5.145,-7.111 -9.677,-7.195 3.546,-2.779 8.011,-4.434 12.866,-4.434 0.835,0 1.661,0.049 2.471,0.144 -4.586,-2.94 -10.031,-4.655 -15.881,-4.655 -19.054,0 -29.474,15.785 -29.474,29.476 0,0.448 0.009,0.895 0.03,1.34 C 3.145,-3.903 1.387,-2.078 0,0"
             id="path1078"
             style="fill:#4e5867;fill-opacity:1;fill-rule:nonzero;stroke:none" />
        </g>
        <g
           transform="translate(763.8052,2512.8904)"
           id="g1080">
          <path
             d="m 0,0 -1.384,-0.331 -6.916,-1.653 -0.027,0 0,-8.115 c -0.332,0.131 -0.703,0.207 -1.099,0.207 -1.373,0 -2.486,-0.892 -2.486,-1.993 0,-1.101 1.113,-1.993 2.486,-1.993 1.359,0 2.462,0.875 2.484,1.961 l 0.004,0 0,7.83 5.554,1.326 0,-4.867 c -0.332,0.131 -0.704,0.207 -1.098,0.207 -1.372,0 -2.486,-0.893 -2.486,-1.994 0,-1.101 1.114,-1.993 2.486,-1.993 1.359,0 2.461,0.876 2.484,1.961 l 0.003,0 0,8.121 0,1.327 L 0,0 z"
             id="path1082"
             style="fill:#61ac46;fill-opacity:1;fill-rule:nonzero;stroke:none" />
        </g>
      </g>
    </g>
  </g>
</svg>
