<?xml version="1.0" encoding="utf-8"?>
<!-- Generator: Adobe Illustrator 16.0.5, SVG Export Plug-In . SVG Version: 6.00 Build 0)  -->
<!DOCTYPE svg PUBLIC "-//W3C//DTD SVG 1.1//EN" "http://www.w3.org/Graphics/SVG/1.1/DTD/svg11.dtd">
<svg version="1.1" id="Layer_1" xmlns="http://www.w3.org/2000/svg" xmlns:xlink="http://www.w3.org/1999/xlink" x="0px" y="0px"
	 width="50px" height="50px" viewBox="0 0 50 50" style="enable-background:new 0 0 50 50;" xml:space="preserve">
<style type="text/css">
<![CDATA[
	.st0{fill:#51B849;}
	.st1{fill:#FFFFFF;}
]]>
</style>
<g>
	<path class="st0" d="M25,45c11,0,20-9,20-20c0-11-9-20-20-20S5,14,5,25C5,36,14,45,25,45"/>
	<path class="st1" d="M32.7,32.7c-1,1.1-2.3,1.8-3.6,2.4c1-1.4,1.6-3,2-5c1.5-0.3,2.9-0.7,4-1.2C34.7,30.3,33.9,31.6,32.7,32.7
		 M17.3,32.7c-1.2-1.1-2-2.5-2.6-4c1,0.5,2.5,1,4.2,1.4c0.4,2,1,3.7,2,5C19.5,34.6,18.2,33.8,17.3,32.7 M17.3,17.3
		c1.1-1.2,2.4-1.8,3.8-2.5c-1.2,1.7-2,3.9-2.5,6.5c-2.5-0.7-3.1-0.7-3.4-1C15.6,19.2,16.3,18.1,17.3,17.3 M34.9,20.3
		c-0.3,0.2-1.2,0.6-3.5,1c-0.4-2.7-1.2-5-2.5-6.6C31.5,15.7,33.7,17.8,34.9,20.3 M31.6,22.8c1.7-0.2,3.1-0.7,3.9-1
		c0.3,1,0.5,2.1,0.5,3.2c0,1.8-0.2,2.8-4.5,3.5c0.1-1,0.2-2.2,0.2-3.4C31.7,24.3,31.7,23.6,31.6,22.8 M25.8,29.1v-5.9
		c1.5,0,3-0.1,4.4-0.2c0,0.7,0,1.3,0,2.1c0,1.2,0,2.5-0.2,3.7C28.6,28.9,27.2,29.1,25.8,29.1 M26.8,14.7c1.4,1.3,2.6,3.9,3.2,6.9
		c-1.4,0.1-2.8,0.2-4.2,0.2v-7.7C26.1,14.1,26.5,14.4,26.8,14.7 M24.1,14.1L24.1,14.1l0.1,7.7c-1.4,0-2.8-0.1-4.2-0.2
		C20.7,17.7,22.2,14.8,24.1,14.1 M19.7,25.1c0-0.7,0-1.4,0-2.1c1.4,0.2,2.9,0.2,4.4,0.3v5.9c-1.4,0-2.8-0.2-4.2-0.4
		C19.8,27.6,19.7,26.3,19.7,25.1 M14.1,26.5C14,26,14,25.5,14,25c0-1.1,0.2-2.2,0.5-3.2c0.9,0.4,2,0.7,3.9,1
		c-0.1,0.8-0.1,1.5-0.1,2.3c0,1.1,0.1,2.3,0.2,3.3C16,28,14.6,27.1,14.1,26.5 M21.5,33.2c-0.5-0.9-0.9-1.8-1.1-2.9
		c1.2,0.1,2.5,0.2,3.8,0.2v5.4C23.1,35.9,22.1,34.7,21.5,33.2 M25.8,35.9v-5.4c1.3,0,2.6-0.1,3.9-0.2C29.1,32.2,27.9,35.9,25.8,35.9
		 M25,11.5c-7.5,0-13.5,6-13.5,13.4c0,7.5,6,13.5,13.5,13.5c7.5,0,13.5-6,13.5-13.5C38.5,17.5,32.5,11.5,25,11.5"/>
</g>
</svg>
