<?xml version="1.0" encoding="utf-8"?>
<!-- Generator: Adobe Illustrator 15.0.0, SVG Export Plug-In . SVG Version: 6.00 Build 0)  -->
<!DOCTYPE svg PUBLIC "-//W3C//DTD SVG 1.0//EN" "http://www.w3.org/TR/2001/REC-SVG-20010904/DTD/svg10.dtd">
<svg version="1.0" id="Layer_1" xmlns="http://www.w3.org/2000/svg" xmlns:xlink="http://www.w3.org/1999/xlink" x="0px" y="0px"
	 width="105px" height="98px" viewBox="30 24 48 51" style="enable-background:new 0 0 105 98;" xml:space="preserve">
<style type="text/css">
<![CDATA[
	.st0{fill:#4E5867;}
]]>
</style>
<g>
	<path class="st0" d="M53.556,49.118c0.199-0.066,0.4-0.125,0.602-0.184c-0.383-0.867-0.801-1.736-1.238-2.594
		c-7.858,2.354-15.399,2.184-15.67,2.174c-0.005,0.164-0.013,0.322-0.013,0.486c0,3.921,1.479,7.496,3.911,10.199
		c-0.002-0.004-0.006-0.008-0.006-0.008S45.32,51.781,53.556,49.118z"/>
	<path class="st0" d="M51.655,43.991c-2.642-4.693-5.464-8.523-5.667-8.795c-4.257,2.01-7.434,5.932-8.424,10.658
		C37.966,45.858,44.327,45.938,51.655,43.991z"/>
	<path class="st0" d="M62.58,37.545c-2.688-2.369-6.216-3.807-10.08-3.807c-1.239,0-2.443,0.15-3.597,0.428
		c0.229,0.307,3.097,4.111,5.706,8.904C60.369,40.911,62.542,37.602,62.58,37.545z"/>
	<path class="st0" d="M48.845,34.182c-0.018,0.002-0.033,0.004-0.05,0.012c0.029-0.008,0.046-0.012,0.046-0.012H48.845z"/>
	<path class="st0" d="M43.119,61.031l0.003-0.006c-0.113-0.088-0.233-0.168-0.344-0.262C42.98,60.928,43.119,61.031,43.119,61.031z"
		/>
	<path class="st0" d="M55.784,45.344c0.354,0.729,0.697,1.469,1.015,2.213c0.112,0.268,0.222,0.529,0.329,0.791
		c5.244-0.66,10.409,0.451,10.63,0.496c-0.035-3.619-1.329-6.939-3.471-9.539C64.257,39.346,61.81,42.883,55.784,45.344z"/>
	<path class="st0" d="M55.097,51.496c-9.008,3.141-11.947,9.469-11.976,9.529c2.589,2.021,5.839,3.236,9.378,3.236
		c2.114,0,4.128-0.43,5.959-1.209c-0.226-1.334-1.112-6.008-3.261-11.59C55.165,51.475,55.13,51.484,55.097,51.496z"/>
	<path class="st0" d="M52.5,24.375c-13.6,0-24.624,11.027-24.624,24.625C27.875,62.6,38.9,73.625,52.5,73.625S77.125,62.6,77.125,49
		C77.125,35.403,66.099,24.375,52.5,24.375z M68.966,55.957c-0.447,1.061-1.002,2.082-1.648,3.035
		c-0.639,0.947-1.373,1.836-2.181,2.645c-0.809,0.807-1.698,1.541-2.644,2.182c-0.955,0.645-1.978,1.199-3.037,1.648
		c-1.079,0.455-2.209,0.805-3.357,1.041c-1.178,0.242-2.389,0.365-3.6,0.365s-2.422-0.123-3.599-0.365
		c-1.149-0.236-2.279-0.586-3.358-1.041c-1.06-0.449-2.082-1.004-3.037-1.648c-0.945-0.641-1.835-1.375-2.643-2.182
		c-0.809-0.809-1.543-1.697-2.182-2.645c-0.645-0.953-1.199-1.975-1.648-3.035c-0.456-1.08-0.807-2.209-1.043-3.359
		C34.75,51.42,34.628,50.211,34.628,49s0.122-2.422,0.361-3.598c0.236-1.15,0.587-2.281,1.043-3.359
		c0.449-1.061,1.004-2.084,1.648-3.037c0.639-0.947,1.373-1.834,2.182-2.645c0.808-0.807,1.697-1.539,2.643-2.18
		c0.955-0.646,1.978-1.201,3.037-1.65c1.079-0.457,2.209-0.807,3.358-1.041c1.177-0.24,2.388-0.363,3.599-0.363
		s2.422,0.123,3.6,0.363c1.148,0.234,2.278,0.584,3.357,1.041c1.06,0.449,2.082,1.004,3.037,1.65
		c0.945,0.641,1.835,1.373,2.644,2.18c0.808,0.811,1.542,1.697,2.181,2.645c0.646,0.953,1.201,1.977,1.648,3.037
		c0.457,1.078,0.807,2.209,1.042,3.359c0.241,1.176,0.364,2.387,0.364,3.598s-0.123,2.419-0.364,3.597
		C69.773,53.748,69.423,54.877,68.966,55.957z"/>
	<path class="st0" d="M58.058,50.756c2.002,5.501,2.815,9.982,2.971,10.902c3.427-2.312,5.861-5.984,6.54-10.238
		C67.254,51.318,62.985,49.967,58.058,50.756z"/>
</g>
</svg>
