<svg id="applications-selection" xmlns="http://www.w3.org/2000/svg" xmlns:xlink="http://www.w3.org/1999/xlink" viewBox="-170 -440 340 460">
  <defs>
    <g id="icon">
      <path d="M3.232,13.626c-0.0045-1.418-0.4378-2.915-1.49-3.9129-0.6957-0.6842-1.8043-0.954-2.7031-0.5232-1.1545,0.5396-1.8176,1.7521-2.1011,2.9461-0.1147,0.488-0.1698,0.989-0.1698,1.49h6.464z"/>
      <path d="M2.221,6.597c0.0161,1.0144-0.8483,1.8843-1.827,2.0229-1.0443,0.1957-2.2187-0.4181-2.5288-1.4603-0.2909-0.8832,0.1761-1.893,0.9846-2.3201,1.0107-0.5898,2.4612-0.28,3.0771,0.7346,0.1905,0.305,0.2951,0.663,0.2941,1.0229z"/>
    </g>
  </defs>
  
  <g class="selected">
    
    <use x="-8" y="-25" xlink:href="#icon"/>
    
    <use x="0" y="-25" xlink:href="#icon"/>
    
    <use x="8" y="-25" xlink:href="#icon"/>
    
    <use x="-16" y="-35" xlink:href="#icon"/>
    
    <use x="-8" y="-35" xlink:href="#icon"/>
    
    <use x="0" y="-35" xlink:href="#icon"/>
    
  </g>
  
  <g class="applications">
    
    <use x="24" y="-220" xlink:href="#icon"/>
    
    <use x="32" y="-220" xlink:href="#icon"/>
    
    <use x="40" y="-220" xlink:href="#icon"/>
    
    <use x="48" y="-220" xlink:href="#icon"/>
    
    <use x="56" y="-220" xlink:href="#icon"/>
    
    <use x="64" y="-220" xlink:href="#icon"/>
    
    <use x="72" y="-220" xlink:href="#icon"/>
    
    <use x="80" y="-220" xlink:href="#icon"/>
    
    <use x="-88" y="-230" xlink:href="#icon"/>
    
    <use x="-80" y="-230" xlink:href="#icon"/>
    
    <use x="-72" y="-230" xlink:href="#icon"/>
    
    <use x="-64" y="-230" xlink:href="#icon"/>
    
    <use x="-56" y="-230" xlink:href="#icon"/>
    
    <use x="-48" y="-230" xlink:href="#icon"/>
    
    <use x="-40" y="-230" xlink:href="#icon"/>
    
    <use x="-32" y="-230" xlink:href="#icon"/>
    
    <use x="-24" y="-230" xlink:href="#icon"/>
    
    <use x="-16" y="-230" xlink:href="#icon"/>
    
    <use x="-8" y="-230" xlink:href="#icon"/>
    
    <use x="0" y="-230" xlink:href="#icon"/>
    
    <use x="8" y="-230" xlink:href="#icon"/>
    
    <use x="16" y="-230" xlink:href="#icon"/>
    
    <use x="24" y="-230" xlink:href="#icon"/>
    
    <use x="32" y="-230" xlink:href="#icon"/>
    
    <use x="40" y="-230" xlink:href="#icon"/>
    
    <use x="48" y="-230" xlink:href="#icon"/>
    
    <use x="56" y="-230" xlink:href="#icon"/>
    
    <use x="64" y="-230" xlink:href="#icon"/>
    
    <use x="72" y="-230" xlink:href="#icon"/>
    
    <use x="80" y="-230" xlink:href="#icon"/>
    
    <use x="88" y="-230" xlink:href="#icon"/>
    
    <use x="-88" y="-240" xlink:href="#icon"/>
    
    <use x="-80" y="-240" xlink:href="#icon"/>
    
    <use x="-72" y="-240" xlink:href="#icon"/>
    
    <use x="-64" y="-240" xlink:href="#icon"/>
    
    <use x="-56" y="-240" xlink:href="#icon"/>
    
    <use x="-48" y="-240" xlink:href="#icon"/>
    
    <use x="-40" y="-240" xlink:href="#icon"/>
    
    <use x="-32" y="-240" xlink:href="#icon"/>
    
    <use x="-24" y="-240" xlink:href="#icon"/>
    
    <use x="-16" y="-240" xlink:href="#icon"/>
    
    <use x="-8" y="-240" xlink:href="#icon"/>
    
    <use x="0" y="-240" xlink:href="#icon"/>
    
    <use x="8" y="-240" xlink:href="#icon"/>
    
    <use x="16" y="-240" xlink:href="#icon"/>
    
    <use x="24" y="-240" xlink:href="#icon"/>
    
    <use x="32" y="-240" xlink:href="#icon"/>
    
    <use x="40" y="-240" xlink:href="#icon"/>
    
    <use x="48" y="-240" xlink:href="#icon"/>
    
    <use x="56" y="-240" xlink:href="#icon"/>
    
    <use x="64" y="-240" xlink:href="#icon"/>
    
    <use x="72" y="-240" xlink:href="#icon"/>
    
    <use x="80" y="-240" xlink:href="#icon"/>
    
    <use x="88" y="-240" xlink:href="#icon"/>
    
    <use x="-96" y="-250" xlink:href="#icon"/>
    
    <use x="-88" y="-250" xlink:href="#icon"/>
    
    <use x="-80" y="-250" xlink:href="#icon"/>
    
    <use x="-72" y="-250" xlink:href="#icon"/>
    
    <use x="-64" y="-250" xlink:href="#icon"/>
    
    <use x="-56" y="-250" xlink:href="#icon"/>
    
    <use x="-48" y="-250" xlink:href="#icon"/>
    
    <use x="-40" y="-250" xlink:href="#icon"/>
    
    <use x="-32" y="-250" xlink:href="#icon"/>
    
    <use x="-24" y="-250" xlink:href="#icon"/>
    
    <use x="-16" y="-250" xlink:href="#icon"/>
    
    <use x="-8" y="-250" xlink:href="#icon"/>
    
    <use x="0" y="-250" xlink:href="#icon"/>
    
    <use x="8" y="-250" xlink:href="#icon"/>
    
    <use x="16" y="-250" xlink:href="#icon"/>
    
    <use x="24" y="-250" xlink:href="#icon"/>
    
    <use x="32" y="-250" xlink:href="#icon"/>
    
    <use x="40" y="-250" xlink:href="#icon"/>
    
    <use x="48" y="-250" xlink:href="#icon"/>
    
    <use x="56" y="-250" xlink:href="#icon"/>
    
    <use x="64" y="-250" xlink:href="#icon"/>
    
    <use x="72" y="-250" xlink:href="#icon"/>
    
    <use x="80" y="-250" xlink:href="#icon"/>
    
    <use x="88" y="-250" xlink:href="#icon"/>
    
    <use x="96" y="-250" xlink:href="#icon"/>
    
    <use x="-96" y="-260" xlink:href="#icon"/>
    
    <use x="-88" y="-260" xlink:href="#icon"/>
    
    <use x="-80" y="-260" xlink:href="#icon"/>
    
    <use x="-72" y="-260" xlink:href="#icon"/>
    
    <use x="-64" y="-260" xlink:href="#icon"/>
    
    <use x="-56" y="-260" xlink:href="#icon"/>
    
    <use x="-48" y="-260" xlink:href="#icon"/>
    
    <use x="-40" y="-260" xlink:href="#icon"/>
    
    <use x="-32" y="-260" xlink:href="#icon"/>
    
    <use x="-24" y="-260" xlink:href="#icon"/>
    
    <use x="-16" y="-260" xlink:href="#icon"/>
    
    <use x="-8" y="-260" xlink:href="#icon"/>
    
    <use x="0" y="-260" xlink:href="#icon"/>
    
    <use x="8" y="-260" xlink:href="#icon"/>
    
    <use x="16" y="-260" xlink:href="#icon"/>
    
    <use x="24" y="-260" xlink:href="#icon"/>
    
    <use x="32" y="-260" xlink:href="#icon"/>
    
    <use x="40" y="-260" xlink:href="#icon"/>
    
    <use x="48" y="-260" xlink:href="#icon"/>
    
    <use x="56" y="-260" xlink:href="#icon"/>
    
    <use x="64" y="-260" xlink:href="#icon"/>
    
    <use x="72" y="-260" xlink:href="#icon"/>
    
    <use x="80" y="-260" xlink:href="#icon"/>
    
    <use x="88" y="-260" xlink:href="#icon"/>
    
    <use x="96" y="-260" xlink:href="#icon"/>
    
    <use x="-104" y="-270" xlink:href="#icon"/>
    
    <use x="-96" y="-270" xlink:href="#icon"/>
    
    <use x="-88" y="-270" xlink:href="#icon"/>
    
    <use x="-80" y="-270" xlink:href="#icon"/>
    
    <use x="-72" y="-270" xlink:href="#icon"/>
    
    <use x="-64" y="-270" xlink:href="#icon"/>
    
    <use x="-56" y="-270" xlink:href="#icon"/>
    
    <use x="-48" y="-270" xlink:href="#icon"/>
    
    <use x="-40" y="-270" xlink:href="#icon"/>
    
    <use x="-32" y="-270" xlink:href="#icon"/>
    
    <use x="-24" y="-270" xlink:href="#icon"/>
    
    <use x="-16" y="-270" xlink:href="#icon"/>
    
    <use x="-8" y="-270" xlink:href="#icon"/>
    
    <use x="0" y="-270" xlink:href="#icon"/>
    
    <use x="8" y="-270" xlink:href="#icon"/>
    
    <use x="16" y="-270" xlink:href="#icon"/>
    
    <use x="24" y="-270" xlink:href="#icon"/>
    
    <use x="32" y="-270" xlink:href="#icon"/>
    
    <use x="40" y="-270" xlink:href="#icon"/>
    
    <use x="48" y="-270" xlink:href="#icon"/>
    
    <use x="56" y="-270" xlink:href="#icon"/>
    
    <use x="64" y="-270" xlink:href="#icon"/>
    
    <use x="72" y="-270" xlink:href="#icon"/>
    
    <use x="80" y="-270" xlink:href="#icon"/>
    
    <use x="88" y="-270" xlink:href="#icon"/>
    
    <use x="96" y="-270" xlink:href="#icon"/>
    
    <use x="104" y="-270" xlink:href="#icon"/>
    
    <use x="-104" y="-280" xlink:href="#icon"/>
    
    <use x="-96" y="-280" xlink:href="#icon"/>
    
    <use x="-88" y="-280" xlink:href="#icon"/>
    
    <use x="-80" y="-280" xlink:href="#icon"/>
    
    <use x="-72" y="-280" xlink:href="#icon"/>
    
    <use x="-64" y="-280" xlink:href="#icon"/>
    
    <use x="-56" y="-280" xlink:href="#icon"/>
    
    <use x="-48" y="-280" xlink:href="#icon"/>
    
    <use x="-40" y="-280" xlink:href="#icon"/>
    
    <use x="-32" y="-280" xlink:href="#icon"/>
    
    <use x="-24" y="-280" xlink:href="#icon"/>
    
    <use x="-16" y="-280" xlink:href="#icon"/>
    
    <use x="-8" y="-280" xlink:href="#icon"/>
    
    <use x="0" y="-280" xlink:href="#icon"/>
    
    <use x="8" y="-280" xlink:href="#icon"/>
    
    <use x="16" y="-280" xlink:href="#icon"/>
    
    <use x="24" y="-280" xlink:href="#icon"/>
    
    <use x="32" y="-280" xlink:href="#icon"/>
    
    <use x="40" y="-280" xlink:href="#icon"/>
    
    <use x="48" y="-280" xlink:href="#icon"/>
    
    <use x="56" y="-280" xlink:href="#icon"/>
    
    <use x="64" y="-280" xlink:href="#icon"/>
    
    <use x="72" y="-280" xlink:href="#icon"/>
    
    <use x="80" y="-280" xlink:href="#icon"/>
    
    <use x="88" y="-280" xlink:href="#icon"/>
    
    <use x="96" y="-280" xlink:href="#icon"/>
    
    <use x="104" y="-280" xlink:href="#icon"/>
    
    <use x="-112" y="-290" xlink:href="#icon"/>
    
    <use x="-104" y="-290" xlink:href="#icon"/>
    
    <use x="-96" y="-290" xlink:href="#icon"/>
    
    <use x="-88" y="-290" xlink:href="#icon"/>
    
    <use x="-80" y="-290" xlink:href="#icon"/>
    
    <use x="-72" y="-290" xlink:href="#icon"/>
    
    <use x="-64" y="-290" xlink:href="#icon"/>
    
    <use x="-56" y="-290" xlink:href="#icon"/>
    
    <use x="-48" y="-290" xlink:href="#icon"/>
    
    <use x="-40" y="-290" xlink:href="#icon"/>
    
    <use x="-32" y="-290" xlink:href="#icon"/>
    
    <use x="-24" y="-290" xlink:href="#icon"/>
    
    <use x="-16" y="-290" xlink:href="#icon"/>
    
    <use x="-8" y="-290" xlink:href="#icon"/>
    
    <use x="0" y="-290" xlink:href="#icon"/>
    
    <use x="8" y="-290" xlink:href="#icon"/>
    
    <use x="16" y="-290" xlink:href="#icon"/>
    
    <use x="24" y="-290" xlink:href="#icon"/>
    
    <use x="32" y="-290" xlink:href="#icon"/>
    
    <use x="40" y="-290" xlink:href="#icon"/>
    
    <use x="48" y="-290" xlink:href="#icon"/>
    
    <use x="56" y="-290" xlink:href="#icon"/>
    
    <use x="64" y="-290" xlink:href="#icon"/>
    
    <use x="72" y="-290" xlink:href="#icon"/>
    
    <use x="80" y="-290" xlink:href="#icon"/>
    
    <use x="88" y="-290" xlink:href="#icon"/>
    
    <use x="96" y="-290" xlink:href="#icon"/>
    
    <use x="104" y="-290" xlink:href="#icon"/>
    
    <use x="112" y="-290" xlink:href="#icon"/>
    
    <use x="-112" y="-300" xlink:href="#icon"/>
    
    <use x="-104" y="-300" xlink:href="#icon"/>
    
    <use x="-96" y="-300" xlink:href="#icon"/>
    
    <use x="-88" y="-300" xlink:href="#icon"/>
    
    <use x="-80" y="-300" xlink:href="#icon"/>
    
    <use x="-72" y="-300" xlink:href="#icon"/>
    
    <use x="-64" y="-300" xlink:href="#icon"/>
    
    <use x="-56" y="-300" xlink:href="#icon"/>
    
    <use x="-48" y="-300" xlink:href="#icon"/>
    
    <use x="-40" y="-300" xlink:href="#icon"/>
    
    <use x="-32" y="-300" xlink:href="#icon"/>
    
    <use x="-24" y="-300" xlink:href="#icon"/>
    
    <use x="-16" y="-300" xlink:href="#icon"/>
    
    <use x="-8" y="-300" xlink:href="#icon"/>
    
    <use x="0" y="-300" xlink:href="#icon"/>
    
    <use x="8" y="-300" xlink:href="#icon"/>
    
    <use x="16" y="-300" xlink:href="#icon"/>
    
    <use x="24" y="-300" xlink:href="#icon"/>
    
    <use x="32" y="-300" xlink:href="#icon"/>
    
    <use x="40" y="-300" xlink:href="#icon"/>
    
    <use x="48" y="-300" xlink:href="#icon"/>
    
    <use x="56" y="-300" xlink:href="#icon"/>
    
    <use x="64" y="-300" xlink:href="#icon"/>
    
    <use x="72" y="-300" xlink:href="#icon"/>
    
    <use x="80" y="-300" xlink:href="#icon"/>
    
    <use x="88" y="-300" xlink:href="#icon"/>
    
    <use x="96" y="-300" xlink:href="#icon"/>
    
    <use x="104" y="-300" xlink:href="#icon"/>
    
    <use x="112" y="-300" xlink:href="#icon"/>
    
  </g>
  
  <g class="enquiries">
    
    <use x="-120" y="-315" xlink:href="#icon"/>
    
    <use x="-112" y="-315" xlink:href="#icon"/>
    
    <use x="-104" y="-315" xlink:href="#icon"/>
    
    <use x="-96" y="-315" xlink:href="#icon"/>
    
    <use x="-88" y="-315" xlink:href="#icon"/>
    
    <use x="-80" y="-315" xlink:href="#icon"/>
    
    <use x="-72" y="-315" xlink:href="#icon"/>
    
    <use x="-64" y="-315" xlink:href="#icon"/>
    
    <use x="-56" y="-315" xlink:href="#icon"/>
    
    <use x="-48" y="-315" xlink:href="#icon"/>
    
    <use x="-40" y="-315" xlink:href="#icon"/>
    
    <use x="-32" y="-315" xlink:href="#icon"/>
    
    <use x="-24" y="-315" xlink:href="#icon"/>
    
    <use x="-16" y="-315" xlink:href="#icon"/>
    
    <use x="-8" y="-315" xlink:href="#icon"/>
    
    <use x="0" y="-315" xlink:href="#icon"/>
    
    <use x="8" y="-315" xlink:href="#icon"/>
    
    <use x="16" y="-315" xlink:href="#icon"/>
    
    <use x="24" y="-315" xlink:href="#icon"/>
    
    <use x="32" y="-315" xlink:href="#icon"/>
    
    <use x="40" y="-315" xlink:href="#icon"/>
    
    <use x="48" y="-315" xlink:href="#icon"/>
    
    <use x="56" y="-315" xlink:href="#icon"/>
    
    <use x="64" y="-315" xlink:href="#icon"/>
    
    <use x="72" y="-315" xlink:href="#icon"/>
    
    <use x="80" y="-315" xlink:href="#icon"/>
    
    <use x="88" y="-315" xlink:href="#icon"/>
    
    <use x="96" y="-315" xlink:href="#icon"/>
    
    <use x="104" y="-315" xlink:href="#icon"/>
    
    <use x="112" y="-315" xlink:href="#icon"/>
    
    <use x="120" y="-315" xlink:href="#icon"/>
    
    <use x="-120" y="-325" xlink:href="#icon"/>
    
    <use x="-112" y="-325" xlink:href="#icon"/>
    
    <use x="-104" y="-325" xlink:href="#icon"/>
    
    <use x="-96" y="-325" xlink:href="#icon"/>
    
    <use x="-88" y="-325" xlink:href="#icon"/>
    
    <use x="-80" y="-325" xlink:href="#icon"/>
    
    <use x="-72" y="-325" xlink:href="#icon"/>
    
    <use x="-64" y="-325" xlink:href="#icon"/>
    
    <use x="-56" y="-325" xlink:href="#icon"/>
    
    <use x="-48" y="-325" xlink:href="#icon"/>
    
    <use x="-40" y="-325" xlink:href="#icon"/>
    
    <use x="-32" y="-325" xlink:href="#icon"/>
    
    <use x="-24" y="-325" xlink:href="#icon"/>
    
    <use x="-16" y="-325" xlink:href="#icon"/>
    
    <use x="-8" y="-325" xlink:href="#icon"/>
    
    <use x="0" y="-325" xlink:href="#icon"/>
    
    <use x="8" y="-325" xlink:href="#icon"/>
    
    <use x="16" y="-325" xlink:href="#icon"/>
    
    <use x="24" y="-325" xlink:href="#icon"/>
    
    <use x="32" y="-325" xlink:href="#icon"/>
    
    <use x="40" y="-325" xlink:href="#icon"/>
    
    <use x="48" y="-325" xlink:href="#icon"/>
    
    <use x="56" y="-325" xlink:href="#icon"/>
    
    <use x="64" y="-325" xlink:href="#icon"/>
    
    <use x="72" y="-325" xlink:href="#icon"/>
    
    <use x="80" y="-325" xlink:href="#icon"/>
    
    <use x="88" y="-325" xlink:href="#icon"/>
    
    <use x="96" y="-325" xlink:href="#icon"/>
    
    <use x="104" y="-325" xlink:href="#icon"/>
    
    <use x="112" y="-325" xlink:href="#icon"/>
    
    <use x="120" y="-325" xlink:href="#icon"/>
    
    <use x="-128" y="-335" xlink:href="#icon"/>
    
    <use x="-120" y="-335" xlink:href="#icon"/>
    
    <use x="-112" y="-335" xlink:href="#icon"/>
    
    <use x="-104" y="-335" xlink:href="#icon"/>
    
    <use x="-96" y="-335" xlink:href="#icon"/>
    
    <use x="-88" y="-335" xlink:href="#icon"/>
    
    <use x="-80" y="-335" xlink:href="#icon"/>
    
    <use x="-72" y="-335" xlink:href="#icon"/>
    
    <use x="-64" y="-335" xlink:href="#icon"/>
    
    <use x="-56" y="-335" xlink:href="#icon"/>
    
    <use x="-48" y="-335" xlink:href="#icon"/>
    
    <use x="-40" y="-335" xlink:href="#icon"/>
    
    <use x="-32" y="-335" xlink:href="#icon"/>
    
    <use x="-24" y="-335" xlink:href="#icon"/>
    
    <use x="-16" y="-335" xlink:href="#icon"/>
    
    <use x="-8" y="-335" xlink:href="#icon"/>
    
    <use x="0" y="-335" xlink:href="#icon"/>
    
    <use x="8" y="-335" xlink:href="#icon"/>
    
    <use x="16" y="-335" xlink:href="#icon"/>
    
    <use x="24" y="-335" xlink:href="#icon"/>
    
    <use x="32" y="-335" xlink:href="#icon"/>
    
    <use x="40" y="-335" xlink:href="#icon"/>
    
    <use x="48" y="-335" xlink:href="#icon"/>
    
    <use x="56" y="-335" xlink:href="#icon"/>
    
    <use x="64" y="-335" xlink:href="#icon"/>
    
    <use x="72" y="-335" xlink:href="#icon"/>
    
    <use x="80" y="-335" xlink:href="#icon"/>
    
    <use x="88" y="-335" xlink:href="#icon"/>
    
    <use x="96" y="-335" xlink:href="#icon"/>
    
    <use x="104" y="-335" xlink:href="#icon"/>
    
    <use x="112" y="-335" xlink:href="#icon"/>
    
    <use x="120" y="-335" xlink:href="#icon"/>
    
    <use x="128" y="-335" xlink:href="#icon"/>
    
    <use x="-128" y="-345" xlink:href="#icon"/>
    
    <use x="-120" y="-345" xlink:href="#icon"/>
    
    <use x="-112" y="-345" xlink:href="#icon"/>
    
    <use x="-104" y="-345" xlink:href="#icon"/>
    
    <use x="-96" y="-345" xlink:href="#icon"/>
    
    <use x="-88" y="-345" xlink:href="#icon"/>
    
    <use x="-80" y="-345" xlink:href="#icon"/>
    
    <use x="-72" y="-345" xlink:href="#icon"/>
    
    <use x="-64" y="-345" xlink:href="#icon"/>
    
    <use x="-56" y="-345" xlink:href="#icon"/>
    
    <use x="-48" y="-345" xlink:href="#icon"/>
    
    <use x="-40" y="-345" xlink:href="#icon"/>
    
    <use x="-32" y="-345" xlink:href="#icon"/>
    
    <use x="-24" y="-345" xlink:href="#icon"/>
    
    <use x="-16" y="-345" xlink:href="#icon"/>
    
    <use x="-8" y="-345" xlink:href="#icon"/>
    
    <use x="0" y="-345" xlink:href="#icon"/>
    
    <use x="8" y="-345" xlink:href="#icon"/>
    
    <use x="16" y="-345" xlink:href="#icon"/>
    
    <use x="24" y="-345" xlink:href="#icon"/>
    
    <use x="32" y="-345" xlink:href="#icon"/>
    
    <use x="40" y="-345" xlink:href="#icon"/>
    
    <use x="48" y="-345" xlink:href="#icon"/>
    
    <use x="56" y="-345" xlink:href="#icon"/>
    
    <use x="64" y="-345" xlink:href="#icon"/>
    
    <use x="72" y="-345" xlink:href="#icon"/>
    
    <use x="80" y="-345" xlink:href="#icon"/>
    
    <use x="88" y="-345" xlink:href="#icon"/>
    
    <use x="96" y="-345" xlink:href="#icon"/>
    
    <use x="104" y="-345" xlink:href="#icon"/>
    
    <use x="112" y="-345" xlink:href="#icon"/>
    
    <use x="120" y="-345" xlink:href="#icon"/>
    
    <use x="128" y="-345" xlink:href="#icon"/>
    
    <use x="-136" y="-355" xlink:href="#icon"/>
    
    <use x="-128" y="-355" xlink:href="#icon"/>
    
    <use x="-120" y="-355" xlink:href="#icon"/>
    
    <use x="-112" y="-355" xlink:href="#icon"/>
    
    <use x="-104" y="-355" xlink:href="#icon"/>
    
    <use x="-96" y="-355" xlink:href="#icon"/>
    
    <use x="-88" y="-355" xlink:href="#icon"/>
    
    <use x="-80" y="-355" xlink:href="#icon"/>
    
    <use x="-72" y="-355" xlink:href="#icon"/>
    
    <use x="-64" y="-355" xlink:href="#icon"/>
    
    <use x="-56" y="-355" xlink:href="#icon"/>
    
    <use x="-48" y="-355" xlink:href="#icon"/>
    
    <use x="-40" y="-355" xlink:href="#icon"/>
    
    <use x="-32" y="-355" xlink:href="#icon"/>
    
    <use x="-24" y="-355" xlink:href="#icon"/>
    
    <use x="-16" y="-355" xlink:href="#icon"/>
    
    <use x="-8" y="-355" xlink:href="#icon"/>
    
    <use x="0" y="-355" xlink:href="#icon"/>
    
    <use x="8" y="-355" xlink:href="#icon"/>
    
    <use x="16" y="-355" xlink:href="#icon"/>
    
    <use x="24" y="-355" xlink:href="#icon"/>
    
    <use x="32" y="-355" xlink:href="#icon"/>
    
    <use x="40" y="-355" xlink:href="#icon"/>
    
    <use x="48" y="-355" xlink:href="#icon"/>
    
    <use x="56" y="-355" xlink:href="#icon"/>
    
    <use x="64" y="-355" xlink:href="#icon"/>
    
    <use x="72" y="-355" xlink:href="#icon"/>
    
    <use x="80" y="-355" xlink:href="#icon"/>
    
    <use x="88" y="-355" xlink:href="#icon"/>
    
    <use x="96" y="-355" xlink:href="#icon"/>
    
    <use x="104" y="-355" xlink:href="#icon"/>
    
    <use x="112" y="-355" xlink:href="#icon"/>
    
    <use x="120" y="-355" xlink:href="#icon"/>
    
    <use x="128" y="-355" xlink:href="#icon"/>
    
    <use x="136" y="-355" xlink:href="#icon"/>
    
    <use x="-136" y="-365" xlink:href="#icon"/>
    
    <use x="-128" y="-365" xlink:href="#icon"/>
    
    <use x="-120" y="-365" xlink:href="#icon"/>
    
    <use x="-112" y="-365" xlink:href="#icon"/>
    
    <use x="-104" y="-365" xlink:href="#icon"/>
    
    <use x="-96" y="-365" xlink:href="#icon"/>
    
    <use x="-88" y="-365" xlink:href="#icon"/>
    
    <use x="-80" y="-365" xlink:href="#icon"/>
    
    <use x="-72" y="-365" xlink:href="#icon"/>
    
    <use x="-64" y="-365" xlink:href="#icon"/>
    
    <use x="-56" y="-365" xlink:href="#icon"/>
    
    <use x="-48" y="-365" xlink:href="#icon"/>
    
    <use x="-40" y="-365" xlink:href="#icon"/>
    
    <use x="-32" y="-365" xlink:href="#icon"/>
    
    <use x="-24" y="-365" xlink:href="#icon"/>
    
    <use x="-16" y="-365" xlink:href="#icon"/>
    
    <use x="-8" y="-365" xlink:href="#icon"/>
    
    <use x="0" y="-365" xlink:href="#icon"/>
    
    <use x="8" y="-365" xlink:href="#icon"/>
    
    <use x="16" y="-365" xlink:href="#icon"/>
    
    <use x="24" y="-365" xlink:href="#icon"/>
    
    <use x="32" y="-365" xlink:href="#icon"/>
    
    <use x="40" y="-365" xlink:href="#icon"/>
    
    <use x="48" y="-365" xlink:href="#icon"/>
    
    <use x="56" y="-365" xlink:href="#icon"/>
    
    <use x="64" y="-365" xlink:href="#icon"/>
    
    <use x="72" y="-365" xlink:href="#icon"/>
    
    <use x="80" y="-365" xlink:href="#icon"/>
    
    <use x="88" y="-365" xlink:href="#icon"/>
    
    <use x="96" y="-365" xlink:href="#icon"/>
    
    <use x="104" y="-365" xlink:href="#icon"/>
    
    <use x="112" y="-365" xlink:href="#icon"/>
    
    <use x="120" y="-365" xlink:href="#icon"/>
    
    <use x="128" y="-365" xlink:href="#icon"/>
    
    <use x="136" y="-365" xlink:href="#icon"/>
    
    <use x="-144" y="-375" xlink:href="#icon"/>
    
    <use x="-136" y="-375" xlink:href="#icon"/>
    
    <use x="-128" y="-375" xlink:href="#icon"/>
    
    <use x="-120" y="-375" xlink:href="#icon"/>
    
    <use x="-112" y="-375" xlink:href="#icon"/>
    
    <use x="-104" y="-375" xlink:href="#icon"/>
    
    <use x="-96" y="-375" xlink:href="#icon"/>
    
    <use x="-88" y="-375" xlink:href="#icon"/>
    
    <use x="-80" y="-375" xlink:href="#icon"/>
    
    <use x="-72" y="-375" xlink:href="#icon"/>
    
    <use x="-64" y="-375" xlink:href="#icon"/>
    
    <use x="-56" y="-375" xlink:href="#icon"/>
    
    <use x="-48" y="-375" xlink:href="#icon"/>
    
    <use x="-40" y="-375" xlink:href="#icon"/>
    
    <use x="-32" y="-375" xlink:href="#icon"/>
    
    <use x="-24" y="-375" xlink:href="#icon"/>
    
    <use x="-16" y="-375" xlink:href="#icon"/>
    
    <use x="-8" y="-375" xlink:href="#icon"/>
    
    <use x="0" y="-375" xlink:href="#icon"/>
    
    <use x="8" y="-375" xlink:href="#icon"/>
    
    <use x="16" y="-375" xlink:href="#icon"/>
    
    <use x="24" y="-375" xlink:href="#icon"/>
    
    <use x="32" y="-375" xlink:href="#icon"/>
    
    <use x="40" y="-375" xlink:href="#icon"/>
    
    <use x="48" y="-375" xlink:href="#icon"/>
    
    <use x="56" y="-375" xlink:href="#icon"/>
    
    <use x="64" y="-375" xlink:href="#icon"/>
    
    <use x="72" y="-375" xlink:href="#icon"/>
    
    <use x="80" y="-375" xlink:href="#icon"/>
    
    <use x="88" y="-375" xlink:href="#icon"/>
    
    <use x="96" y="-375" xlink:href="#icon"/>
    
    <use x="104" y="-375" xlink:href="#icon"/>
    
    <use x="112" y="-375" xlink:href="#icon"/>
    
    <use x="120" y="-375" xlink:href="#icon"/>
    
    <use x="128" y="-375" xlink:href="#icon"/>
    
    <use x="136" y="-375" xlink:href="#icon"/>
    
    <use x="144" y="-375" xlink:href="#icon"/>
    
    <use x="-144" y="-385" xlink:href="#icon"/>
    
    <use x="-136" y="-385" xlink:href="#icon"/>
    
    <use x="-128" y="-385" xlink:href="#icon"/>
    
    <use x="-120" y="-385" xlink:href="#icon"/>
    
    <use x="-112" y="-385" xlink:href="#icon"/>
    
    <use x="-104" y="-385" xlink:href="#icon"/>
    
    <use x="-96" y="-385" xlink:href="#icon"/>
    
    <use x="-88" y="-385" xlink:href="#icon"/>
    
    <use x="-80" y="-385" xlink:href="#icon"/>
    
    <use x="-72" y="-385" xlink:href="#icon"/>
    
    <use x="-64" y="-385" xlink:href="#icon"/>
    
    <use x="-56" y="-385" xlink:href="#icon"/>
    
    <use x="-48" y="-385" xlink:href="#icon"/>
    
    <use x="-40" y="-385" xlink:href="#icon"/>
    
    <use x="-32" y="-385" xlink:href="#icon"/>
    
    <use x="-24" y="-385" xlink:href="#icon"/>
    
    <use x="-16" y="-385" xlink:href="#icon"/>
    
    <use x="-8" y="-385" xlink:href="#icon"/>
    
    <use x="0" y="-385" xlink:href="#icon"/>
    
    <use x="8" y="-385" xlink:href="#icon"/>
    
    <use x="16" y="-385" xlink:href="#icon"/>
    
    <use x="24" y="-385" xlink:href="#icon"/>
    
    <use x="32" y="-385" xlink:href="#icon"/>
    
    <use x="40" y="-385" xlink:href="#icon"/>
    
    <use x="48" y="-385" xlink:href="#icon"/>
    
    <use x="56" y="-385" xlink:href="#icon"/>
    
    <use x="64" y="-385" xlink:href="#icon"/>
    
    <use x="72" y="-385" xlink:href="#icon"/>
    
    <use x="80" y="-385" xlink:href="#icon"/>
    
    <use x="88" y="-385" xlink:href="#icon"/>
    
    <use x="96" y="-385" xlink:href="#icon"/>
    
    <use x="104" y="-385" xlink:href="#icon"/>
    
    <use x="112" y="-385" xlink:href="#icon"/>
    
    <use x="120" y="-385" xlink:href="#icon"/>
    
    <use x="128" y="-385" xlink:href="#icon"/>
    
    <use x="136" y="-385" xlink:href="#icon"/>
    
    <use x="144" y="-385" xlink:href="#icon"/>
    
    <use x="-152" y="-395" xlink:href="#icon"/>
    
    <use x="-144" y="-395" xlink:href="#icon"/>
    
    <use x="-136" y="-395" xlink:href="#icon"/>
    
    <use x="-128" y="-395" xlink:href="#icon"/>
    
    <use x="-120" y="-395" xlink:href="#icon"/>
    
    <use x="-112" y="-395" xlink:href="#icon"/>
    
    <use x="-104" y="-395" xlink:href="#icon"/>
    
    <use x="-96" y="-395" xlink:href="#icon"/>
    
    <use x="-88" y="-395" xlink:href="#icon"/>
    
    <use x="-80" y="-395" xlink:href="#icon"/>
    
    <use x="-72" y="-395" xlink:href="#icon"/>
    
    <use x="-64" y="-395" xlink:href="#icon"/>
    
    <use x="-56" y="-395" xlink:href="#icon"/>
    
    <use x="-48" y="-395" xlink:href="#icon"/>
    
    <use x="-40" y="-395" xlink:href="#icon"/>
    
    <use x="-32" y="-395" xlink:href="#icon"/>
    
    <use x="-24" y="-395" xlink:href="#icon"/>
    
    <use x="-16" y="-395" xlink:href="#icon"/>
    
    <use x="-8" y="-395" xlink:href="#icon"/>
    
    <use x="0" y="-395" xlink:href="#icon"/>
    
    <use x="8" y="-395" xlink:href="#icon"/>
    
    <use x="16" y="-395" xlink:href="#icon"/>
    
    <use x="24" y="-395" xlink:href="#icon"/>
    
    <use x="32" y="-395" xlink:href="#icon"/>
    
    <use x="40" y="-395" xlink:href="#icon"/>
    
    <use x="48" y="-395" xlink:href="#icon"/>
    
    <use x="56" y="-395" xlink:href="#icon"/>
    
    <use x="64" y="-395" xlink:href="#icon"/>
    
    <use x="72" y="-395" xlink:href="#icon"/>
    
    <use x="80" y="-395" xlink:href="#icon"/>
    
    <use x="88" y="-395" xlink:href="#icon"/>
    
    <use x="96" y="-395" xlink:href="#icon"/>
    
    <use x="104" y="-395" xlink:href="#icon"/>
    
    <use x="112" y="-395" xlink:href="#icon"/>
    
    <use x="120" y="-395" xlink:href="#icon"/>
    
    <use x="128" y="-395" xlink:href="#icon"/>
    
    <use x="136" y="-395" xlink:href="#icon"/>
    
    <use x="144" y="-395" xlink:href="#icon"/>
    
    <use x="152" y="-395" xlink:href="#icon"/>
    
    <use x="-152" y="-405" xlink:href="#icon"/>
    
    <use x="-144" y="-405" xlink:href="#icon"/>
    
    <use x="-136" y="-405" xlink:href="#icon"/>
    
    <use x="-128" y="-405" xlink:href="#icon"/>
    
    <use x="-120" y="-405" xlink:href="#icon"/>
    
    <use x="-112" y="-405" xlink:href="#icon"/>
    
    <use x="-104" y="-405" xlink:href="#icon"/>
    
    <use x="-96" y="-405" xlink:href="#icon"/>
    
    <use x="-88" y="-405" xlink:href="#icon"/>
    
    <use x="-80" y="-405" xlink:href="#icon"/>
    
    <use x="-72" y="-405" xlink:href="#icon"/>
    
    <use x="-64" y="-405" xlink:href="#icon"/>
    
    <use x="-56" y="-405" xlink:href="#icon"/>
    
    <use x="-48" y="-405" xlink:href="#icon"/>
    
    <use x="-40" y="-405" xlink:href="#icon"/>
    
    <use x="-32" y="-405" xlink:href="#icon"/>
    
    <use x="-24" y="-405" xlink:href="#icon"/>
    
    <use x="-16" y="-405" xlink:href="#icon"/>
    
    <use x="-8" y="-405" xlink:href="#icon"/>
    
    <use x="0" y="-405" xlink:href="#icon"/>
    
    <use x="8" y="-405" xlink:href="#icon"/>
    
    <use x="16" y="-405" xlink:href="#icon"/>
    
    <use x="24" y="-405" xlink:href="#icon"/>
    
    <use x="32" y="-405" xlink:href="#icon"/>
    
    <use x="40" y="-405" xlink:href="#icon"/>
    
    <use x="48" y="-405" xlink:href="#icon"/>
    
    <use x="56" y="-405" xlink:href="#icon"/>
    
    <use x="64" y="-405" xlink:href="#icon"/>
    
    <use x="72" y="-405" xlink:href="#icon"/>
    
    <use x="80" y="-405" xlink:href="#icon"/>
    
    <use x="88" y="-405" xlink:href="#icon"/>
    
    <use x="96" y="-405" xlink:href="#icon"/>
    
    <use x="104" y="-405" xlink:href="#icon"/>
    
    <use x="112" y="-405" xlink:href="#icon"/>
    
    <use x="120" y="-405" xlink:href="#icon"/>
    
    <use x="128" y="-405" xlink:href="#icon"/>
    
    <use x="136" y="-405" xlink:href="#icon"/>
    
    <use x="144" y="-405" xlink:href="#icon"/>
    
    <use x="152" y="-405" xlink:href="#icon"/>
    
    <use x="-160" y="-415" xlink:href="#icon"/>
    
    <use x="-152" y="-415" xlink:href="#icon"/>
    
    <use x="-144" y="-415" xlink:href="#icon"/>
    
    <use x="-136" y="-415" xlink:href="#icon"/>
    
    <use x="-128" y="-415" xlink:href="#icon"/>
    
    <use x="-120" y="-415" xlink:href="#icon"/>
    
    <use x="-112" y="-415" xlink:href="#icon"/>
    
    <use x="-104" y="-415" xlink:href="#icon"/>
    
    <use x="-96" y="-415" xlink:href="#icon"/>
    
    <use x="-88" y="-415" xlink:href="#icon"/>
    
    <use x="-80" y="-415" xlink:href="#icon"/>
    
    <use x="-72" y="-415" xlink:href="#icon"/>
    
    <use x="-64" y="-415" xlink:href="#icon"/>
    
    <use x="-56" y="-415" xlink:href="#icon"/>
    
    <use x="-48" y="-415" xlink:href="#icon"/>
    
    <use x="-40" y="-415" xlink:href="#icon"/>
    
    <use x="-32" y="-415" xlink:href="#icon"/>
    
    <use x="-24" y="-415" xlink:href="#icon"/>
    
    <use x="-16" y="-415" xlink:href="#icon"/>
    
    <use x="-8" y="-415" xlink:href="#icon"/>
    
    <use x="0" y="-415" xlink:href="#icon"/>
    
    <use x="8" y="-415" xlink:href="#icon"/>
    
    <use x="16" y="-415" xlink:href="#icon"/>
    
    <use x="24" y="-415" xlink:href="#icon"/>
    
    <use x="32" y="-415" xlink:href="#icon"/>
    
    <use x="40" y="-415" xlink:href="#icon"/>
    
    <use x="48" y="-415" xlink:href="#icon"/>
    
    <use x="56" y="-415" xlink:href="#icon"/>
    
    <use x="64" y="-415" xlink:href="#icon"/>
    
    <use x="72" y="-415" xlink:href="#icon"/>
    
    <use x="80" y="-415" xlink:href="#icon"/>
    
    <use x="88" y="-415" xlink:href="#icon"/>
    
    <use x="96" y="-415" xlink:href="#icon"/>
    
    <use x="104" y="-415" xlink:href="#icon"/>
    
    <use x="112" y="-415" xlink:href="#icon"/>
    
    <use x="120" y="-415" xlink:href="#icon"/>
    
    <use x="128" y="-415" xlink:href="#icon"/>
    
    <use x="136" y="-415" xlink:href="#icon"/>
    
    <use x="144" y="-415" xlink:href="#icon"/>
    
    <use x="152" y="-415" xlink:href="#icon"/>
    
    <use x="160" y="-415" xlink:href="#icon"/>
    
    <use x="-160" y="-425" xlink:href="#icon"/>
    
    <use x="-152" y="-425" xlink:href="#icon"/>
    
    <use x="-144" y="-425" xlink:href="#icon"/>
    
    <use x="-136" y="-425" xlink:href="#icon"/>
    
    <use x="-128" y="-425" xlink:href="#icon"/>
    
    <use x="-120" y="-425" xlink:href="#icon"/>
    
    <use x="-112" y="-425" xlink:href="#icon"/>
    
    <use x="-104" y="-425" xlink:href="#icon"/>
    
    <use x="-96" y="-425" xlink:href="#icon"/>
    
    <use x="-88" y="-425" xlink:href="#icon"/>
    
    <use x="-80" y="-425" xlink:href="#icon"/>
    
    <use x="-72" y="-425" xlink:href="#icon"/>
    
    <use x="-64" y="-425" xlink:href="#icon"/>
    
    <use x="-56" y="-425" xlink:href="#icon"/>
    
    <use x="-48" y="-425" xlink:href="#icon"/>
    
    <use x="-40" y="-425" xlink:href="#icon"/>
    
    <use x="-32" y="-425" xlink:href="#icon"/>
    
    <use x="-24" y="-425" xlink:href="#icon"/>
    
    <use x="-16" y="-425" xlink:href="#icon"/>
    
    <use x="-8" y="-425" xlink:href="#icon"/>
    
    <use x="0" y="-425" xlink:href="#icon"/>
    
    <use x="8" y="-425" xlink:href="#icon"/>
    
    <use x="16" y="-425" xlink:href="#icon"/>
    
    <use x="24" y="-425" xlink:href="#icon"/>
    
    <use x="32" y="-425" xlink:href="#icon"/>
    
    <use x="40" y="-425" xlink:href="#icon"/>
    
    <use x="48" y="-425" xlink:href="#icon"/>
    
    <use x="56" y="-425" xlink:href="#icon"/>
    
    <use x="64" y="-425" xlink:href="#icon"/>
    
    <use x="72" y="-425" xlink:href="#icon"/>
    
    <use x="80" y="-425" xlink:href="#icon"/>
    
    <use x="88" y="-425" xlink:href="#icon"/>
    
    <use x="96" y="-425" xlink:href="#icon"/>
    
    <use x="104" y="-425" xlink:href="#icon"/>
    
    <use x="112" y="-425" xlink:href="#icon"/>
    
    <use x="120" y="-425" xlink:href="#icon"/>
    
    <use x="128" y="-425" xlink:href="#icon"/>
    
    <use x="136" y="-425" xlink:href="#icon"/>
    
    <use x="144" y="-425" xlink:href="#icon"/>
    
    <use x="152" y="-425" xlink:href="#icon"/>
    
    <use x="160" y="-425" xlink:href="#icon"/>
    
    <use x="0" y="-435" xlink:href="#icon"/>
    
    <use x="-8" y="-435" xlink:href="#icon"/>
    
    <use x="8" y="-435" xlink:href="#icon"/>
    
    <use x="-16" y="-435" xlink:href="#icon"/>
    
    <use x="16" y="-435" xlink:href="#icon"/>
    
    <use x="-24" y="-435" xlink:href="#icon"/>
    
    <use x="24" y="-435" xlink:href="#icon"/>
    
    <use x="-32" y="-435" xlink:href="#icon"/>
    
    <use x="32" y="-435" xlink:href="#icon"/>
    
    <use x="-40" y="-435" xlink:href="#icon"/>
    
    <use x="40" y="-435" xlink:href="#icon"/>
    
    <use x="-48" y="-435" xlink:href="#icon"/>
    
    <use x="48" y="-435" xlink:href="#icon"/>
    
    <use x="-56" y="-435" xlink:href="#icon"/>
    
    <use x="56" y="-435" xlink:href="#icon"/>
    
    <use x="-64" y="-435" xlink:href="#icon"/>
    
    <use x="64" y="-435" xlink:href="#icon"/>
    
    <use x="-72" y="-435" xlink:href="#icon"/>
    
    <use x="72" y="-435" xlink:href="#icon"/>
    
    <use x="-80" y="-435" xlink:href="#icon"/>
    
    <use x="80" y="-435" xlink:href="#icon"/>
    
    <use x="-88" y="-435" xlink:href="#icon"/>
    
    <use x="88" y="-435" xlink:href="#icon"/>
    
    <use x="-96" y="-435" xlink:href="#icon"/>
    
    <use x="96" y="-435" xlink:href="#icon"/>
    
    <use x="-104" y="-435" xlink:href="#icon"/>
    
    <use x="104" y="-435" xlink:href="#icon"/>
    
    <use x="-112" y="-435" xlink:href="#icon"/>
    
    <use x="112" y="-435" xlink:href="#icon"/>
    
    <use x="-120" y="-435" xlink:href="#icon"/>
    
    <use x="120" y="-435" xlink:href="#icon"/>
    
    <use x="-128" y="-435" xlink:href="#icon"/>
    
    <use x="128" y="-435" xlink:href="#icon"/>
    
    <use x="-136" y="-435" xlink:href="#icon"/>
    
    <use x="136" y="-435" xlink:href="#icon"/>
    
    <use x="-144" y="-435" xlink:href="#icon"/>
    
    <use x="144" y="-435" xlink:href="#icon"/>
    
    <use x="-152" y="-435" xlink:href="#icon"/>
    
    <use x="152" y="-435" xlink:href="#icon"/>
    
    <use x="-160" y="-435" xlink:href="#icon"/>
    
    <use x="160" y="-435" xlink:href="#icon"/>
    
  </g>
  
  <g class="shortlisted">
    
    <use x="8" y="-40" xlink:href="#icon"/>
    
    <use x="16" y="-40" xlink:href="#icon"/>
    
    <use x="-16" y="-50" xlink:href="#icon"/>
    
    <use x="-8" y="-50" xlink:href="#icon"/>
    
    <use x="0" y="-50" xlink:href="#icon"/>
    
    <use x="8" y="-50" xlink:href="#icon"/>
    
    <use x="16" y="-50" xlink:href="#icon"/>
    
    <use x="-24" y="-60" xlink:href="#icon"/>
    
    <use x="-16" y="-60" xlink:href="#icon"/>
    
    <use x="-8" y="-60" xlink:href="#icon"/>
    
    <use x="0" y="-60" xlink:href="#icon"/>
    
    <use x="8" y="-60" xlink:href="#icon"/>
    
    <use x="16" y="-60" xlink:href="#icon"/>
    
    <use x="24" y="-60" xlink:href="#icon"/>
    
    <use x="-24" y="-70" xlink:href="#icon"/>
    
  </g>
  
  <g class="withdrawn">
    
    <use x="0" y="-10" xlink:href="#icon"/>
    
  </g>
  
  <g class="declined">
    
    <use x="-16" y="-75" xlink:href="#icon"/>
    
    <use x="-8" y="-75" xlink:href="#icon"/>
    
    <use x="0" y="-75" xlink:href="#icon"/>
    
    <use x="8" y="-75" xlink:href="#icon"/>
    
    <use x="16" y="-75" xlink:href="#icon"/>
    
    <use x="24" y="-75" xlink:href="#icon"/>
    
    <use x="-32" y="-85" xlink:href="#icon"/>
    
    <use x="-24" y="-85" xlink:href="#icon"/>
    
    <use x="-16" y="-85" xlink:href="#icon"/>
    
    <use x="-8" y="-85" xlink:href="#icon"/>
    
    <use x="0" y="-85" xlink:href="#icon"/>
    
    <use x="8" y="-85" xlink:href="#icon"/>
    
    <use x="16" y="-85" xlink:href="#icon"/>
    
    <use x="24" y="-85" xlink:href="#icon"/>
    
    <use x="32" y="-85" xlink:href="#icon"/>
    
    <use x="-32" y="-95" xlink:href="#icon"/>
    
    <use x="-24" y="-95" xlink:href="#icon"/>
    
    <use x="-16" y="-95" xlink:href="#icon"/>
    
    <use x="-8" y="-95" xlink:href="#icon"/>
    
    <use x="0" y="-95" xlink:href="#icon"/>
    
    <use x="8" y="-95" xlink:href="#icon"/>
    
    <use x="16" y="-95" xlink:href="#icon"/>
    
    <use x="24" y="-95" xlink:href="#icon"/>
    
    <use x="32" y="-95" xlink:href="#icon"/>
    
    <use x="-40" y="-105" xlink:href="#icon"/>
    
    <use x="-32" y="-105" xlink:href="#icon"/>
    
    <use x="-24" y="-105" xlink:href="#icon"/>
    
    <use x="-16" y="-105" xlink:href="#icon"/>
    
    <use x="-8" y="-105" xlink:href="#icon"/>
    
    <use x="0" y="-105" xlink:href="#icon"/>
    
    <use x="8" y="-105" xlink:href="#icon"/>
    
    <use x="16" y="-105" xlink:href="#icon"/>
    
    <use x="24" y="-105" xlink:href="#icon"/>
    
    <use x="32" y="-105" xlink:href="#icon"/>
    
    <use x="40" y="-105" xlink:href="#icon"/>
    
    <use x="-40" y="-115" xlink:href="#icon"/>
    
    <use x="-32" y="-115" xlink:href="#icon"/>
    
    <use x="-24" y="-115" xlink:href="#icon"/>
    
    <use x="-16" y="-115" xlink:href="#icon"/>
    
    <use x="-8" y="-115" xlink:href="#icon"/>
    
    <use x="0" y="-115" xlink:href="#icon"/>
    
    <use x="8" y="-115" xlink:href="#icon"/>
    
    <use x="16" y="-115" xlink:href="#icon"/>
    
    <use x="24" y="-115" xlink:href="#icon"/>
    
    <use x="32" y="-115" xlink:href="#icon"/>
    
    <use x="40" y="-115" xlink:href="#icon"/>
    
    <use x="-48" y="-125" xlink:href="#icon"/>
    
    <use x="-40" y="-125" xlink:href="#icon"/>
    
    <use x="-32" y="-125" xlink:href="#icon"/>
    
    <use x="-24" y="-125" xlink:href="#icon"/>
    
    <use x="-16" y="-125" xlink:href="#icon"/>
    
    <use x="-8" y="-125" xlink:href="#icon"/>
    
    <use x="0" y="-125" xlink:href="#icon"/>
    
    <use x="8" y="-125" xlink:href="#icon"/>
    
    <use x="16" y="-125" xlink:href="#icon"/>
    
    <use x="24" y="-125" xlink:href="#icon"/>
    
    <use x="32" y="-125" xlink:href="#icon"/>
    
    <use x="40" y="-125" xlink:href="#icon"/>
    
    <use x="48" y="-125" xlink:href="#icon"/>
    
    <use x="-48" y="-135" xlink:href="#icon"/>
    
    <use x="-40" y="-135" xlink:href="#icon"/>
    
    <use x="-32" y="-135" xlink:href="#icon"/>
    
    <use x="-24" y="-135" xlink:href="#icon"/>
    
    <use x="-16" y="-135" xlink:href="#icon"/>
    
    <use x="-8" y="-135" xlink:href="#icon"/>
    
    <use x="0" y="-135" xlink:href="#icon"/>
    
    <use x="8" y="-135" xlink:href="#icon"/>
    
    <use x="16" y="-135" xlink:href="#icon"/>
    
    <use x="24" y="-135" xlink:href="#icon"/>
    
    <use x="32" y="-135" xlink:href="#icon"/>
    
    <use x="40" y="-135" xlink:href="#icon"/>
    
    <use x="48" y="-135" xlink:href="#icon"/>
    
    <use x="-56" y="-145" xlink:href="#icon"/>
    
    <use x="-48" y="-145" xlink:href="#icon"/>
    
    <use x="-40" y="-145" xlink:href="#icon"/>
    
    <use x="-32" y="-145" xlink:href="#icon"/>
    
    <use x="-24" y="-145" xlink:href="#icon"/>
    
    <use x="-16" y="-145" xlink:href="#icon"/>
    
    <use x="-8" y="-145" xlink:href="#icon"/>
    
    <use x="0" y="-145" xlink:href="#icon"/>
    
    <use x="8" y="-145" xlink:href="#icon"/>
    
    <use x="16" y="-145" xlink:href="#icon"/>
    
    <use x="24" y="-145" xlink:href="#icon"/>
    
    <use x="32" y="-145" xlink:href="#icon"/>
    
    <use x="40" y="-145" xlink:href="#icon"/>
    
    <use x="48" y="-145" xlink:href="#icon"/>
    
    <use x="56" y="-145" xlink:href="#icon"/>
    
    <use x="-56" y="-155" xlink:href="#icon"/>
    
    <use x="-48" y="-155" xlink:href="#icon"/>
    
    <use x="-40" y="-155" xlink:href="#icon"/>
    
    <use x="-32" y="-155" xlink:href="#icon"/>
    
    <use x="-24" y="-155" xlink:href="#icon"/>
    
    <use x="-16" y="-155" xlink:href="#icon"/>
    
    <use x="-8" y="-155" xlink:href="#icon"/>
    
    <use x="0" y="-155" xlink:href="#icon"/>
    
    <use x="8" y="-155" xlink:href="#icon"/>
    
    <use x="16" y="-155" xlink:href="#icon"/>
    
    <use x="24" y="-155" xlink:href="#icon"/>
    
    <use x="32" y="-155" xlink:href="#icon"/>
    
    <use x="40" y="-155" xlink:href="#icon"/>
    
    <use x="48" y="-155" xlink:href="#icon"/>
    
    <use x="56" y="-155" xlink:href="#icon"/>
    
    <use x="-64" y="-165" xlink:href="#icon"/>
    
    <use x="-56" y="-165" xlink:href="#icon"/>
    
    <use x="-48" y="-165" xlink:href="#icon"/>
    
    <use x="-40" y="-165" xlink:href="#icon"/>
    
    <use x="-32" y="-165" xlink:href="#icon"/>
    
    <use x="-24" y="-165" xlink:href="#icon"/>
    
    <use x="-16" y="-165" xlink:href="#icon"/>
    
    <use x="-8" y="-165" xlink:href="#icon"/>
    
    <use x="0" y="-165" xlink:href="#icon"/>
    
    <use x="8" y="-165" xlink:href="#icon"/>
    
    <use x="16" y="-165" xlink:href="#icon"/>
    
    <use x="24" y="-165" xlink:href="#icon"/>
    
    <use x="32" y="-165" xlink:href="#icon"/>
    
    <use x="40" y="-165" xlink:href="#icon"/>
    
    <use x="48" y="-165" xlink:href="#icon"/>
    
    <use x="56" y="-165" xlink:href="#icon"/>
    
    <use x="64" y="-165" xlink:href="#icon"/>
    
    <use x="-64" y="-175" xlink:href="#icon"/>
    
    <use x="-56" y="-175" xlink:href="#icon"/>
    
    <use x="-48" y="-175" xlink:href="#icon"/>
    
    <use x="-40" y="-175" xlink:href="#icon"/>
    
    <use x="-32" y="-175" xlink:href="#icon"/>
    
    <use x="-24" y="-175" xlink:href="#icon"/>
    
    <use x="-16" y="-175" xlink:href="#icon"/>
    
    <use x="-8" y="-175" xlink:href="#icon"/>
    
    <use x="0" y="-175" xlink:href="#icon"/>
    
    <use x="8" y="-175" xlink:href="#icon"/>
    
    <use x="16" y="-175" xlink:href="#icon"/>
    
    <use x="24" y="-175" xlink:href="#icon"/>
    
    <use x="32" y="-175" xlink:href="#icon"/>
    
    <use x="40" y="-175" xlink:href="#icon"/>
    
    <use x="48" y="-175" xlink:href="#icon"/>
    
    <use x="56" y="-175" xlink:href="#icon"/>
    
    <use x="64" y="-175" xlink:href="#icon"/>
    
    <use x="-72" y="-185" xlink:href="#icon"/>
    
    <use x="-64" y="-185" xlink:href="#icon"/>
    
    <use x="-56" y="-185" xlink:href="#icon"/>
    
    <use x="-48" y="-185" xlink:href="#icon"/>
    
    <use x="-40" y="-185" xlink:href="#icon"/>
    
    <use x="-32" y="-185" xlink:href="#icon"/>
    
    <use x="-24" y="-185" xlink:href="#icon"/>
    
    <use x="-16" y="-185" xlink:href="#icon"/>
    
    <use x="-8" y="-185" xlink:href="#icon"/>
    
    <use x="0" y="-185" xlink:href="#icon"/>
    
    <use x="8" y="-185" xlink:href="#icon"/>
    
    <use x="16" y="-185" xlink:href="#icon"/>
    
    <use x="24" y="-185" xlink:href="#icon"/>
    
    <use x="32" y="-185" xlink:href="#icon"/>
    
    <use x="40" y="-185" xlink:href="#icon"/>
    
    <use x="48" y="-185" xlink:href="#icon"/>
    
    <use x="56" y="-185" xlink:href="#icon"/>
    
    <use x="64" y="-185" xlink:href="#icon"/>
    
    <use x="72" y="-185" xlink:href="#icon"/>
    
    <use x="-72" y="-195" xlink:href="#icon"/>
    
    <use x="-64" y="-195" xlink:href="#icon"/>
    
    <use x="-56" y="-195" xlink:href="#icon"/>
    
    <use x="-48" y="-195" xlink:href="#icon"/>
    
    <use x="-40" y="-195" xlink:href="#icon"/>
    
    <use x="-32" y="-195" xlink:href="#icon"/>
    
    <use x="-24" y="-195" xlink:href="#icon"/>
    
    <use x="-16" y="-195" xlink:href="#icon"/>
    
    <use x="-8" y="-195" xlink:href="#icon"/>
    
    <use x="0" y="-195" xlink:href="#icon"/>
    
    <use x="8" y="-195" xlink:href="#icon"/>
    
    <use x="16" y="-195" xlink:href="#icon"/>
    
    <use x="24" y="-195" xlink:href="#icon"/>
    
    <use x="32" y="-195" xlink:href="#icon"/>
    
    <use x="40" y="-195" xlink:href="#icon"/>
    
    <use x="48" y="-195" xlink:href="#icon"/>
    
    <use x="56" y="-195" xlink:href="#icon"/>
    
    <use x="64" y="-195" xlink:href="#icon"/>
    
    <use x="72" y="-195" xlink:href="#icon"/>
    
    <use x="-80" y="-205" xlink:href="#icon"/>
    
    <use x="-72" y="-205" xlink:href="#icon"/>
    
    <use x="-64" y="-205" xlink:href="#icon"/>
    
    <use x="-56" y="-205" xlink:href="#icon"/>
    
    <use x="-48" y="-205" xlink:href="#icon"/>
    
    <use x="-40" y="-205" xlink:href="#icon"/>
    
    <use x="-32" y="-205" xlink:href="#icon"/>
    
    <use x="-24" y="-205" xlink:href="#icon"/>
    
    <use x="-16" y="-205" xlink:href="#icon"/>
    
    <use x="-8" y="-205" xlink:href="#icon"/>
    
    <use x="0" y="-205" xlink:href="#icon"/>
    
    <use x="8" y="-205" xlink:href="#icon"/>
    
    <use x="16" y="-205" xlink:href="#icon"/>
    
    <use x="24" y="-205" xlink:href="#icon"/>
    
    <use x="32" y="-205" xlink:href="#icon"/>
    
    <use x="40" y="-205" xlink:href="#icon"/>
    
    <use x="48" y="-205" xlink:href="#icon"/>
    
    <use x="56" y="-205" xlink:href="#icon"/>
    
    <use x="64" y="-205" xlink:href="#icon"/>
    
    <use x="72" y="-205" xlink:href="#icon"/>
    
    <use x="80" y="-205" xlink:href="#icon"/>
    
    <use x="-80" y="-215" xlink:href="#icon"/>
    
    <use x="-72" y="-215" xlink:href="#icon"/>
    
    <use x="-64" y="-215" xlink:href="#icon"/>
    
    <use x="-56" y="-215" xlink:href="#icon"/>
    
    <use x="-48" y="-215" xlink:href="#icon"/>
    
    <use x="-40" y="-215" xlink:href="#icon"/>
    
    <use x="-32" y="-215" xlink:href="#icon"/>
    
    <use x="-24" y="-215" xlink:href="#icon"/>
    
    <use x="-16" y="-215" xlink:href="#icon"/>
    
    <use x="-8" y="-215" xlink:href="#icon"/>
    
    <use x="0" y="-215" xlink:href="#icon"/>
    
    <use x="8" y="-215" xlink:href="#icon"/>
    
    <use x="16" y="-215" xlink:href="#icon"/>
    
  </g>
  
</svg>