<?xml version="1.0" encoding="UTF-8" standalone="no"?>
<svg
   xmlns:dc="http://purl.org/dc/elements/1.1/"
   xmlns:cc="http://creativecommons.org/ns#"
   xmlns:rdf="http://www.w3.org/1999/02/22-rdf-syntax-ns#"
   xmlns:svg="http://www.w3.org/2000/svg"
   xmlns="http://www.w3.org/2000/svg"
   xmlns:sodipodi="http://sodipodi.sourceforge.net/DTD/sodipodi-0.dtd"
   xmlns:inkscape="http://www.inkscape.org/namespaces/inkscape"
   version="1.1"
   id="svg2"
   height="35.817795"
   width="40"
   inkscape:version="0.91 r13725"
   sodipodi:docname="icon-health.svg">
  <sodipodi:namedview
     pagecolor="#ffffff"
     bordercolor="#666666"
     borderopacity="1"
     objecttolerance="10"
     gridtolerance="10"
     guidetolerance="10"
     inkscape:pageopacity="0"
     inkscape:pageshadow="2"
     inkscape:window-width="1041"
     inkscape:window-height="602"
     id="namedview11"
     showgrid="false"
     fit-margin-top="0"
     fit-margin-left="0"
     fit-margin-right="0"
     fit-margin-bottom="0"
     inkscape:zoom="5.0212766"
     inkscape:cx="23.5"
     inkscape:cy="23.499996"
     inkscape:window-x="0"
     inkscape:window-y="0"
     inkscape:window-maximized="0"
     inkscape:current-layer="svg2" />
  <metadata
     id="metadata18">
    <rdf:RDF>
      <cc:Work
         rdf:about="">
        <dc:format>image/svg+xml</dc:format>
        <dc:type
           rdf:resource="http://purl.org/dc/dcmitype/StillImage" />
        <dc:title></dc:title>
      </cc:Work>
    </rdf:RDF>
  </metadata>
  <defs
     id="defs16" />
  <g
     transform="translate(-269.23714,-226.72471)"
     id="g4">
    <title
       id="title6">background</title>
    <rect
       style="fill:none"
       x="-1"
       y="-1"
       width="582"
       height="402"
       id="canvas_background" />
  </g>
  <g
     transform="matrix(0.09172187,0,0,0.08213188,-2.9304219,-2.6241137)"
     id="g9">
    <title
       id="title11">Layer 1</title>
    <path
       style="clip-rule:evenodd;fill:#ffffff;fill-rule:evenodd"
       d="m 31.948999,431.711 c 0,20.078 16.264002,36.33999 36.340002,36.33999 l 363.420989,0 c 20.078,0 36.34,-16.26199 36.34,-36.33999 l 0,-272.56599 c 0,-20.07799 -16.262,-36.342 -36.34,-36.342 l -72.685,0 0,-54.513008 c 0,-20.077 -16.263,-36.34 -36.34201,-36.34 l -145.36598,0 c -20.07899,0 -36.34199,16.264 -36.34199,36.34 l 0,54.512998 -72.685009,0 c -20.077,0 -36.34,16.264 -36.34,36.34201 l 0,272.56599 -0.001,0 z M 313.599,122.802 l -127.198,0 0,-25.435003 c 0,-11.083 8.905,-19.990997 19.991,-19.990997 l 87.21499,0 c 11.08499,0 19.991,8.909004 19.991,19.990997 l 0,25.435003 0.001,0 z M 160.963,250 l 43.61,0 0,-43.608 c 0,-11.08299 8.90201,-19.991 19.989,-19.991 l 50.87699,0 c 11.08002,0 19.987,8.909 19.987,19.991 l 0,43.608 43.607,0 c 11.08502,0 19.992,8.90701 19.992,19.991 l 0,50.875 c 0,11.08099 -8.90698,19.98599 -19.992,19.98599 l -43.607,0 0,43.61301 c 0,11.08001 -8.90698,19.98599 -19.987,19.98599 l -50.87699,0 c -11.086,0 -19.989,-8.90598 -19.989,-19.98599 l 0,-43.61301 -43.61,0 c -11.086,0 -19.989,-8.905 -19.989,-19.98599 l 0,-50.875 C 140.97501,258.90701 149.877,250 160.963,250 Z"
       id="svg_1"
       inkscape:connector-curvature="0" />
  </g>
</svg>
