<?xml version="1.0" encoding="UTF-8" standalone="no"?>
<!-- Created with Inkscape (http://www.inkscape.org/) -->

<svg
   xmlns:dc="http://purl.org/dc/elements/1.1/"
   xmlns:cc="http://creativecommons.org/ns#"
   xmlns:rdf="http://www.w3.org/1999/02/22-rdf-syntax-ns#"
   xmlns:svg="http://www.w3.org/2000/svg"
   xmlns="http://www.w3.org/2000/svg"
   version="1.1"
   width="26.136116"
   height="26.116365"
   id="svg4790">
  <defs
     id="defs4792">
    <clipPath
       id="clipPath1574">
      <path
         d="m 893.038,103.459 21.065,0 0,21.048 -21.065,0 0,-21.048 z"
         id="path1576" />
    </clipPath>
  </defs>
  <metadata
     id="metadata4795">
    <rdf:RDF>
      <cc:Work
         rdf:about="">
        <dc:format>image/svg+xml</dc:format>
        <dc:type
           rdf:resource="http://purl.org/dc/dcmitype/StillImage" />
        <dc:title></dc:title>
      </cc:Work>
    </rdf:RDF>
  </metadata>
  <g
     transform="translate(-361.93194,-519.304)"
     id="layer1">
    <g
       transform="matrix(1.25,0,0,-1.25,-754.36556,674.93775)"
       id="g1570">
      <g
         clip-path="url(#clipPath1574)"
         id="g1572">
        <g
           transform="translate(895.6515,116.6693)"
           id="g1578">
          <path
             d="M 0,0 C 0,2.88 2.343,5.224 5.224,5.224 8.105,5.224 10.448,2.88 10.448,0 10.448,-2.881 8.105,-5.224 5.224,-5.224 2.343,-5.224 0,-2.881 0,0 m 17.839,-10.719 -6.208,6.208 c 0.9,1.275 1.431,2.831 1.431,4.511 0,4.329 -3.509,7.838 -7.838,7.838 -4.328,0 -7.838,-3.509 -7.838,-7.838 0,-4.328 3.51,-7.837 7.838,-7.837 1.689,0 3.251,0.535 4.53,1.443 l 6.205,-6.205 c 0.569,-0.569 1.458,-0.612 1.975,-0.095 0.517,0.517 0.474,1.406 -0.095,1.975"
             id="path1580"
             style="fill:#ffffff;fill-opacity:1;fill-rule:nonzero;stroke:none" />
        </g>
      </g>
    </g>
  </g>
</svg>
