<?xml version="1.0" encoding="UTF-8" standalone="no"?>
<svg
   xmlns:dc="http://purl.org/dc/elements/1.1/"
   xmlns:cc="http://creativecommons.org/ns#"
   xmlns:rdf="http://www.w3.org/1999/02/22-rdf-syntax-ns#"
   xmlns:svg="http://www.w3.org/2000/svg"
   xmlns="http://www.w3.org/2000/svg"
   xmlns:xlink="http://www.w3.org/1999/xlink"
   version="1.1"
   width="35.671"
   height="32.851"
   id="svg5888">
  <defs
     id="defs5890">
    <clipPath
       id="SVGID_138_">
      <use
         x="0"
         y="0"
         width="744.09448"
         height="1052.3622"
         xlink:href="#SVGID_137_"
         id="use5693" />
    </clipPath>
  </defs>
  <metadata
     id="metadata5893">
    <rdf:RDF>
      <cc:Work
         rdf:about="">
        <dc:format>image/svg+xml</dc:format>
        <dc:type
           rdf:resource="http://purl.org/dc/dcmitype/StillImage" />
        <dc:title></dc:title>
      </cc:Work>
    </rdf:RDF>
  </metadata>
  <g
     transform="translate(-256.45021,-310.22258)"
     id="layer1">
    <g
       transform="translate(-581.27679,105.29921)"
       fill="#FFF"
       id="g5687">
      <defs
         id="defs5689">
        <rect
           width="35.672"
           height="32.915"
           x="837.73"
           y="204.86"
           id="SVGID_137_" />
      </defs>
      <clipPath
         id="clipPath5882">
        <use
           x="0"
           y="0"
           width="744.09448"
           height="1052.3622"
           xlink:href="#SVGID_137_"
           id="use5884" />
      </clipPath>
      <path
         style="fill:#cc33ff;fill-opacity:1;opacity:1"
         fill="#7f195e"
         class="st79"
         clip-path="url(#SVGID_138_)"
         d="m840.18,231.95h4.703c0.041,0.002,0.083,0.006,0.124,0.006,0.042,0,0.083-0.004,0.125-0.006h6.744c0.042,0.002,0.082,0.006,0.124,0.006s0.083-0.004,0.125-0.006h6.812c0.042,0.002,0.083,0.006,0.124,0.006,0.043,0,0.084-0.004,0.125-0.006h6.806c0.041,0.002,0.082,0.006,0.124,0.006s0.083-0.004,0.124-0.006h4.604c0.491,0,0.893-0.401,0.893-0.892v-1.169c0-0.491-0.401-0.892-0.893-0.892h-2.01c0-0.761-0.319-1.446-0.827-1.935v-9.348l2.906-0.003c0.492-0.001,0.894-0.403,0.894-0.894v-1.434c0-0.491-0.344-1.101-0.765-1.356l-14.734-8.916c-0.421-0.253-1.107-0.253-1.527,0.001l-14.698,8.915c-0.42,0.254-0.759,0.864-0.753,1.355l0.017,1.473c0.007,0.491,0.412,0.892,0.903,0.891l2.928-0.003v9.319c-0.508,0.489-0.824,1.174-0.826,1.935h-2.14c-0.491,0-0.893,0.401-0.893,0.892v1.169c-0.001,0.491,0.401,0.892,0.892,0.892m17.022-14.223v9.335c-0.51,0.489-0.826,1.174-0.827,1.935h-1.688c0-0.76-0.317-1.446-0.826-1.935v-9.331l3.341-0.004zm7.054,9.334c-0.509,0.489-0.827,1.174-0.827,1.935h-1.68c-0.001-0.761-0.319-1.446-0.826-1.935v-9.339l3.333-0.004v9.343zm-8.715-18.26c1.511,0,2.737,1.226,2.737,2.738s-1.227,2.739-2.737,2.739c-1.515,0-2.74-1.227-2.74-2.739s1.225-2.738,2.74-2.738m-5.401,8.933v9.327c-0.508,0.489-0.826,1.174-0.827,1.935h-1.619c0-0.761-0.317-1.446-0.826-1.935v-9.323l3.272-0.004z"
         id="path5695" />
      <path
         style="fill:#cc33ff;fill-opacity:1"
         fill="#7f195e"
         class="st79"
         clip-path="url(#SVGID_138_)"
         d="m872.5,233.38h-33.884c-0.491,0-0.894,0.402-0.894,0.893v2.607c0,0.49,0.402,0.892,0.894,0.892h33.884c0.491,0,0.893-0.402,0.893-0.892v-2.607c-0.001-0.491-0.402-0.893-0.893-0.893"
         id="path5697" />
    </g>
  </g>
</svg>
