<?xml version="1.0" encoding="utf-8"?>
<!-- Generator: Adobe Illustrator 15.0.0, SVG Export Plug-In . SVG Version: 6.00 Build 0)  -->
<!DOCTYPE svg PUBLIC "-//W3C//DTD SVG 1.1//EN" "http://www.w3.org/Graphics/SVG/1.1/DTD/svg11.dtd">
<svg version="1.1"
	 id="Ebene_1" xmlns:inkscape="http://www.inkscape.org/namespaces/inkscape" xmlns:rdf="http://www.w3.org/1999/02/22-rdf-syntax-ns#" xmlns:cc="http://creativecommons.org/ns#" xmlns:svg="http://www.w3.org/2000/svg" sodipodi:docname="team.svg" xmlns:dc="http://purl.org/dc/elements/1.1/" inkscape:version="0.48.2 r9819" xmlns:sodipodi="http://sodipodi.sourceforge.net/DTD/sodipodi-0.dtd"
	 xmlns="http://www.w3.org/2000/svg" xmlns:xlink="http://www.w3.org/1999/xlink" x="0px" y="0px" width="100px" height="100px"
	 viewBox="0 0 100 100" enable-background="new 0 0 100 100" xml:space="preserve">
<sodipodi:namedview  showgrid="false" id="namedview3072" bordercolor="#666666" inkscape:window-width="1920" inkscape:pageshadow="2" inkscape:cx="3.3898305" inkscape:window-maximized="1" pagecolor="#ffffff" gridtolerance="10" guidetolerance="10" inkscape:zoom="2.36" inkscape:current-layer="Ebene_1" inkscape:cy="50" borderopacity="1" inkscape:window-y="-4" inkscape:window-height="1017" objecttolerance="10" inkscape:pageopacity="0" inkscape:window-x="-4">
	</sodipodi:namedview>
<g>
	<path fill="#E23026" d="M43.097,46.532h-25.89c-3.382,0-6.119,2.738-6.119,6.119v34.865c0,3.381,2.737,6.119,6.119,6.119h25.89
		c3.379,0,6.118-2.738,6.118-6.119V52.651C49.215,49.271,46.476,46.532,43.097,46.532z M27.602,85.479
		c0,1.125-0.912,2.037-2.039,2.037h-7.135c-1.127,0-2.037-0.912-2.037-2.037v-6.118c0-1.126,0.91-2.038,2.037-2.038h7.135
		c1.127,0,2.039,0.912,2.039,2.038V85.479z M27.602,71.207c0,1.125-0.912,2.038-2.039,2.038h-7.135
		c-1.127,0-2.037-0.913-2.037-2.038v-6.118c0-1.127,0.91-2.04,2.037-2.04h7.135c1.127,0,2.039,0.913,2.039,2.04V71.207z
		 M27.602,58.972c0,1.126-0.912,2.037-2.039,2.037h-7.135c-1.127,0-2.037-0.911-2.037-2.037v-6.117c0-1.127,0.91-2.039,2.037-2.039
		h7.135c1.127,0,2.039,0.912,2.039,2.039V58.972z M43.914,85.479c0,1.125-0.912,2.037-2.039,2.037h-7.139
		c-1.128,0-2.043-0.912-2.043-2.037v-6.118c0-1.126,0.915-2.038,2.043-2.038h7.139c1.127,0,2.039,0.912,2.039,2.038V85.479z
		 M43.914,71.207c0,1.125-0.912,2.038-2.039,2.038h-7.139c-1.128,0-2.043-0.913-2.043-2.038v-6.118c0-1.127,0.915-2.04,2.043-2.04
		h7.139c1.127,0,2.039,0.913,2.039,2.04V71.207z M43.914,58.972c0,1.126-0.912,2.037-2.039,2.037h-7.139
		c-1.128,0-2.043-0.911-2.043-2.037v-6.117c0-1.127,0.915-2.039,2.043-2.039h7.139c1.127,0,2.039,0.912,2.039,2.039V58.972z"/>
	<path fill="#E23026" d="M88.913,47.351V12.48c0-3.377-2.74-6.117-6.119-6.117H56.9c-3.377,0-6.113,2.74-6.113,6.117v34.87
		c0,1.77,0,3.527,0,5.301v34.865c0,3.381,2.736,6.119,6.113,6.119h25.894c3.379,0,6.119-2.738,6.119-6.119V52.651
		C88.913,50.878,88.913,49.12,88.913,47.351z M72.393,12.685c0-1.127,0.915-2.037,2.042-2.037h7.139c1.127,0,2.038,0.91,2.038,2.037
		v6.116c0,1.128-0.911,2.041-2.038,2.041h-7.139c-1.127,0-2.042-0.913-2.042-2.041V12.685z M72.393,24.92
		c0-1.128,0.915-2.041,2.042-2.041h7.139c1.127,0,2.038,0.913,2.038,2.041v6.115c0,1.127-0.911,2.04-2.038,2.04h-7.139
		c-1.127,0-2.042-0.913-2.042-2.04V24.92z M72.393,39.193c0-1.128,0.915-2.04,2.042-2.04h7.139c1.127,0,2.038,0.912,2.038,2.04
		v6.116c0,1.127-0.911,2.041-2.038,2.041h-7.139c-1.127,0-2.042-0.914-2.042-2.041V39.193z M56.084,12.685
		c0-1.127,0.916-2.037,2.038-2.037h7.14c1.126,0,2.034,0.91,2.034,2.037v6.116c0,1.128-0.908,2.041-2.034,2.041h-7.14
		c-1.122,0-2.038-0.913-2.038-2.041V12.685z M56.084,24.92c0-1.128,0.916-2.041,2.038-2.041h7.14c1.126,0,2.034,0.913,2.034,2.041
		v6.115c0,1.127-0.908,2.04-2.034,2.04h-7.14c-1.122,0-2.038-0.913-2.038-2.04V24.92z M56.084,39.193c0-1.128,0.916-2.04,2.038-2.04
		h7.14c1.126,0,2.034,0.912,2.034,2.04v6.116c0,1.127-0.908,2.041-2.034,2.041h-7.14c-1.122,0-2.038-0.914-2.038-2.041V39.193z
		 M67.296,85.479c0,1.125-0.908,2.037-2.034,2.037h-7.14c-1.122,0-2.038-0.912-2.038-2.037v-6.118c0-1.126,0.916-2.038,2.038-2.038
		h7.14c1.126,0,2.034,0.912,2.034,2.038V85.479z M67.296,71.207c0,1.125-0.908,2.038-2.034,2.038h-7.14
		c-1.122,0-2.038-0.913-2.038-2.038v-6.118c0-1.127,0.916-2.04,2.038-2.04h7.14c1.126,0,2.034,0.913,2.034,2.04V71.207z
		 M67.296,58.972c0,1.126-0.908,2.037-2.034,2.037h-7.14c-1.122,0-2.038-0.911-2.038-2.037v-6.117c0-1.127,0.916-2.039,2.038-2.039
		h7.14c1.126,0,2.034,0.912,2.034,2.039V58.972z M83.611,85.479c0,1.125-0.911,2.037-2.038,2.037h-7.139
		c-1.127,0-2.042-0.912-2.042-2.037v-6.118c0-1.126,0.915-2.038,2.042-2.038h7.139c1.127,0,2.038,0.912,2.038,2.038V85.479z
		 M83.611,71.207c0,1.125-0.911,2.038-2.038,2.038h-7.139c-1.127,0-2.042-0.913-2.042-2.038v-6.118c0-1.127,0.915-2.04,2.042-2.04
		h7.139c1.127,0,2.038,0.913,2.038,2.04V71.207z M83.611,58.972c0,1.126-0.911,2.037-2.038,2.037h-7.139
		c-1.127,0-2.042-0.911-2.042-2.037v-6.117c0-1.127,0.915-2.039,2.042-2.039h7.139c1.127,0,2.038,0.912,2.038,2.039V58.972z"/>
</g>
</svg>
