<?xml version="1.0" encoding="utf-8"?>
<!-- Generator: Adobe Illustrator 15.0.0, SVG Export Plug-In . SVG Version: 6.00 Build 0)  -->
<!DOCTYPE svg PUBLIC "-//W3C//DTD SVG 1.1//EN" "http://www.w3.org/Graphics/SVG/1.1/DTD/svg11.dtd">
<svg version="1.1"
	 id="Ebene_1" xmlns:inkscape="http://www.inkscape.org/namespaces/inkscape" xmlns:rdf="http://www.w3.org/1999/02/22-rdf-syntax-ns#" xmlns:cc="http://creativecommons.org/ns#" xmlns:svg="http://www.w3.org/2000/svg" sodipodi:docname="team.svg" xmlns:dc="http://purl.org/dc/elements/1.1/" inkscape:version="0.48.2 r9819" xmlns:sodipodi="http://sodipodi.sourceforge.net/DTD/sodipodi-0.dtd"
	 xmlns="http://www.w3.org/2000/svg" xmlns:xlink="http://www.w3.org/1999/xlink" x="0px" y="0px" width="100px" height="100px"
	 viewBox="15 15 70 70" enable-background="new 0 0 100 100" xml:space="preserve">
<sodipodi:namedview  showgrid="false" id="namedview3072" bordercolor="#666666" inkscape:window-width="1920" inkscape:pageshadow="2" inkscape:cx="3.3898305" inkscape:window-maximized="1" pagecolor="#ffffff" gridtolerance="10" guidetolerance="10" inkscape:zoom="2.36" inkscape:current-layer="Ebene_1" inkscape:cy="50" borderopacity="1" inkscape:window-y="-4" inkscape:window-height="1017" objecttolerance="10" inkscape:pageopacity="0" inkscape:window-x="-4">
	</sodipodi:namedview>
<path id="path2999" inkscape:connector-curvature="0" fill="#F06E25" d="M50,22.223c-18.445,0-33.398,9.943-33.398,22.207
	c0,7.016,4.908,13.266,12.552,17.334c-1.088,3.607-3.259,7.602-7.453,11.135c0,0,9.792-0.648,16.708-7.664
	c0.397,0.098,0.81,0.17,1.212,0.262c-0.378-1.127-0.601-2.301-0.601-3.52c0-8.275,9.209-14.754,20.971-14.754
	c8.448,0,15.557,3.355,18.903,8.305c2.849-3.268,4.505-7.051,4.505-11.1C83.398,32.166,68.443,22.223,50,22.223z M78.521,61.979
	c0-6.805-8.294-12.322-18.532-12.322c-10.232,0-18.531,5.518-18.531,12.322c0,6.807,8.299,12.322,18.531,12.322
	c2.266,0,4.424-0.281,6.432-0.777c3.836,3.895,9.27,4.254,9.27,4.254c-2.327-1.961-3.529-4.178-4.135-6.18
	C75.794,69.342,78.521,65.873,78.521,61.979z"/>
</svg>
