<?xml version="1.0" encoding="utf-8"?>
<!-- Generator: Adobe Illustrator 15.0.0, SVG Export Plug-In . SVG Version: 6.00 Build 0)  -->
<!DOCTYPE svg PUBLIC "-//W3C//DTD SVG 1.1//EN" "http://www.w3.org/Graphics/SVG/1.1/DTD/svg11.dtd">
<svg version="1.1"
	 id="Ebene_1" xmlns:inkscape="http://www.inkscape.org/namespaces/inkscape" xmlns:rdf="http://www.w3.org/1999/02/22-rdf-syntax-ns#" xmlns:cc="http://creativecommons.org/ns#" xmlns:svg="http://www.w3.org/2000/svg" sodipodi:docname="team.svg" xmlns:dc="http://purl.org/dc/elements/1.1/" inkscape:version="0.48.2 r9819" xmlns:sodipodi="http://sodipodi.sourceforge.net/DTD/sodipodi-0.dtd"
	 xmlns="http://www.w3.org/2000/svg" xmlns:xlink="http://www.w3.org/1999/xlink" x="0px" y="0px" width="100px" height="100px"
	 viewBox="15 15 70 70" enable-background="new 0 0 100 100" xml:space="preserve">
<sodipodi:namedview  showgrid="false" id="namedview3072" bordercolor="#666666" inkscape:window-width="1920" inkscape:pageshadow="2" inkscape:cx="3.3898305" inkscape:window-maximized="1" pagecolor="#ffffff" gridtolerance="10" guidetolerance="10" inkscape:zoom="2.36" inkscape:current-layer="Ebene_1" inkscape:cy="50" borderopacity="1" inkscape:window-y="-4" inkscape:window-height="1017" objecttolerance="10" inkscape:pageopacity="0" inkscape:window-x="-4">
	</sodipodi:namedview>
<g>
	<polygon fill="#61AC46" points="13.106,24.36 13.022,24.336 12.989,24.418 13.083,24.418 	"/>
	<polygon fill="#61AC46" points="13.055,25.009 13.196,25.044 13.235,24.892 13.079,24.859 	"/>
	<polygon fill="#61AC46" points="14.998,27.075 14.909,27.046 14.909,27.215 14.973,27.193 	"/>
	<polygon fill="#61AC46" points="14.966,30.154 15.085,30.172 15.122,29.966 15.085,29.907 14.971,29.966 	"/>
	<path fill="#61AC46" d="M86.682,26.118c-0.178-0.053-2.004-0.626-2.494-0.77c-0.492-0.144-3.207-1.01-3.734-1.177
		c-0.529-0.166-2.967-0.994-3.342-1.135c0.059-0.353-0.115-0.545-0.146-0.594c-0.031-0.049-0.156-0.285-0.939-0.836
		c-0.779-0.551-2.164-1.143-2.346-1.206c-0.178-0.063-1.043-0.321-1.068-0.322c-0.025,0-0.072,0.027-0.09,0.038
		c-0.014,0.011-0.018,0.018-0.084-0.002c0.006-0.096-0.037-0.104-0.037-0.104s-4.557-0.434-4.605-0.427
		c-0.047,0.007-0.85,0.27-1.342,0.581c-0.396,0.231-0.58,0.661-0.58,0.661s-0.184,0.882-0.258,1.209
		c-0.074,0.327,0.078,0.504,0.078,0.504l-1.902,10.878l-0.182,0.147l-0.244,1.583c0,0-0.016,0.002-0.037,0.046
		c-0.35-0.034-0.76-0.054-1.201-0.054c-1.254,0-2.271,0.157-2.271,0.343c0,0.208,0.002,0.406,0.01,0.598
		c-1.137-0.37-3.805,0.431-3.805,0.431c-0.975-0.227-5.307,0.227-5.307,0.227c-1.73-1.026-4.765-0.796-4.765-0.796l-1.408-1.483
		c0-1.026-0.753-1.944-0.753-1.944c0-0.798-1.769-3.543-1.769-3.543c0.844,0,1.116-1.587,1.116-1.587l0.326-1.026
		c0.326-0.572,0.759-0.227,0.759-0.227c0.539,0.113,0.756-0.459,0.756-0.459l-0.113-1.598c0.438-0.113,0.438-2.282,0.438-2.282
		l0.213-1.711l0.869,0.115c0.105-0.684-1.3-2.396-1.3-2.396c-1.841-3.422-6.282-2.398-6.282-2.398
		c-2.49,0.115-4.872,6.279-4.872,6.279c-0.214,0.34,0.319,0.909,0.319,0.909l-0.753,0.46c-0.433-1.259-2.813,1.253-2.813,1.253
		c-2.602,1.939-6.498,6.845-6.498,6.845c-0.615,1.114-2.17,3.914-3.539,6.374c-0.826,0.472-4.389,2.577-5.654,4.47
		c-0.08,0.09-0.15,0.197-0.2,0.341c-0.253,0.488-0.332,0.954-0.138,1.365l0.02,0.043c0.264,4.997,5.266,17.857,5.266,17.857
		c0.324,0.867,1.106,1.494,2.166,1.947c-1.029,2.365-2.748,7.346-3.119,14.836C18.483,89.219,20,78.609,20,78.609
		s1.499-10.723,3.333-14.656c2.42,0.66,5.694,0.707,8.547,0.561l0.474,1.867c-0.854,2.688-1.924,7.195-2.19,13.48
		c-0.46,10.842,0.825,0.229,0.825,0.229s0.806-6.77,1.92-11.523l1.708,6.732c0,0,0.323-0.682,0.112-3.42l-1.152-5.746
		c0.271-0.818,0.553-1.449,0.839-1.803c0.067-0.006,0.134-0.014,0.201-0.02c-0.019,0.021-0.032,0.037-0.032,0.037l0.188-0.053
		c1.961-0.189,3.311-0.406,3.311-0.406c0.564-0.061,1.008-0.332,1.295-0.688c0.04,0.004,0.079,0.008,0.12,0.014
		c0.071,0.268,0.104,0.447,0.104,0.447c0,0.566,1.246,3.131,1.975,4.582l1.838,8.539c0,0,0.281-0.684,0.098-3.422l-0.482-2.818
		c0.494,0.641,1.07,1.365,1.552,1.961V81l0.106,0.117h2.166L46.967,81v-5.49c0.363,0.398,0.654,0.705,0.654,0.705
		c-0.438,1.141,1.292,1.709,1.292,1.709c0.429,0,2.167,1.938,2.167,1.938c4.77,2.057,3.791-2.396,3.791-2.396
		c8.658-2.738-2.816-3.422-2.816-3.422c-0.975-0.455-0.326-2.621-0.326-2.621c0-0.914,0.762-12.096,0.762-12.096
		c0-1.484,0.541-7.188,0.541-7.188c0-2.501-4.62-2.891-6.063-2.951v-7.311l-0.114-0.117h32.921l-0.102,0.117v39.122l0.102,0.119
		h2.172l0.107-0.119V41.877l-0.107-0.117h2.164l0.109-0.115v-1.486l-0.109-0.111h-7.27c0.012-0.06,0.012-0.14,0-0.217
		c-0.029-0.108-0.137-0.162-0.137-0.162s-1.465-0.619-1.334-0.634c0.129-0.016,0.32-0.226,0.32-0.226l3.471,0.122
		c0,0,0.154,0.088,0.311,0.188c0.139,0.091,0.275,0.197,0.336,0.21c0.125,0.028,0.615,0.042,0.682,0.051
		c0.066,0.009,0.064-0.05,0.064-0.05l0.043-0.339c0,0,1.406,0.078,1.564,0.074c0.16-0.003,0.158-0.122,0.158-0.122
		s0.133-0.78,0.273-1.599c0.152-0.885,0.314-1.812,0.314-1.812s-0.004-0.003,0.043-0.22c0.559-0.029,1.777,0.061,1.979,0.072
		c0.197,0.011,0.201-0.17,0.201-0.17s0.189-1.041,0.289-1.638c0.104-0.596,0.35-1.898,0.441-2.458
		c0.092-0.56,0.236-1.406,0.488-2.512c0.254-1.107,0.551-1.895,0.65-2.236C87.062,26.171,86.861,26.17,86.682,26.118z M66.756,38.17
		c0.236,0.142,0.875,0.469,0.895,0.48c0.02,0.013-0.102,0.04-0.146,0.056c-0.045,0.019-0.875,0.418-0.875,0.418s-0.346,0-0.758-0.08
		c-0.412-0.079-1.104-0.204-1.668-0.268c-0.057-0.006-0.1-0.009-0.15-0.014c0.08-0.435,0.145-0.935,0.195-1.417
		c0.254,0.185,0.398,0.208,0.469,0.238C64.799,37.62,66.414,38.082,66.756,38.17z M44.582,41.877v7.226
		c-0.822,0.014-1.756,0.052-2.549,0.09c-0.263-0.796-0.925-1.635-2.427-2.181c0.062-1.277-0.222-3.655-0.222-3.655
		c0.435-1.255,1.079-4.223,1.079-4.223h1.735c0.146,0.433,0.429,0.72,0.761,0.913h-0.542l-0.11,0.111v1.486l0.11,0.115h2.271
		L44.582,41.877z M60.01,40.047c0.23-0.199,0.271-0.456,0.271-0.456c0.072-0.019,0.129-0.047,0.188-0.072
		c0.113,0.28,0.197,0.411,0.197,0.411h2.924c0.176,0,0.32-0.426,0.436-1.013c0.02,0,0.045,0.001,0.062,0.001
		c0.311,0.003,1.246,0.16,1.758,0.256c0.264,0.05,0.539,0.052,0.539,0.052l-1.135,0.556c0,0-0.055,0.176-0.033,0.265H60.01z
		 M75.162,38.911c0,0-0.08-0.097-0.012-0.1c0.072-0.001,0.326,0.007,0.326,0.007S75.32,38.932,75.162,38.911z"/>
</g>
</svg>
