<?xml version="1.0" encoding="utf-8"?>
<!-- Generator: Adobe Illustrator 15.0.0, SVG Export Plug-In . SVG Version: 6.00 Build 0)  -->
<!DOCTYPE svg PUBLIC "-//W3C//DTD SVG 1.1//EN" "http://www.w3.org/Graphics/SVG/1.1/DTD/svg11.dtd">
<svg version="1.1"
	 id="Ebene_1" xmlns:inkscape="http://www.inkscape.org/namespaces/inkscape" xmlns:rdf="http://www.w3.org/1999/02/22-rdf-syntax-ns#" xmlns:cc="http://creativecommons.org/ns#" xmlns:svg="http://www.w3.org/2000/svg" sodipodi:docname="team.svg" xmlns:dc="http://purl.org/dc/elements/1.1/" inkscape:version="0.48.2 r9819" xmlns:sodipodi="http://sodipodi.sourceforge.net/DTD/sodipodi-0.dtd"
	 xmlns="http://www.w3.org/2000/svg" xmlns:xlink="http://www.w3.org/1999/xlink" x="0px" y="0px" width="100px" height="100px"
	 viewBox="15 15 70 70" enable-background="new 0 0 100 100" xml:space="preserve">
<sodipodi:namedview  showgrid="false" id="namedview3072" bordercolor="#666666" inkscape:window-width="1920" inkscape:pageshadow="2" inkscape:cx="3.3898305" inkscape:window-maximized="1" pagecolor="#ffffff" gridtolerance="10" guidetolerance="10" inkscape:zoom="2.36" inkscape:current-layer="Ebene_1" inkscape:cy="50" borderopacity="1" inkscape:window-y="-4" inkscape:window-height="1017" objecttolerance="10" inkscape:pageopacity="0" inkscape:window-x="-4">
	</sodipodi:namedview>
<g>
	<path fill="#BA7AD1" d="M33.477,27.06c-0.154-0.109-0.271-0.184-0.367-0.258l0.011-0.008L33.1,26.778l-0.01,0.01
		c-0.214-0.164-0.32-0.318-0.529-0.795l-0.056-0.115l-0.021-0.036l-0.035-0.063l-0.021-0.037l-0.031-0.05l-0.024-0.03l-0.034-0.043
		l-0.021-0.025l-0.034-0.036l-0.021-0.022l-0.037-0.031l-0.015-0.014l-0.099-0.062L32.1,25.419l-0.029-0.012l-0.016-0.006
		l-0.025-0.01l-0.016-0.003l-0.02-0.005h-0.016l-0.021-0.002h-0.005H31.93h-0.005h-0.013l-0.021,0.003
		c-0.154-0.245-0.396-1.222-0.396-1.222c0.519-1.217,0.183-3.84,0.183-3.84c-0.884-3.443-3.412-3.443-3.628-3.289
		c-0.213,0.15-0.643,0.06-0.643,0.06c-1.737-0.123-2.649,2.043-2.832,2.62c-0.185,0.58,0.521,2.043,0.521,2.166l0.363,0.64
		c0,0.091,0.211,0.274,0.211,0.427c0,0.151,0.154,0.883,0.186,0.975s0.365,0.457,0.365,0.643c0,0.182,0.184,0.912,0.245,1.003
		l0.272,0.642c0,0.549,0.916,0.427,0.916,0.427c0.426-0.062,0.58,0.974,0.58,0.974s-0.154,0.458-0.277,0.609
		c-0.12,0.152-0.729,0.58-1.248,0.611c-0.518,0.029-1.77,0.608-1.95,0.791c-0.183,0.184-1.739,1.858-1.892,2.014
		c-0.15,0.152-1.523,2.619-2.285,3.109c-0.762,0.484-1.007-1.16-1.066-1.25l-0.021-0.039l-0.002-0.004l-0.03-0.062
		c-0.12-0.266-0.373-0.912-0.373-1.114c0-0.243,0.182-1.005-0.247-1.433c-0.427-0.426-0.452-0.489-0.452-0.489
		c0.604-0.456-1.77-1.371-1.77-1.371c1.734-0.122,0.184-0.733,0.184-0.733c-0.277-0.09-0.857,0.244-0.857,0.244
		c-0.332,0.094-0.03,0.764-0.03,0.764c-0.211,0.091,0.095,0.548-0.181,0.699l-0.043,0.028c-0.231,0.187-0.231,0.733-0.231,0.733
		c-0.213,0.213,0.124,0.609,0.124,0.609c-0.184,0.246,0.577,1.342,0.879,1.523c0.271,0.162,0.803,1.438,0.965,1.861l0.045,0.119
		c0.061,0.185,0.457,1.189,0.457,1.189s-0.125,1.373,0.459,2.65c0.576,1.281,2.314,1.129,3.074,1.098
		c0.764-0.029,1.586-0.792,1.891-1.279c0.306-0.486,0.486-0.701,0.396-0.121c-0.092,0.578,0.457,2.987,0.824,4.207
		c0.068,0.228,0.125,0.422,0.174,0.588l0.005,0.014l0.038,0.132l0.027,0.103l0.01,0.026l0.089,0.312
		c0.067,0.242,0.083,0.319,0.083,0.319s0.034,1.28-0.154,1.736c-0.182,0.459,0.092,7.163,0.188,7.59
		c0.089,0.427,0.761,2.285,0.789,3.323c0.03,1.035,0.183,4.234,0.46,5.273c0.271,1.034,1.186,6.703,1.311,7.771
		c0.119,1.067,1.764,6.34,2.1,7.041c0.338,0.702,0.397,1.86,0.397,1.95l-0.305,0.703c-0.122,0.09-0.64,1.064-0.761,1.248
		c-0.123,0.185-0.643,0.398-0.795,0.398c-0.153,0-1.035,0.305-1.401,0.549s-1.13,0.639,0.06,1.311
		c1.188,0.67,4.116-0.455,4.543-0.608c0.428-0.151,0.699-0.396,1.006-0.396c0.302,0,1.705-0.244,2.102-0.306
		c0.398-0.062,0-1.491,0-1.797c0-0.308-0.061-1.495-0.061-1.495s0.396,1.584,0.396,1.891s0.244,0.916,0.244,0.916l0.302,0.211
		c0,0.121-0.06,1.189-0.118,1.525c-0.062,0.336-0.033,1.311-0.033,1.311c0.274,0.762,2.684,0.427,2.684,0.427
		c2.042-0.608,0.671-3.688,0.671-3.688c0.151,0,0.241,0.092,0.396-0.763c0.152-0.853-0.272-5.06-0.396-7.226
		c-0.125-2.161-1.188-7.068-1.919-8.411c-0.734-1.341-0.337-7.985,0.184-10.026c0.518-2.044-0.703-9.754-0.703-9.754
		s0.104-0.447,0.095-1.098l-0.001-0.153c-0.033-0.729,0-0.854,0.273-0.823c0.273,0.03,1.127-0.029,1.127-0.029
		s1.098-0.09,2.045-0.121c0.94-0.029,1.309-1.344,1.371-1.678c0.061-0.336,0.213-1.371,0.213-1.371
		c0.457-1.158-1.92-7.406-2.258-8.717C38.718,29.469,33.994,27.426,33.477,27.06z"/>
	<path fill="#BA7AD1" d="M84.412,50.038c-0.042-0.065-0.059-0.049-0.096-0.078c-0.076-0.051-0.033-0.129-0.195-0.137
		c-0.133-0.011-0.963,0.002-1.104,0c-0.088-0.004-0.146-0.021-0.141-0.109c0.012-0.215,0.02-2.487,0.02-2.641
		c0-0.148,0.045-3.979,0.057-4.099c0.01-0.119,0.064-5.289,0.074-5.419c0.012-0.13,0.131-7.126,0.142-7.225
		c0.011-0.098,0.13-6.078,0.142-6.197c0.01-0.119,0.086-5.699,0.086-5.818s-0.012-0.811-0.012-0.898
		c0-0.084,0.022-0.215,0.141-0.172c-0.021,0-0.01,0.056,0.088,0.064c0.098,0.01,0.141,0,0.193,0c0.057,0,0.109,0.01,0.141-0.075
		c0.035-0.086,0.076-0.37,0.021-0.542c-0.023-0.078-0.004-0.16-0.193-0.205c-0.063-0.016-0.162,0.01-0.194,0.043
		c-0.146,0.027-0.292,0.021-0.433,0.01c-0.143-0.01-9.334-0.074-9.506-0.074s-7.51-0.076-7.605-0.076s-0.113-0.061-0.008-0.082
		c0.123,0,0.138-0.037,0.173-0.08c0.034-0.043,0.138-0.246,0.166-0.456c0.028-0.208-0.037-0.245-0.187-0.31
		c-0.152-0.065-0.636-0.051-0.673-0.051c-0.034,0-0.071,0.008-0.071-0.037c0-0.043-0.014-0.086-0.071-0.086
		s-0.136,0.008-0.136,0.064c0,0.059,0.021,0.073-0.06,0.064c-0.051-0.004-0.288,0.037-0.341,0.045
		c-0.051,0.006-0.295,0.033-0.234,0.302c0.057,0.267,0.092,0.323,0.121,0.382c0.028,0.059,0.016,0.087,0.094,0.13
		c0.078,0.044,0.137,0.108,0.008,0.108c-0.131,0-5.09-0.094-5.19-0.102c-0.103-0.007-5.603-0.107-5.724-0.107
		c-0.123,0-0.463-0.002-1.068-0.016c-0.584-0.009-5.473-0.063-5.688-0.108c-0.217-0.044-0.434-0.216-0.455,0.065
		s-0.021,0.346,0,0.498c0.021,0.151-0.032,0.262,0.195,0.172c0.236-0.043,0.182-0.053,0.356-0.053c0.194,0,0.14,0.076,0.14,0.292
		c0,0.304,0.033,2.173,0.033,2.302c0,0.133,0.021,6.414,0.021,6.524c0,0.106-0.021,5.524-0.01,5.653
		c0.01,0.131-0.033,6.576-0.033,6.675s-0.074,7.116-0.074,7.226c0,0.106-0.065,3.959-0.065,4.012c0,0.055,0.031,0.098-0.087,0.107
		c-0.119,0.012-0.52-0.021-0.615-0.011c-0.066-0.054-0.337-0.03-0.422-0.021c-0.086,0.01-0.076,0.027-0.238,0.235
		c-0.203,0.261-0.351,0.785-0.056,1.168c0.218,0.283,0.25,0.336,0.25,0.336s0.226,0.022,0.379,0.022
		c-0.012-0.031,0.854-0.022,0.995-0.01c0.141,0.01,6.965,0.071,7.116,0.071c0.153,0,7.841,0.058,7.959,0.058
		c0.12,0,2.032,0.031,2.12,0.031c0.086,0,0.119,0.086,0.107,0.184c-0.011,0.1-0.021,1.123-0.021,1.221
		c0.004,0.021-0.041,0.089,0.057,0.083c0.109-0.008,0.124,0.042,0.118,0.136c-0.012,0.152-0.012,1.774-0.012,2.12
		c0,0.347-0.032,8.502-0.032,8.652c0,0.151-0.021,7.247-0.021,7.397v3.852c0,0.105,0.01,0.215-0.194,0.215
		c-0.205,0-0.194,0.021-0.4,0.152c-0.204,0.129-2.454,1.537-2.616,1.634c-0.16,0.097-8.82,5.438-8.953,5.505
		c-0.045,0.021-0.119,0.105-0.143,0.074c-0.021-0.031-0.054-0.053-0.13,0c-0.075,0.055-0.321,0.207-0.39,0.25
		c-0.217,0.139-0.146,0.242,0.013,0.422c0.228,0.261,0.22,0.287,0.583,0.054c0.145-0.092,0.229-0.114,0.229-0.215
		c0.162-0.101,6.262-3.862,6.338-3.907c0.074-0.042,0.086-0.095,0.26,0c0.171,0.098,4.502,1.977,4.637,2.035
		c0.135,0.061,0.051,0.014,0.1,0.141c0.021,0.055,0.117,0.086,0.15,0.15c0.032,0.064,0.064,0.131,0.15,0.143
		c0.086,0.01,0.174-0.033,0.238-0.012s0.25,0.053,0.334,0.043c0.088-0.011,0.186-0.021,0.262,0c0.074,0.021,0.173,0.055,0.216,0
		c0.042-0.055,0.194-0.195,0.194-0.229c0-0.03,0.01-0.121,0.131-0.161c0.354-0.118,1.037-0.433,1.177-0.495
		c0.142-0.066,2.267-1.005,2.38-1.062c0.174-0.086,0.186-0.098,0.324,0.045c0.223,0.222,3.74,3.312,3.882,3.429
		c0.142,0.118,1.019,0.907,1.082,0.962c-0.031,0.055-0.043,0.119,0.065,0.206c0.146,0.116,0.193,0.151,0.26,0.192
		c0.064,0.045,0.193,0.133,0.367,0.056c0.172-0.075,0.354-0.335,0.27-0.486c-0.128-0.228-0.258-0.26-0.346-0.323
		c-0.092-0.068-0.141-0.152-0.215-0.119c-0.088-0.055-0.574-0.498-0.641-0.551c-0.062-0.054-7.839-6.881-7.928-6.978
		c-0.085-0.099-0.93-0.919-1.059-0.931c-0.086-0.008-0.162-0.021-0.14-0.324c0.021-0.322-0.013-3.383,0-3.493
		c0.009-0.106,0.021-6.651,0.021-6.781s0.021-5.767,0.033-5.948c0.008-0.166,0.032-5.58,0.035-5.699
		c0.004-0.096-0.018-0.142,0.069-0.146c0.088,0.008,0.086,0.01,0.086-0.093c0-0.101,0.004-0.604,0.004-0.712s0.011-0.399,0-0.467
		c-0.013-0.062-0.032-0.215,0.129-0.205c0.163,0.01,1.343,0.022,1.482,0.01c0.141-0.01,5.505,0.046,6,0.056
		c0.499,0.011,7.755,0.044,8.155,0.056c0.399,0.01,2.67,0.054,2.735,0.054c0.063,0,0.14,0,0.151-0.054
		c0.01-0.056,0.001,0.013,0.105-0.119C84.575,51.142,84.77,50.632,84.412,50.038z M64.777,76.036c0,0.074-0.024,4.568-0.024,4.773
		s-0.021,0.271-0.099,0.279c-0.074,0.014-0.227,0-0.303-0.021s-0.141-0.033-0.172-0.117c-0.033-0.088,0.043-0.076-0.174-0.152
		c-0.064-0.022-3.926-1.731-4.121-1.786c-0.195-0.054-0.184-0.095,0.034-0.236c0.058-0.036,3.946-2.444,4.033-2.499
		c0.087-0.054,0.577-0.365,0.672-0.389C64.836,75.866,64.777,75.925,64.777,76.036z M65.387,16.12c0-0.035,0-0.092,0-0.179
		c0.088-0.081,0.057,0.021,0.059-0.124c-0.002-0.05-0.008-0.105-0.008-0.217c0-0.05-0.021-0.085,0.06-0.079
		c0.034,0.004,0.302-0.015,0.387-0.006c0.089,0.007,0.191,0.002,0.281,0.028c0.094,0.025,0.131,0.115,0.108,0.26
		c-0.01,0.064-0.049,0.236-0.101,0.339c-0.05,0.103-0.138,0.071-0.194,0.071c-0.058,0-0.396-0.006-0.519-0.014
		C65.338,16.192,65.387,16.157,65.387,16.12z M64.788,16.105c-0.021-0.044-0.029-0.101-0.093-0.31
		c-0.065-0.209,0.121-0.246,0.179-0.252c0.06-0.008,0.173-0.016,0.297-0.021c0.122-0.007,0.072,0.051,0.072,0.094
		s0.007,0.144,0.007,0.201c0,0.057-0.027,0.086,0.021,0.102c0.051,0.014,0.027,0.057,0.035,0.093c0.008,0.038,0,0.05,0.008,0.108
		c0.011,0.094-0.043,0.094-0.107,0.094S64.982,16.2,64.934,16.2C64.824,16.2,64.811,16.149,64.788,16.105z M66.137,76.663
		c0.055,0.064,2.779,2.424,2.977,2.609c0.193,0.186,0.084,0.15-0.045,0.215c-0.086,0.045-3.082,1.365-3.146,1.387
		c-0.064,0.021-0.248,0.076-0.26,0.129c-0.012,0.056-0.057,0.1-0.13,0.117c-0.229,0.066-0.142-0.183-0.107-0.279
		c0.032-0.096,0.519-2.053,0.552-2.182c0.031-0.131,0.062-0.24,0.094-0.392c0.031-0.151,0.059-0.087,0.133,0.075
		c0.029,0.061,0.498,1.025,0.542,1.123c0.042,0.1-0.022,0.055,0.03,0.15c0.057,0.098,0.119,0.098,0.185,0.107
		c0.065,0.014,0.163,0.023,0.261,0.033c0.184,0.013,0.151-0.129,0.161-0.227c0.013-0.098-0.03-0.173-0.075-0.26
		c-0.041-0.087-0.086-0.087-0.129-0.173c-0.045-0.089-0.923-1.947-1.172-2.423C65.757,76.198,66.083,76.598,66.137,76.663z
		 M65.46,76.831c0.101,0.22,0.194,0.399,0.276,0.549c0.055,0.099,0.055,0.14,0.043,0.228c-0.008,0.065-0.274,1.002-0.379,1.449
		c-0.094,0.403-0.066-0.062-0.066-0.14c0-0.08-0.012-1.735-0.001-2.104C65.342,76.501,65.363,76.635,65.46,76.831z M72.214,38.775
		c-1.504,2.601-4.312,4.351-7.532,4.351c-3.219,0-6.027-1.75-7.531-4.351c-0.74-1.278-1.166-2.763-1.166-4.349
		c0-1.584,0.426-3.068,1.166-4.348c1.504-2.6,4.312-4.351,7.531-4.351v8.698l7.532-4.348c0.74,1.279,1.166,2.764,1.166,4.348
		C73.38,36.013,72.954,37.497,72.214,38.775z M65.908,32.304v-8.698c3.219,0,6.027,1.75,7.531,4.351L65.908,32.304z"/>
</g>
</svg>
