<?xml version="1.0" encoding="utf-8"?><!DOCTYPE svg PUBLIC "-//W3C//DTD SVG 1.1//EN" "http://www.w3.org/Graphics/SVG/1.1/DTD/svg11.dtd"><svg version="1.1" baseProfile="full" xmlns="http://www.w3.org/2000/svg" xmlns:xlink="http://www.w3.org/1999/xlink" xmlns:ev="http://www.w3.org/2001/xml-events" height="24.9px" width="24.9px" ><path fill="rgb( 255, 255, 255 )" d="M22.9929999999999,20.8860000000001 C22.9929999999999,20.8860000000001 20.8839999999998,22.9960000000001 20.8839999999998,22.9960000000001 C20.8839999999998,22.9960000000001 11.4959999999999,13.6080000000001 11.4959999999999,13.6080000000001 C11.4959999999999,13.6080000000001 2.10899999999992,22.9960000000001 2.10899999999992,22.9960000000001 C2.10899999999992,22.9960000000001 0,20.8860000000001 0,20.8860000000001 C0,20.8860000000001 9.38699999999994,11.498 9.38699999999994,11.498 C9.38699999999994,11.498 0,2.11000000000001 0,2.11000000000001 C0,2.11000000000001 2.10899999999992,0 2.10899999999992,0 C2.10899999999992,0 11.4959999999999,9.38800000000003 11.4959999999999,9.38800000000003 C11.4959999999999,9.38800000000003 20.8839999999998,0 20.8839999999998,0 C20.8839999999998,0 22.9929999999999,2.11000000000001 22.9929999999999,2.11000000000001 C22.9929999999999,2.11000000000001 13.606,11.498 13.606,11.498 C13.606,11.498 22.9929999999999,20.8860000000001 22.9929999999999,20.8860000000001 Z "/></svg>