<?xml version="1.0" encoding="UTF-8" standalone="no"?>
<!-- Created with Inkscape (http://www.inkscape.org/) -->
<svg id="svg5987" xmlns:rdf="http://www.w3.org/1999/02/22-rdf-syntax-ns#" xmlns="http://www.w3.org/2000/svg" height="32.915" width="50.264" version="1.1" xmlns:cc="http://creativecommons.org/ns#" xmlns:xlink="http://www.w3.org/1999/xlink" xmlns:dc="http://purl.org/dc/elements/1.1/">
 <defs id="defs5989">
  <clipPath id="SVGID_136_">
   <use id="use5671" xlink:href="#SVGID_135_" height="1052.3622" width="744.09448" y="0" x="0"/>
  </clipPath>
 </defs>
 <metadata id="metadata5992">
  <rdf:RDF>
   <cc:Work rdf:about="">
    <dc:format>image/svg+xml</dc:format>
    <dc:type rdf:resource="http://purl.org/dc/dcmitype/StillImage"/>
    <dc:title/>
   </cc:Work>
  </rdf:RDF>
 </metadata>
 <g id="layer1" transform="translate(-266.29656,-390.1904)">
  <g id="g5665" fill="#FFF" transform="translate(-558.16542,112.43039)">
   <defs id="defs5667">
    <rect id="SVGID_135_" y="277.76" x="824.46" height="32.915" width="50.265"/>
   </defs>
   <clipPath id="clipPath5977">
    <use id="use5979" xlink:href="#SVGID_135_" height="1052.3622" width="744.09448" y="0" x="0"/>
   </clipPath>
   <path id="path5673" d="m849.6,300.53-0.792-0.323-14.357-5.858-0.655,2.371c0.345,0.505,0.705,1.245,0.623,2.049,6.882,2.167,15.182,7.353,15.182,7.353s13.266-8.203,19.811-8.203l-2.341-4.518-16.679,6.806-0.792,0.323z" clip-path="url(#SVGID_136_)" class="st59" fill="#FFF"/>
   <polygon id="polygon5675" clip-path="url(#SVGID_136_)" points="832,291.09,831.35,290.82,831.36,290.83,831.86,291.04,832,291.09" class="st59" fill="#FFF"/>
   <path id="path5677" d="m849.6,289.14c1.297,0,2.35-0.499,2.35-1.114s-1.053-1.112-2.35-1.112c-1.298,0-2.35,0.497-2.35,1.112s1.052,1.114,2.35,1.114" clip-path="url(#SVGID_136_)" class="st59" fill="#FFF"/>
   <path id="path5679" d="m830.46,307.52c0.394-1.153,0.281,1.036,0.643,3.154,0.417-0.048,0.807-0.158,1.062-0.3,0.414-0.229-0.332-2.701,0.893-4.744,0.772-1.291,0.537-2.753,0.184-3.736l-1.064-0.544c-0.087-0.045-0.177-0.087-0.283-0.131-0.333-0.141-0.678-0.211-1.02-0.211-0.295,0-0.591,0.054-0.878,0.16l-1.315,0.489c-1.489,2.536,0.226,6.016,0.34,8.017,0.035,0.639,0.6,0.928,1.262,1.002-0.071-1.199-0.065-2.455,0.176-3.156" clip-path="url(#SVGID_136_)" class="st59" fill="#FFF"/>
   <path id="path5681" d="m831.35,290.83,0.649,0.265c2.247-2.357,11.171-2.876,14.03-2.981-0.002-0.028-0.011-0.052-0.011-0.081,0-1.352,1.501-2.334,3.571-2.334s3.571,0.982,3.571,2.334c0,1.355-1.501,2.336-3.571,2.336-1.314,0-2.395-0.398-3.011-1.032-2.129,0.165-10.864,0.922-13.063,2.377l16.074,6.558,25.133-10.253-25.133-10.255-25.133,10.255,6.613,2.697-0.001,0.002,0.287,0.118-0.005-0.006z" clip-path="url(#SVGID_136_)" class="st59" fill="#FFF"/>
   <path id="path5683" d="m830.87,299.61c0.568,0,1.098,0.127,1.558,0.319,0.134,0.054,0.261,0.113,0.382,0.176l0.215-1.439c0.078-0.522-0.374-1.208-0.713-1.562l1.209-5.394-1.519-0.617-1.226,5.806c-0.426,0.243-0.942,0.758-1.021,1.281l-0.25,1.678c0.47-0.175,0.929-0.248,1.365-0.248" clip-path="url(#SVGID_136_)" class="st59" fill="#FFF"/>
  </g>
 </g>
</svg>
