<?xml version="1.0" encoding="UTF-8" standalone="no"?>
<!-- Created with Inkscape (http://www.inkscape.org/) -->
<svg id="svg6656" xmlns:rdf="http://www.w3.org/1999/02/22-rdf-syntax-ns#" xmlns="http://www.w3.org/2000/svg" height="31.042" width="31.005" version="1.1" xmlns:cc="http://creativecommons.org/ns#" xmlns:dc="http://purl.org/dc/elements/1.1/">
 <metadata id="metadata6661">
  <rdf:RDF>
   <cc:Work rdf:about="">
    <dc:format>image/svg+xml</dc:format>
    <dc:type rdf:resource="http://purl.org/dc/dcmitype/StillImage"/>
    <dc:title/>
   </cc:Work>
  </rdf:RDF>
 </metadata>
 <g id="layer1" transform="translate(-181.63027,-568.26801)">
  <g id="g6536" transform="translate(-663.08874,216.67577)">
   <path id="circle5717" d="m874.41,367.12c0.0841,5.9295-3.986,11.616-9.6348,13.439-5.4251,1.9048-11.897,0.0855-15.494-4.4164-3.977-4.6587-4.3218-11.933-0.81654-16.953,3.1777-4.865,9.5198-7.294,15.136-5.8497,5.9531,1.3596,10.571,6.9529,10.791,13.05,0.0123,0.2431,0.0185,0.4865,0.0185,0.72991z" stroke="#FFF" stroke-width="2.63100004" fill="none"/>
   <path id="path5719" fill="#FFF" d="m863.97,363.15c-1.5396-2.62-5.8945-2.3006-7.1455,0.42675-1.1372,2.4024-1.148,5.5208,0.39933,7.7498,1.564,2.1732,5.5527,2.2328,6.756-0.34059,0.57463-0.67979,0.12708-2.2458,1.3532-1.8909h2.8469c-0.16709,3.0383-2.2274,6.0102-5.2911,6.6914-3.4465,0.90649-7.5592-0.37059-9.3424-3.5914-2.0336-3.6181-1.6857-8.644,1.2281-11.698,3.1898-3.2524,9.3918-3.1508,12.104,0.65456,0.43698,0.76008,1.6571,2.7828,0.80668,3.1821h-3.2853c-0.06-0.41865-0.2062-0.82493-0.43-1.184z"/>
  </g>
 </g>
</svg>
