<?xml version="1.0" encoding="UTF-8" standalone="no"?>
<!-- Created with Inkscape (http://www.inkscape.org/) -->
<svg id="svg6184" xmlns:rdf="http://www.w3.org/1999/02/22-rdf-syntax-ns#" xmlns="http://www.w3.org/2000/svg" height="33.429" width="29.834" version="1.1" xmlns:cc="http://creativecommons.org/ns#" xmlns:xlink="http://www.w3.org/1999/xlink" xmlns:dc="http://purl.org/dc/elements/1.1/">
 <defs id="defs6186">
  <clipPath id="SVGID_128_">
   <use id="use5619" xlink:href="#SVGID_127_" height="1052.3622" width="744.09448" y="0" x="0"/>
  </clipPath>
 </defs>
 <metadata id="metadata6189">
  <rdf:RDF>
   <cc:Work rdf:about="">
    <dc:format>image/svg+xml</dc:format>
    <dc:type rdf:resource="http://purl.org/dc/dcmitype/StillImage"/>
    <dc:title/>
   </cc:Work>
  </rdf:RDF>
 </metadata>
 <g id="layer1" transform="translate(-139.36875,-192.79054)">
  <g id="g5613" fill="#FFF" transform="translate(-703.34797,-230.51346)">
   <defs id="defs5615">
    <rect id="SVGID_127_" y="423.3" x="841.98" height="33.43" width="31.306"/>
   </defs>
   <clipPath id="clipPath6176">
    <use id="use6178" xlink:href="#SVGID_127_" height="1052.3622" width="744.09448" y="0" x="0"/>
   </clipPath>
   <path id="path5621" d="m872.11,431.66c-0.803-1.388-2.604-2.061-4.995-2.061-1.124,0-2.377,0.148-3.719,0.44-1.311-4.09-3.403-6.736-5.763-6.736-2.358,0-4.452,2.646-5.762,6.736-1.337-0.292-2.591-0.44-3.714-0.44-1.198,0-2.243,0.167-3.092,0.511-0.85,0.343-1.504,0.854-1.904,1.55-1.179,2.043,0.065,5.183,2.948,8.357-2.883,3.176-4.127,6.314-2.948,8.357,0.804,1.393,2.605,2.062,4.996,2.062,1.123,0,2.377-0.148,3.714-0.441,1.31,4.092,3.403,6.737,5.762,6.737s4.452-2.646,5.763-6.737c1.342,0.293,2.595,0.441,3.714,0.441,2.396,0,4.197-0.673,5-2.062,1.18-2.043-0.065-5.182-2.952-8.357,2.887-3.174,4.132-6.314,2.952-8.357m-23.952,16.918c-1.736,0-2.971-0.412-3.389-1.132-0.539-0.938,0.064-2.775,1.579-4.805,0.323-0.433,0.682-0.863,1.066-1.296,0.962,0.92,2.052,1.825,3.25,2.697,0.158,1.473,0.396,2.869,0.711,4.16-1.15,0.247-2.236,0.376-3.217,0.376m2.326-7.005c-0.631-0.511-1.227-1.03-1.778-1.556,0.552-0.524,1.147-1.044,1.778-1.555-0.019,0.515-0.032,1.03-0.032,1.555,0,0.526,0.014,1.045,0.032,1.556m0.181-5.581c-1.198,0.873-2.288,1.783-3.25,2.698-0.385-0.432-0.743-0.864-1.066-1.296-1.515-2.029-2.118-3.867-1.579-4.805,0.418-0.72,1.652-1.134,3.389-1.134,0.98,0,2.066,0.131,3.218,0.377-0.316,1.291-0.554,2.688-0.712,4.16m11.892-1.388c-0.433-0.274-0.873-0.543-1.328-0.808-0.455-0.261-0.906-0.507-1.36-0.743,0.756-0.292,1.503-0.548,2.232-0.763,0.172,0.727,0.33,1.492,0.456,2.314m-4.923-9.444c1.259,0,2.847,1.945,3.962,5.345-1.277,0.376-2.605,0.863-3.962,1.463-1.351-0.604-2.684-1.087-3.954-1.463,1.113-3.4,2.696-5.345,3.954-5.345m-4.462,7.127c0.729,0.219,1.478,0.475,2.233,0.767-0.455,0.236-0.909,0.482-1.359,0.743-0.456,0.265-0.896,0.533-1.333,0.808,0.131-0.823,0.283-1.588,0.459-2.318m-0.459,13.145c0.437,0.273,0.877,0.543,1.333,0.808,0.45,0.26,0.904,0.506,1.359,0.743-0.756,0.293-1.504,0.548-2.233,0.766-0.176-0.725-0.328-1.496-0.459-2.317m4.921,9.443c-1.258,0-2.841-1.944-3.954-5.344,1.271-0.376,2.599-0.858,3.954-1.463,1.356,0.604,2.685,1.087,3.962,1.463-1.115,3.4-2.703,5.344-3.962,5.344m4.467-7.127c-0.729-0.218-1.477-0.473-2.232-0.766,0.454-0.237,0.905-0.483,1.36-0.743,0.455-0.265,0.896-0.534,1.328-0.808-0.126,0.822-0.284,1.589-0.456,2.317m0.738-4.726c-0.808,0.557-1.657,1.095-2.54,1.605-0.882,0.511-1.773,0.975-2.665,1.394-0.887-0.419-1.777-0.883-2.659-1.394-0.888-0.511-1.736-1.049-2.54-1.605-0.079-0.957-0.125-1.955-0.125-3.005,0-1.049,0.046-2.047,0.125-3.004,0.808-0.558,1.652-1.096,2.54-1.606,0.882-0.51,1.772-0.974,2.659-1.393,0.892,0.419,1.783,0.883,2.665,1.393,0.883,0.511,1.732,1.049,2.54,1.606,0.079,0.957,0.12,1.955,0.12,3.004,0,1.05-0.041,2.048-0.12,3.005m4.276-11.566c1.736,0,2.972,0.414,3.384,1.134,0.544,0.938-0.06,2.775-1.578,4.805-0.32,0.432-0.678,0.864-1.062,1.296-0.962-0.915-2.052-1.825-3.25-2.698-0.158-1.472-0.4-2.869-0.71-4.159,1.15-0.247,2.236-0.378,3.216-0.378m-2.331,7.007c0.631,0.511,1.226,1.03,1.779,1.555-0.554,0.525-1.148,1.045-1.779,1.556,0.023-0.511,0.032-1.03,0.032-1.556,0-0.525-0.008-1.044-0.032-1.555m5.72,8.983c-0.417,0.72-1.652,1.132-3.394,1.132-0.976,0-2.062-0.129-3.212-0.375,0.31-1.291,0.552-2.688,0.71-4.16,1.198-0.872,2.288-1.777,3.25-2.697,0.385,0.433,0.742,0.863,1.062,1.296,1.52,2.029,2.123,3.867,1.584,4.804" clip-path="url(#SVGID_128_)" class="st1" fill="#FFF"/>
   <path id="path5623" d="M848.16,429.6" clip-path="url(#SVGID_128_)" class="st1" fill="#FFF"/>
   <path id="path5625" d="M867.11,429.6" clip-path="url(#SVGID_128_)" class="st1" fill="#FFF"/>
   <path id="path5627" d="m857.63,437.62c-1.323,0-2.394,1.072-2.394,2.394s1.07,2.395,2.394,2.395,2.394-1.072,2.394-2.395c-0.001-1.322-1.071-2.394-2.394-2.394" clip-path="url(#SVGID_128_)" class="st1" fill="#FFF"/>
  </g>
 </g>
</svg>
