<?xml version="1.0" encoding="UTF-8" standalone="no"?>
<!-- Created with Inkscape (http://www.inkscape.org/) -->

<svg
   xmlns:dc="http://purl.org/dc/elements/1.1/"
   xmlns:cc="http://creativecommons.org/ns#"
   xmlns:rdf="http://www.w3.org/1999/02/22-rdf-syntax-ns#"
   xmlns:svg="http://www.w3.org/2000/svg"
   xmlns="http://www.w3.org/2000/svg"
   version="1.1"
   width="24.033751"
   height="27.991249"
   id="svg4730">
  <defs
     id="defs4732">
    <clipPath
       id="clipPath1562">
      <path
         d="m 894.875,187.538 19.227,0 0,22.393 -19.227,0 0,-22.393 z"
         id="path1564" />
    </clipPath>
  </defs>
  <metadata
     id="metadata4735">
    <rdf:RDF>
      <cc:Work
         rdf:about="">
        <dc:format>image/svg+xml</dc:format>
        <dc:type
           rdf:resource="http://purl.org/dc/dcmitype/StillImage" />
        <dc:title></dc:title>
      </cc:Work>
    </rdf:RDF>
  </metadata>
  <g
     transform="translate(-362.98312,-518.36656)"
     id="layer1">
    <g
       transform="matrix(1.25,0,0,-1.25,-755.61063,780.78031)"
       id="g1558">
      <g
         clip-path="url(#clipPath1562)"
         id="g1560">
        <g
           transform="translate(914.095,209.9297)"
           id="g1566">
          <path
             d="m 0,0 -2.234,-0.534 -11.158,-2.667 -0.044,0 0,-13.092 c -0.535,0.211 -1.135,0.334 -1.772,0.334 -2.216,0 -4.012,-1.44 -4.012,-3.216 0,-1.777 1.796,-3.217 4.012,-3.217 2.193,0 3.973,1.412 4.008,3.165 l 0.004,0 0,12.632 8.962,2.14 0,-7.853 c -0.535,0.213 -1.134,0.335 -1.771,0.335 -2.216,0 -4.012,-1.441 -4.012,-3.217 0,-1.776 1.796,-3.216 4.012,-3.216 2.193,0 3.973,1.413 4.008,3.164 l 0.004,0 0,13.103 0,0 0,2.141 L 0,0 z"
             id="path1568"
             style="fill:#ffffff;fill-opacity:1;fill-rule:nonzero;stroke:none" />
        </g>
      </g>
    </g>
  </g>
</svg>
