<?xml version="1.0" encoding="UTF-8" standalone="no"?>
<svg
   xmlns:dc="http://purl.org/dc/elements/1.1/"
   xmlns:cc="http://creativecommons.org/ns#"
   xmlns:rdf="http://www.w3.org/1999/02/22-rdf-syntax-ns#"
   xmlns:svg="http://www.w3.org/2000/svg"
   xmlns="http://www.w3.org/2000/svg"
   height="36.2528"
   width="35"
   xml:space="preserve"
   viewBox="0 0 35 36.2528"
   y="0px"
   x="0px"
   id="Capa_1"
   version="1.1"><metadata
     id="metadata69"><rdf:RDF><cc:Work
         rdf:about=""><dc:format>image/svg+xml</dc:format><dc:type
           rdf:resource="http://purl.org/dc/dcmitype/StillImage" /><dc:title></dc:title></cc:Work></rdf:RDF></metadata><defs
     id="defs67" /><g
     transform="matrix(0.07829978,0,0,0.07829978,-0.62639824,0)"
     style="fill:#99cc00;fill-opacity:1"
     id="g3"><path
       style="fill:#99cc00;fill-opacity:1"
       id="path5"
       d="M 399.5,0 63.5,0 C 32.897,0 8,24.897 8,55.5 l 0,352 C 8,438.103 32.897,463 63.5,463 l 336,0 c 30.603,0 55.5,-24.897 55.5,-55.5 l 0,-352 C 455,24.897 430.103,0 399.5,0 Z M 440,407.5 c 0,22.332 -18.168,40.5 -40.5,40.5 l -336,0 C 41.168,448 23,429.832 23,407.5 l 0,-352 C 23,33.168 41.168,15 63.5,15 l 336,0 c 22.332,0 40.5,18.168 40.5,40.5 l 0,352 z" /><path
       style="fill:#99cc00;fill-opacity:1"
       id="path7"
       d="m 135.5,312 -64,0 C 58.542,312 48,322.542 48,335.5 l 0,64 c 0,12.958 10.542,23.5 23.5,23.5 l 64,0 c 12.958,0 23.5,-10.542 23.5,-23.5 l 0,-64 C 159,322.542 148.458,312 135.5,312 Z m 8.5,87.5 c 0,4.687 -3.813,8.5 -8.5,8.5 l -64,0 c -4.687,0 -8.5,-3.813 -8.5,-8.5 l 0,-64 c 0,-4.687 3.813,-8.5 8.5,-8.5 l 64,0 c 4.687,0 8.5,3.813 8.5,8.5 l 0,64 z" /><path
       style="fill:#99cc00;fill-opacity:1"
       id="path9"
       d="m 135.5,184 -64,0 C 58.542,184 48,194.542 48,207.5 l 0,64 c 0,12.958 10.542,23.5 23.5,23.5 l 64,0 c 12.958,0 23.5,-10.542 23.5,-23.5 l 0,-64 C 159,194.542 148.458,184 135.5,184 Z m 8.5,87.5 c 0,4.687 -3.813,8.5 -8.5,8.5 l -64,0 c -4.687,0 -8.5,-3.813 -8.5,-8.5 l 0,-64 c 0,-4.687 3.813,-8.5 8.5,-8.5 l 64,0 c 4.687,0 8.5,3.813 8.5,8.5 l 0,64 z" /><path
       style="fill:#99cc00;fill-opacity:1"
       id="path11"
       d="m 263.5,312 -64,0 c -12.958,0 -23.5,10.542 -23.5,23.5 l 0,64 c 0,12.958 10.542,23.5 23.5,23.5 l 64,0 c 12.958,0 23.5,-10.542 23.5,-23.5 l 0,-64 C 287,322.542 276.458,312 263.5,312 Z m 8.5,87.5 c 0,4.687 -3.813,8.5 -8.5,8.5 l -64,0 c -4.687,0 -8.5,-3.813 -8.5,-8.5 l 0,-64 c 0,-4.687 3.813,-8.5 8.5,-8.5 l 64,0 c 4.687,0 8.5,3.813 8.5,8.5 l 0,64 z" /><path
       style="fill:#99cc00;fill-opacity:1"
       id="path13"
       d="m 263.5,184 -64,0 c -12.958,0 -23.5,10.542 -23.5,23.5 l 0,64 c 0,12.958 10.542,23.5 23.5,23.5 l 64,0 c 12.958,0 23.5,-10.542 23.5,-23.5 l 0,-64 C 287,194.542 276.458,184 263.5,184 Z m 8.5,87.5 c 0,4.687 -3.813,8.5 -8.5,8.5 l -64,0 c -4.687,0 -8.5,-3.813 -8.5,-8.5 l 0,-64 c 0,-4.687 3.813,-8.5 8.5,-8.5 l 64,0 c 4.687,0 8.5,3.813 8.5,8.5 l 0,64 z" /><path
       style="fill:#99cc00;fill-opacity:1"
       id="path15"
       d="m 391.5,184 -64,0 c -12.958,0 -23.5,10.542 -23.5,23.5 l 0,192 c 0,12.958 10.542,23.5 23.5,23.5 l 64,0 c 12.958,0 23.5,-10.542 23.5,-23.5 l 0,-192 C 415,194.542 404.458,184 391.5,184 Z m 8.5,215.5 c 0,4.687 -3.813,8.5 -8.5,8.5 l -64,0 c -4.687,0 -8.5,-3.813 -8.5,-8.5 l 0,-192 c 0,-4.687 3.813,-8.5 8.5,-8.5 l 64,0 c 4.687,0 8.5,3.813 8.5,8.5 l 0,192 z" /><path
       style="fill:#99cc00;fill-opacity:1"
       id="path17"
       d="m 391.5,40 -320,0 C 58.542,40 48,50.542 48,63.5 l 0,80 c 0,12.958 10.542,23.5 23.5,23.5 l 320,0 c 12.958,0 23.5,-10.542 23.5,-23.5 l 0,-80 C 415,50.542 404.458,40 391.5,40 Z m 8.5,103.5 c 0,4.687 -3.813,8.5 -8.5,8.5 l -320,0 c -4.687,0 -8.5,-3.813 -8.5,-8.5 l 0,-80 C 63,58.813 66.813,55 71.5,55 l 320,0 c 4.687,0 8.5,3.813 8.5,8.5 l 0,80 z" /><path
       style="fill:#99cc00;fill-opacity:1"
       id="path19"
       d="m 119.5,232 -8.5,0 0,-8.5 c 0,-4.142 -3.358,-7.5 -7.5,-7.5 -4.142,0 -7.5,3.358 -7.5,7.5 l 0,8.5 -8.5,0 c -4.142,0 -7.5,3.358 -7.5,7.5 0,4.142 3.358,7.5 7.5,7.5 l 8.5,0 0,8.5 c 0,4.142 3.358,7.5 7.5,7.5 4.142,0 7.5,-3.358 7.5,-7.5 l 0,-8.5 8.5,0 c 4.142,0 7.5,-3.358 7.5,-7.5 0,-4.142 -3.358,-7.5 -7.5,-7.5 z" /><path
       style="fill:#99cc00;fill-opacity:1"
       id="path21"
       d="m 247.5,232 -32,0 c -4.142,0 -7.5,3.358 -7.5,7.5 0,4.142 3.358,7.5 7.5,7.5 l 32,0 c 4.142,0 7.5,-3.358 7.5,-7.5 0,-4.142 -3.358,-7.5 -7.5,-7.5 z" /><path
       style="fill:#99cc00;fill-opacity:1"
       id="path23"
       d="m 247.5,360 -32,0 c -4.142,0 -7.5,3.358 -7.5,7.5 0,4.142 3.358,7.5 7.5,7.5 l 32,0 c 4.142,0 7.5,-3.358 7.5,-7.5 0,-4.142 -3.358,-7.5 -7.5,-7.5 z" /><path
       style="fill:#99cc00;fill-opacity:1"
       id="path25"
       d="m 231.5,351 c 1.97,0 3.91,-0.8 5.3,-2.2 1.4,-1.39 2.2,-3.33 2.2,-5.3 0,-1.97 -0.8,-3.91 -2.2,-5.3 -1.39,-1.4 -3.33,-2.2 -5.3,-2.2 -1.97,0 -3.91,0.8 -5.3,2.2 -1.4,1.39 -2.2,3.32 -2.2,5.3 0,1.98 0.8,3.91 2.2,5.3 1.39,1.4 3.33,2.2 5.3,2.2 z" /><path
       style="fill:#99cc00;fill-opacity:1"
       id="path27"
       d="m 231.5,384 c -1.97,0 -3.91,0.8 -5.3,2.2 -1.4,1.39 -2.2,3.33 -2.2,5.3 0,1.97 0.8,3.91 2.2,5.3 1.39,1.4 3.33,2.2 5.3,2.2 1.98,0 3.91,-0.8 5.3,-2.2 1.4,-1.4 2.2,-3.33 2.2,-5.3 0,-1.97 -0.8,-3.91 -2.2,-5.3 -1.39,-1.4 -3.32,-2.2 -5.3,-2.2 z" /><path
       style="fill:#99cc00;fill-opacity:1"
       id="path29"
       d="m 375.5,312 -32,0 c -4.142,0 -7.5,3.358 -7.5,7.5 0,4.142 3.358,7.5 7.5,7.5 l 32,0 c 4.142,0 7.5,-3.358 7.5,-7.5 0,-4.142 -3.358,-7.5 -7.5,-7.5 z" /><path
       style="fill:#99cc00;fill-opacity:1"
       id="path31"
       d="m 375.5,280 -32,0 c -4.142,0 -7.5,3.358 -7.5,7.5 0,4.142 3.358,7.5 7.5,7.5 l 32,0 c 4.142,0 7.5,-3.358 7.5,-7.5 0,-4.142 -3.358,-7.5 -7.5,-7.5 z" /><path
       style="fill:#99cc00;fill-opacity:1"
       id="path33"
       d="m 124.803,346.197 c -2.929,-2.929 -7.678,-2.929 -10.606,0 L 103.5,356.894 92.803,346.197 c -2.929,-2.929 -7.678,-2.929 -10.606,0 -2.929,2.929 -2.929,7.678 0,10.606 L 92.894,367.5 82.197,378.197 c -2.929,2.929 -2.929,7.678 0,10.606 1.464,1.465 3.384,2.197 5.303,2.197 1.919,0 3.839,-0.732 5.303,-2.197 l 10.697,-10.697 10.697,10.697 c 1.464,1.464 3.384,2.197 5.303,2.197 1.919,0 3.839,-0.732 5.303,-2.197 2.929,-2.929 2.929,-7.678 0,-10.606 L 114.106,367.5 124.803,356.803 c 2.929,-2.928 2.929,-7.678 0,-10.606 z" /></g><g
     transform="translate(-8,-426.7472)"
     id="g35" /><g
     transform="translate(-8,-426.7472)"
     id="g37" /><g
     transform="translate(-8,-426.7472)"
     id="g39" /><g
     transform="translate(-8,-426.7472)"
     id="g41" /><g
     transform="translate(-8,-426.7472)"
     id="g43" /><g
     transform="translate(-8,-426.7472)"
     id="g45" /><g
     transform="translate(-8,-426.7472)"
     id="g47" /><g
     transform="translate(-8,-426.7472)"
     id="g49" /><g
     transform="translate(-8,-426.7472)"
     id="g51" /><g
     transform="translate(-8,-426.7472)"
     id="g53" /><g
     transform="translate(-8,-426.7472)"
     id="g55" /><g
     transform="translate(-8,-426.7472)"
     id="g57" /><g
     transform="translate(-8,-426.7472)"
     id="g59" /><g
     transform="translate(-8,-426.7472)"
     id="g61" /><g
     transform="translate(-8,-426.7472)"
     id="g63" /></svg>