<?xml version="1.0" encoding="UTF-8" standalone="no"?>
<!-- Created with Inkscape (http://www.inkscape.org/) -->
<svg id="svg6404" xmlns:rdf="http://www.w3.org/1999/02/22-rdf-syntax-ns#" xmlns="http://www.w3.org/2000/svg" height="32.908" width="32.974" version="1.1" xmlns:cc="http://creativecommons.org/ns#" xmlns:xlink="http://www.w3.org/1999/xlink" xmlns:dc="http://purl.org/dc/elements/1.1/">
 <defs id="defs6406">
  <clipPath id="SVGID_134_">
   <use id="use5657" xlink:href="#SVGID_133_" height="1052.3622" width="744.09448" y="0" x="0"/>
  </clipPath>
 </defs>
 <metadata id="metadata6409">
  <rdf:RDF>
   <cc:Work rdf:about="">
    <dc:format>image/svg+xml</dc:format>
    <dc:type rdf:resource="http://purl.org/dc/dcmitype/StillImage"/>
    <dc:title/>
   </cc:Work>
  </rdf:RDF>
 </metadata>
 <g id="layer1" transform="translate(279.3441,-187.33675)">
  <g id="g5651" fill="#FFF" transform="translate(-1120.7951,-455.95925)">
   <defs id="defs5653">
    <rect id="SVGID_133_" y="643.29" x="841.45" height="32.915" width="33.278"/>
   </defs>
   <clipPath id="clipPath6397">
    <use id="use6399" xlink:href="#SVGID_133_" height="1052.3622" width="744.09448" y="0" x="0"/>
   </clipPath>
   <path id="path5659" d="m863.24,662.44,0.434,0.878-0.928,0.927-0.86,0.86c-0.511,0.512-1.117,0.893-1.775,1.137l5.847,5.845,2.765,3.706,1.468,0.396,4.079-4.103-0.395-1.501-3.681-2.739-5.523-5.524-0.55,0.551-0.881-0.433zm6.558,7.495c0.954,0,1.726,0.773,1.726,1.727s-0.771,1.727-1.726,1.727-1.728-0.772-1.728-1.727c0-0.954,0.774-1.727,1.728-1.727" clip-path="url(#SVGID_134_)" class="st47" fill="#FFF"/>
   <path id="path5661" d="m853.47,654.98,0.948-0.949,0.858,0.447-0.446-0.86,0.949-0.948,0.094-0.095c0.211-0.546,0.334-1.084,0.334-1.589,0-3.914-3.742-7.701-7.653-7.653-0.016,0-0.457,0.447-0.698,0.688,3.135,3.135,2.876,2.626,2.876,4.549,0,1.561-2.498,4.024-4.024,4.024-1.974,0-1.346,0.328-4.548-2.876-0.249,0.249-0.69,0.683-0.69,0.698,0.048,3.912,3.742,7.653,7.654,7.653,0.708,0,1.465-0.226,2.213-0.601l0.143,0.142c0.239-0.647,0.615-1.257,1.135-1.775l0.855-0.855z" clip-path="url(#SVGID_134_)" class="st47" fill="#FFF"/>
   <path id="path5663" d="m873.52,646.49-2.282-2.282c-0.606-0.606-1.401-0.91-2.195-0.91-0.797,0-1.592,0.305-2.197,0.911l-9.764,9.763c0.3,0.578,0.078,1.454-0.389,1.922-0.32,0.321-0.835,0.525-1.312,0.525-0.22,0-0.43-0.042-0.61-0.137l-0.855,0.855c-1.214,1.214-1.214,3.181-0.001,4.394l0.158,0.159-7.617,7.617-2.034,0.769-2.966,4.234,1.903,1.896,4.228-2.954,0.77-2.05,7.615-7.615,0.226,0.226c0.606,0.607,1.401,0.911,2.196,0.911s1.591-0.305,2.198-0.911l0.859-0.862c-0.283-0.576-0.063-1.438,0.399-1.901,0.32-0.319,0.832-0.524,1.309-0.524,0.21,0,0.415,0.04,0.593,0.128l9.769-9.77c1.212-1.214,1.212-3.181-0.001-4.394" clip-path="url(#SVGID_134_)" class="st47" fill="#FFF"/>
  </g>
 </g>
</svg>
