<?xml version="1.0" encoding="utf-8"?>
<!-- Generator: Adobe Illustrator 15.0.0, SVG Export Plug-In . SVG Version: 6.00 Build 0)  -->
<!DOCTYPE svg PUBLIC "-//W3C//DTD SVG 1.1//EN" "http://www.w3.org/Graphics/SVG/1.1/DTD/svg11.dtd">
<svg version="1.1"
	 id="Ebene_1" xmlns:rdf="http://www.w3.org/1999/02/22-rdf-syntax-ns#" xmlns:dc="http://purl.org/dc/elements/1.1/" xmlns:inkscape="http://www.inkscape.org/namespaces/inkscape" inkscape:version="0.48.2 r9819" sodipodi:docname="fb.svg" xmlns:svg="http://www.w3.org/2000/svg" xmlns:cc="http://creativecommons.org/ns#" xmlns:sodipodi="http://sodipodi.sourceforge.net/DTD/sodipodi-0.dtd"
	 xmlns="http://www.w3.org/2000/svg" xmlns:xlink="http://www.w3.org/1999/xlink" x="0px" y="0px" width="100px" height="100px"
	 viewBox="0 0 100 100" enable-background="new 0 0 100 100" xml:space="preserve">
<sodipodi:namedview  id="namedview3072" inkscape:current-layer="Ebene_1" borderopacity="1" gridtolerance="10" inkscape:window-y="0" inkscape:window-height="480" inkscape:zoom="2.36" inkscape:cx="56.355932" inkscape:pageopacity="0" pagecolor="#ffffff" inkscape:window-x="0" inkscape:window-maximized="0" inkscape:cy="50" bordercolor="#666666" objecttolerance="10" inkscape:window-width="640" inkscape:pageshadow="2" guidetolerance="10" showgrid="false">
	</sodipodi:namedview>
<path fill="#FFFFFF" d="M44.834,25.833c-12,5.5-19.5,16.5-19,26c0.5,8,6.5,18,16.5,24c-12.5,0.5-19.5-15-19.5-22
	c-1.5,8.5,1.5,24.5,18,30.5c5,1.5,15,2,19.5-1.5c8-5.5,5-13-1.5-18.5c-7.5-6-14-10-17.5-18
	C38.834,40.333,37.834,33.333,44.834,25.833 M51.334,51.833c-10.5-10.5-8.5-18-2-27c3.5-4.5,6.5-9,6-14.5c16,17,1,22.5,9,31.5
	c1-5,4.5-10,9-13.5c-1.5,13.5,3,14,7,22c6,13-2.5,27.5-15,33.5c5.5-5.5,6-12.5,0-19.5C61.834,60.833,56.334,57.333,51.334,51.833"/>
</svg>
