<?xml version="1.0" encoding="utf-8"?>
<!-- Generator: Adobe Illustrator 15.0.0, SVG Export Plug-In . SVG Version: 6.00 Build 0)  -->
<!DOCTYPE svg PUBLIC "-//W3C//DTD SVG 1.1//EN" "http://www.w3.org/Graphics/SVG/1.1/DTD/svg11.dtd">
<svg version="1.1" id="Ebene_1" xmlns="http://www.w3.org/2000/svg" xmlns:xlink="http://www.w3.org/1999/xlink" x="0px" y="0px"
	 width="100px" height="100px" viewBox="0 0 100 100" enable-background="new 0 0 100 100" xml:space="preserve">
<path fill="#FFFFFF" d="M92.408,35.462c-1.986-1.031-4.203-1.536-4.312-1.62c-1.886-1.475-3.166-1.482-3.315-1.486
	c-2.025-0.044-11.07,1.135-11.07,1.135s-0.389-0.422-0.452-0.416c-0.062,0.006-0.231-0.011-0.187,0.059
	c0.049,0.07,0.163,0.411,0.018,0.432c-10.366,1.453-15.666,3.239-15.773,3.252c-6.525,0.742-7.436,1.079-7.684,1.014
	c-0.401-0.103-9.176-2.323-9.314-2.342c-0.139-0.021-0.91,0.063-0.996-0.009c-0.16-0.135-3.795-1.771-3.974-1.755
	c-0.104,0.012-1.664,0.046-1.509,0.176c0.719,0.592,1.945,2.262,2.32,2.209c0.377-0.056,2.121,0.764,2.121,0.764l0.594,0.055
	c0,0-0.556,0.154-0.26,0.171c0.299,0.015,3.682,1.677,3.661,1.677c-0.149,0.01-10.849,1.395-10.849,1.395s-0.109-0.304-0.279-0.289
	c-0.168,0.017-0.141,0.332-0.141,0.332s-0.567,0.039-0.946,0.083c-0.795,0.092-3.272-0.178-3.748-0.518
	c-0.349-0.249-14.17-8.718-14.528-8.96c-0.285-0.191-3.373,0.274-4.938,0.496c1.253,1.978,6.039,10.324,6.039,10.324
	c-1.468-0.081-3.267,0.149-3.414,0.162c-0.284,0.024,0.017,0.19,0.017,0.19s1.961,1.153,1.893,1.188
	c-0.172,0.09-0.209,0.638-0.209,0.638l-0.141,0.012l0.07,0.814l0.169-0.017c0.069,0.489,0.907,0.925,1.526,0.96
	c0.181,0.008,3.068,0.222,3.758,0.268c0.427,0.027,9.799,0.733,9.799,0.733l-0.104,0.239c0.342,0.08,0.479-0.188,0.479-0.188
	c0.52,0.006,6.977,0.524,8.963,0.617c1.77,0.08,5.586-0.216,5.586-0.216l-0.029,0.267c0.242-0.021,0.41-0.303,0.41-0.303
	l2.743-0.295l0.022,0.487c0.135-0.023,0.408-0.525,0.408-0.525c0.082-0.016,0.576-0.051,0.576-0.051l0.041,0.453
	c0,0,0.352-0.062,0.508-0.002c0.15,0.06,2.777,0.307,2.777,0.307v0.146l-0.197,0.125l2.974-0.221l0.051,0.216l0.197-0.038
	l0.006,0.201c-0.627,0.678-0.669,0.82-0.642,0.998c0.074,0.46,0.275,0.569,0.513,0.65c0.185,0.07,0.271,0.056,0.437,0.024
	c0.383-0.063,0.747-0.646,0.747-0.646s0.175-0.1,0.212-0.02c0.09,0.203,0.242,0.195,0.432,0.225c0.13,0.022,0.279,0.004,0.427-0.066
	c0.159-0.077,0.96-0.857,0.926-1.254c-0.055-0.633-0.644-0.622-0.651-0.695c-0.021-0.221,0.734-0.772,0.734-0.772v-0.476l0.523-0.07
	l0.072,0.818c-0.203,0.029-0.439,1.141-0.427,1.287c0.013,0.145,0.046,0.747,0.046,0.747c-0.111,0.054-0.342,0.229-0.31,0.578
	c0.065,0.731,0.612,0.726,0.772,0.712c0.473-0.029,0.827-0.55,0.803-0.833c-0.014-0.155-0.051-0.381,0.023-0.338
	c0.18,0.099,0.319,0.046,0.52,0.028c0.275-0.025,0.682-0.56,0.66-0.811c-0.01-0.105-0.021-0.318-0.09-0.416
	c-0.173-0.238,0.061-0.302,0.291-0.322c0.406-0.037,0.609-0.635,0.717-0.612c0.108,0.022,1.797,0,1.797,0l0.051,0.302l-0.241,0.045
	l0.024,0.165c0,0,2.1-0.202,2.289-0.221c2.623-0.265,2.644-0.605,2.644-0.605l-0.026-1.782c0.301-0.028,5.108-0.938,5.108-0.938
	l-0.043,0.458c0.378-0.032,0.46-0.562,0.531-0.574c1.071-0.211,6.54-0.916,6.846-0.942c2.185-0.192,7.071-1.352,7.071-1.352
	l0.094,0.658l-0.424,0.482l0.029,0.207l0.526-0.022c0,0,0.236,0.761,0.154,0.778c-0.085,0.019-0.741,0.244-0.683,0.928
	c0.053,0.577,0.752,0.609,0.857,0.602c0.587-0.054,0.855-0.635,0.835-0.875c-0.028-0.316-0.323-0.422-0.284-0.56
	c0.104-0.379-0.302-1.14-0.302-1.14l0.149-0.105l-0.057-0.516l0.59-0.285l-0.074-0.555c4.622-1.475,6.173-2.82,6.513-3.111
	c0.578-0.496,0.852-0.773,0.812-1.214C93.248,35.906,92.574,35.55,92.408,35.462z"/>
</svg>
