<?xml version="1.0" encoding="UTF-8" standalone="no"?>
<!-- Created with Inkscape (http://www.inkscape.org/) -->

<svg
   xmlns:dc="http://purl.org/dc/elements/1.1/"
   xmlns:cc="http://creativecommons.org/ns#"
   xmlns:rdf="http://www.w3.org/1999/02/22-rdf-syntax-ns#"
   xmlns:svg="http://www.w3.org/2000/svg"
   xmlns="http://www.w3.org/2000/svg"
   version="1.1"
   width="139.96613"
   height="140.00244"
   id="svg4288">
  <defs
     id="defs4290">
    <clipPath
       id="clipPath300">
      <path
         d="m 77,1524.542 111.973,0 0,118.83 -111.973,0 0,-118.83 z"
         id="path302" />
    </clipPath>
  </defs>
  <metadata
     id="metadata4293">
    <rdf:RDF>
      <cc:Work
         rdf:about="">
        <dc:format>image/svg+xml</dc:format>
        <dc:type
           rdf:resource="http://purl.org/dc/dcmitype/StillImage" />
        <dc:title></dc:title>
      </cc:Work>
    </rdf:RDF>
  </metadata>
  <g
     transform="translate(-305.01693,-462.36095)"
     id="layer1">
    <g
       transform="matrix(1.25,0,0,-1.25,208.76681,2508.0409)"
       id="g296">
      <g
         clip-path="url(#clipPath300)"
         id="g298">
        <g
           transform="translate(102.3871,1550.1545)"
           id="g304">
          <path
             d="m 0,0 31.28,-19.947 c 0,0 28.56,19.494 30.146,19.494 16.094,-1.133 25.16,-25.16 25.16,-25.16 l -111.973,0 c 0,0 7.413,23.806 25.093,25.619 L 0,0 z"
             id="path306"
             style="fill:#3db54a;fill-opacity:1;fill-rule:nonzero;stroke:none" />
        </g>
        <g
           transform="translate(119.8971,1567.7216)"
           id="g308">
          <path
             d="m 0,0 c 0,0 6.29,-13.94 -14.96,-18.87 -0.425,-0.425 -5.44,0.85 -5.44,0.85 0,0 5.27,3.57 2.89,17 -2.38,13.43 -14.62,49.81 5.78,63.24 20.4,13.43 40.29,2.55 43.52,0.51 3.23,-2.04 15.47,-9.18 12.58,-30.6 -2.89,-21.42 -6.29,-38.59 3.23,-50.83 -0.17,0.51 -19.04,-4.42 -22.1,14.96 0,12.24 4.08,17.51 4.42,22.95 0.34,5.44 -3.91,11.56 -3.91,11.56 0,0 1.7,-7.65 1.02,-8.67 -0.68,-1.02 1.87,1.7 -6.8,7.82 -8.67,6.12 -16.15,9.69 -20.74,21.42 -0.17,-0.17 -10.71,-4.76 -11.22,-21.59 -0.34,0 -3.4,1.02 -3.57,-2.38 -0.17,-3.4 1.87,-9.52 4.08,-10.88 2.21,-1.36 2.89,-2.38 4.25,-5.78 C -5.61,7.31 -1.53,0.68 0,0"
             id="path310"
             style="fill:#3db54a;fill-opacity:1;fill-rule:nonzero;stroke:none" />
        </g>
        <g
           transform="translate(118.5112,1567.5078)"
           id="g312">
          <path
             d="M 0,0 C 0,0 15.726,-15.295 28.006,0.431"
             id="path314"
             style="fill:none;stroke:#3db54a;stroke-width:2.03999996;stroke-linecap:round;stroke-linejoin:round;stroke-miterlimit:10;stroke-opacity:1;stroke-dasharray:none" />
        </g>
      </g>
    </g>
  </g>
</svg>
