<?xml version="1.0" encoding="UTF-8" standalone="no"?>
<!-- Created with Inkscape (http://www.inkscape.org/) -->

<svg
   xmlns:dc="http://purl.org/dc/elements/1.1/"
   xmlns:cc="http://creativecommons.org/ns#"
   xmlns:rdf="http://www.w3.org/1999/02/22-rdf-syntax-ns#"
   xmlns:svg="http://www.w3.org/2000/svg"
   xmlns="http://www.w3.org/2000/svg"
   version="1.1"
   width="94.167503"
   height="67.499619"
   id="svg4086">
  <defs
     id="defs4088">
    <clipPath
       id="clipPath1044">
      <path
         d="m 744.107,2645.623 75.334,0 0,54 -75.334,0 0,-54 z"
         id="path1046" />
    </clipPath>
  </defs>
  <metadata
     id="metadata4091">
    <rdf:RDF>
      <cc:Work
         rdf:about="">
        <dc:format>image/svg+xml</dc:format>
        <dc:type
           rdf:resource="http://purl.org/dc/dcmitype/StillImage" />
        <dc:title></dc:title>
      </cc:Work>
    </rdf:RDF>
  </metadata>
  <g
     transform="translate(-127.20196,-507.1838)"
     id="layer1">
    <path
       d="m 215.11966,557.1838 -81.25,0 0,-46.25 81.25,0 0,46.25 z m 3.75,-50 -88.75,0 0,53.75 88.75,0 0,-53.75 z"
       id="path1034"
       style="fill:#4e5867;fill-opacity:1;fill-rule:nonzero;stroke:none" />
    <g
       transform="matrix(1.25,0,0,-1.25,219.24821,563.43342)"
       id="g1036">
      <path
         d="M 0,0 -71.601,0 -73.637,-9 1.697,-9 0,0 z"
         id="path1038"
         style="fill:#4e5867;fill-opacity:1;fill-rule:nonzero;stroke:none" />
    </g>
    <g
       transform="matrix(1.25,0,0,-1.25,-802.93159,3881.7126)"
       id="g1040">
      <g
         clip-path="url(#clipPath1044)"
         id="g1042">
        <g
           transform="translate(776.3307,2687.9944)"
           id="g1048">
          <path
             d="m 0,0 4.479,-4.447 c 0.567,-0.569 0.82,-1.251 0.757,-2.05 l -2.049,2.081 c -0.36,0.337 -0.784,0.505 -1.278,0.505 -0.494,0 -0.91,-0.168 -1.246,-0.505 -0.337,-0.335 -0.505,-0.751 -0.505,-1.245 0,-0.494 0.168,-0.909 0.505,-1.245 l 2.081,-2.082 c -0.778,-0.043 -1.45,0.221 -2.018,0.789 l -4.478,4.446 c -0.525,0.524 -0.788,1.15 -0.788,1.876 0,0.725 0.263,1.351 0.788,1.877 0.526,0.525 1.15,0.788 1.876,0.788 C -1.15,0.788 -0.525,0.525 0,0 m 12.488,-12.488 4.478,-4.447 c 0.525,-0.526 0.788,-1.151 0.788,-1.876 0,-0.726 -0.263,-1.35 -0.788,-1.877 -0.526,-0.524 -1.151,-0.787 -1.876,-0.787 -0.726,0 -1.351,0.263 -1.877,0.787 l -4.478,4.446 c -0.525,0.527 -0.789,1.157 -0.789,1.893 0,0.021 0.011,0.074 0.033,0.157 l 2.049,-2.08 c 0.336,-0.337 0.751,-0.506 1.245,-0.506 0.496,0 0.915,0.169 1.262,0.506 0.347,0.336 0.521,0.751 0.521,1.245 0,0.495 -0.179,0.91 -0.536,1.245 l -2.05,2.083 c 0.777,0.041 1.45,-0.222 2.018,-0.789 M -5.345,1.607 c -0.956,-0.946 -1.434,-2.102 -1.434,-3.468 0,-1.367 0.473,-2.534 1.419,-3.501 l 4.477,-4.447 c 0.716,-0.735 1.582,-1.187 2.602,-1.354 1.02,-0.17 1.97,-0.054 2.854,0.346 l 1.545,-1.546 c -0.399,-0.904 -0.511,-1.86 -0.33,-2.869 0.178,-1.01 0.624,-1.882 1.339,-2.617 l 4.478,-4.446 c 0.947,-0.946 2.102,-1.42 3.468,-1.42 1.367,0 2.529,0.474 3.486,1.42 0.956,0.946 1.434,2.102 1.434,3.467 0,1.367 -0.483,2.535 -1.451,3.501 l -4.446,4.447 c -0.736,0.736 -1.608,1.188 -2.617,1.356 -1.009,0.168 -1.965,0.052 -2.869,-0.347 l -1.514,1.545 c 0.399,0.904 0.508,1.86 0.331,2.869 -0.179,1.01 -0.636,1.881 -1.372,2.618 L 1.609,1.607 c -0.947,0.946 -2.102,1.419 -3.469,1.419 -1.366,0 -2.529,-0.473 -3.485,-1.419"
             id="path1050"
             style="fill:#61ac46;fill-opacity:1;fill-rule:nonzero;stroke:none" />
        </g>
      </g>
    </g>
  </g>
</svg>
