<?xml version="1.0" encoding="UTF-8" standalone="no"?>
<!-- Created with Inkscape (http://www.inkscape.org/) -->

<svg
   xmlns:dc="http://purl.org/dc/elements/1.1/"
   xmlns:cc="http://creativecommons.org/ns#"
   xmlns:rdf="http://www.w3.org/1999/02/22-rdf-syntax-ns#"
   xmlns:svg="http://www.w3.org/2000/svg"
   xmlns="http://www.w3.org/2000/svg"
   version="1.1"
   width="143.23924"
   height="148.06177"
   id="svg4372">
  <defs
     id="defs4374">
    <clipPath
       id="clipPath320">
      <path
         d="m 518,1525.371 116.752,0 0,120.277 -116.752,0 0,-120.277 z"
         id="path322" />
    </clipPath>
  </defs>
  <metadata
     id="metadata4377">
    <rdf:RDF>
      <cc:Work
         rdf:about="">
        <dc:format>image/svg+xml</dc:format>
        <dc:type
           rdf:resource="http://purl.org/dc/dcmitype/StillImage" />
        <dc:title></dc:title>
      </cc:Work>
    </rdf:RDF>
  </metadata>
  <g
     transform="translate(-303.38037,-458.33134)"
     id="layer1">
    <g
       transform="matrix(1.25,0,0,-1.25,-346.81988,2513.1076)"
       id="g316">
      <g
         clip-path="url(#clipPath320)"
         id="g318">
        <g
           transform="translate(520.1826,1525.3716)"
           id="g324">
          <path
             d="m 0,0 c 0,0 -2.183,19.368 36.553,30.006 -0.273,0.273 21.55,-16.095 21.55,-16.095 l 19.368,15.823 c 0,0 35.462,-8.456 37.098,-28.916 C 114.297,1.091 0,0 0,0"
             id="path326"
             style="fill:#3db54a;fill-opacity:1;fill-rule:nonzero;stroke:none" />
        </g>
        <g
           transform="translate(569.1263,1642.4689)"
           id="g328">
          <path
             d="m 0,0 c 0,0 3.814,3.179 6.147,-0.212 0,0 6.145,3.391 8.054,-1.06 0.423,0.212 5.934,1.696 6.994,-2.331 -0.212,0 5.934,1.059 6.994,-4.875 -0.212,0 7.207,0.212 6.571,-6.783 0,-0.211 4.662,-1.483 2.543,-6.781 0,-0.424 4.662,-2.968 1.059,-6.995 0,-0.212 4.24,-3.815 0,-6.994 0.636,-0.636 4.027,-5.086 0.424,-7.206 -0.635,-0.212 -0.848,-2.967 -4.451,-1.272 0.213,-1.059 -2.119,-2.755 -3.179,-4.45 -1.059,-1.696 -2.967,-1.696 -1.484,2.331 0,2.119 1.695,13.988 0,16.956 -1.695,2.967 -3.391,2.967 -5.298,0.847 -1.908,-2.119 -4.028,-3.392 -6.147,-2.967 0.425,-0.212 1.061,-1.696 -3.391,-1.908 0.636,-0.635 -3.603,-0.424 -4.663,-0.635 0,0 -1.483,-1.484 -4.662,-1.06 0,0.212 -3.179,-0.636 -5.087,0.848 0.635,-0.424 -1.696,-1.272 -3.603,0.212 0.212,0.424 -4.875,-1.272 -6.146,2.967 0,-1.272 -2.544,-0.848 -2.967,1.059 -0.637,-0.423 -3.392,-0.635 -3.392,-0.635 0,0 -0.211,-5.51 0.424,-8.266 0.636,-2.755 1.695,-8.478 2.331,-9.114 0.637,-0.635 0.425,-3.603 -1.695,-2.331 -2.12,1.271 -2.544,3.602 -2.331,4.662 -0.637,0.213 0,1.06 -1.484,1.908 0.212,-0.212 -2.755,-1.696 -3.816,0 0.637,-0.424 -3.814,-0.424 -2.331,4.027 -0.423,0.848 -2.331,3.603 -1.059,6.358 -0.636,-0.211 -0.424,4.663 0.423,5.935 0,0 -2.119,3.603 1.696,5.934 0,0 -2.331,4.239 2.755,5.511 0.425,0.212 -0.635,7.63 6.147,6.994 -0.212,-0.212 1.272,5.299 6.146,4.663 -0.636,0 0.848,4.027 5.299,3.603 C -3.603,-0.848 -2.967,1.695 0,0"
             id="path330"
             style="fill:#3db54a;fill-opacity:1;fill-rule:nonzero;stroke:none" />
        </g>
        <g
           transform="translate(547.7202,1598.1721)"
           id="g332">
          <path
             d="m 0,0 c 0,0 -0.636,-13.14 6.57,-12.717 0,-0.212 6.358,-22.466 22.466,-22.466 16.108,0 20.241,20.029 22.466,22.254 0,0 3.816,1.06 4.664,11.657 l -0.213,0.636"
             id="path334"
             style="fill:none;stroke:#3db54a;stroke-width:1.98000002;stroke-linecap:round;stroke-linejoin:round;stroke-miterlimit:10;stroke-opacity:1;stroke-dasharray:none" />
        </g>
        <g
           transform="translate(557.1155,1554.5128)"
           id="g336">
          <path
             d="M 0,0 C 0,0 6.865,1.057 6.229,14.41"
             id="path338"
             style="fill:none;stroke:#3db54a;stroke-width:1.98000002;stroke-linecap:round;stroke-linejoin:round;stroke-miterlimit:10;stroke-opacity:1;stroke-dasharray:none" />
        </g>
        <g
           transform="translate(598.1476,1554.0243)"
           id="g340">
          <path
             d="M 0,0 C 0,0 -6.293,2.433 -6.716,15.997"
             id="path342"
             style="fill:none;stroke:#3db54a;stroke-width:1.98000002;stroke-linecap:round;stroke-linejoin:round;stroke-miterlimit:10;stroke-opacity:1;stroke-dasharray:none" />
        </g>
      </g>
    </g>
  </g>
</svg>
