<svg xmlns="http://www.w3.org/2000/svg" width="391.933" height="110.551" xmlns:xlink="http://www.w3.org/1999/xlink" viewBox="0 0 391.933 110.551">
  <g transform="translate(-22.677 -22.68)">
    <defs>
      <path id="a" d="M22.677 22.68H414.61v110.55H22.678z"/>
    </defs>
    <clipPath id="b">
      <use width="100%" height="100%" xlink:href="#a" overflow="visible"/>
    </clipPath>
    <path fill="#3ba933" d="M280.218 100.515v8.008c0 .866.244 1.385.73 1.566.273.1.657.15 1.155.15v.82H277.5v-.83h.108c.495 0 .846-.09 1.06-.27.26-.2.39-.56.39-1.07v-9.73c-.403-.31-.91-.47-1.525-.47v-.83h3.92l7.763 9.03v-6.41c0-.96-.22-1.52-.65-1.67-.253-.09-.64-.14-1.16-.14h-.186v-.83h4.9v.82h-.187c-.494 0-.845.05-1.058.14-.333.16-.5.47-.5.93v11.35h-1.05l-9.107-10.62zm-17.71 3.155c0 2.003.423 3.64 1.262 4.906.824 1.254 1.91 1.883 3.26 1.883 1.67 0 2.82-.91 3.455-2.72.282-.84.425-1.76.425-2.76 0-1.82-.38-3.36-1.14-4.61-.805-1.33-1.896-1.99-3.268-1.99-1.647 0-2.81.83-3.493 2.5-.34.81-.5 1.73-.5 2.77m-2.84 1.02c0-2.09.68-3.82 2.04-5.18 1.36-1.36 3.11-2.04 5.24-2.04 2 0 3.63.63 4.89 1.88 1.26 1.25 1.89 2.87 1.89 4.86 0 1.51-.38 2.86-1.14 4.04-.75 1.16-1.76 2.01-3.03 2.53-.9.38-1.89.57-2.98.57-1.27 0-2.43-.26-3.47-.79-1.15-.59-2.03-1.44-2.64-2.55-.55-1.01-.83-2.13-.83-3.33m-9.8-5.98v-.83h6.04v.82h-.32c-.97 0-1.45.53-1.45 1.59v8.39c0 .57.11.97.35 1.2.23.23.61.34 1.13.34h.28v.82h-6.05v-.83h.27c.92 0 1.38-.49 1.38-1.46v-8.48c0-.57-.11-.98-.32-1.23-.21-.25-.58-.37-1.09-.37h-.25zm-8.37.27v9.66c0 .62.13 1.05.4 1.28.23.2.65.3 1.24.3h.46v.83h-6.84v-.82h.64c.97 0 1.46-.53 1.46-1.59v-9.66h-2.25c-.46 0-.78.03-.98.1-.33.11-.55.34-.69.7-.13.32-.26.89-.39 1.69h-.78l.34-3.97h.61c.17.18.3.28.36.3.13.04.31.06.55.06h9.05c.37 0 .67-.12.91-.36h.62l.34 3.97h-.78c-.11-.66-.19-1.09-.25-1.31-.16-.54-.39-.89-.68-1.02-.24-.11-.62-.17-1.13-.17h-2.23zM224.86 105l-1.745-4.954L221.52 105h3.344zm.436 1.17h-4.16l-.8 2.483c-.19.586-.2 1-.025 1.232.17.23.68.352 1.53.352h.25v.824h-5.04v-.82h.29c.52 0 .93-.19 1.24-.57.22-.27.43-.73.63-1.37l3.25-10.11-.2-.62h2.82l3.8 10.78c.23.64.45 1.08.67 1.34.3.34.71.53 1.23.57v.83h-6.18v-.82h.67c.56 0 .91-.14 1.05-.41.14-.26.11-.66-.09-1.21l-.9-2.45zm-21.59-7.46v9.898c0 .707.092 1.152.29 1.336.194.186.65.275 1.36.275 1.94 0 3.36-.63 4.27-1.9.74-1.05 1.11-2.34 1.11-3.9 0-1.82-.47-3.26-1.41-4.31-.9-1.02-2.29-1.52-4.14-1.52-.53 0-1.02.03-1.48.1m-4.39 0v-.83c.45-.03.9-.05 1.35-.08l.92-.05c.064 0 .33-.02.796-.05 1.01-.07 1.88-.11 2.6-.11 2.47 0 4.27.29 5.39.85 1.33.67 2.26 1.75 2.795 3.23.27.76.41 1.58.41 2.46 0 1.85-.59 3.44-1.767 4.75-1.292 1.44-3.443 2.16-6.45 2.16h-6.044v-.82c.61 0 1.03-.08 1.27-.24.33-.21.5-.63.5-1.24v-8.19c0-.96-.22-1.54-.65-1.72-.25-.09-.63-.15-1.12-.15m-14.99 1.8v8.01c0 .87.24 1.39.73 1.57.27.1.652.15 1.15.15v.83H181.6v-.83h.11c.494 0 .846-.09 1.058-.27.26-.2.394-.56.394-1.07v-9.73c-.4-.31-.91-.47-1.523-.47v-.83h3.92l7.76 9.03v-6.4c0-.96-.22-1.52-.65-1.67-.26-.09-.64-.136-1.16-.136h-.19v-.826h4.9v.82h-.19c-.5 0-.85.05-1.06.15-.33.16-.5.47-.5.934v11.34h-1.05l-9.11-10.62zm-10.52-1.8v-.83h4.93v.83h-.14c-.614 0-1.05.12-1.317.36-.29.27-.43.73-.43 1.4v5.27c0 1.87-.48 3.29-1.42 4.24-.91.92-2.22 1.38-3.92 1.38-1.62 0-2.91-.36-3.88-1.08-1.15-.84-1.72-2.11-1.72-3.82v-6.33c0-.56-.1-.94-.29-1.14-.2-.2-.54-.3-1.04-.3h-.33v-.83h5.95v.82h-.33c-.9 0-1.35.48-1.35 1.44v6.32c0 1.57.58 2.62 1.74 3.13.51.23 1.08.34 1.7.34 1.15 0 2.05-.33 2.7-.98.69-.69 1.03-1.66 1.03-2.92v-5.16c0-1.01-.22-1.66-.64-1.96-.23-.15-.54-.23-.93-.23h-.34zm-24.17 4.95c0 2 .42 3.64 1.26 4.9.82 1.25 1.91 1.88 3.26 1.88 1.67 0 2.82-.91 3.45-2.72.285-.84.428-1.75.428-2.76 0-1.82-.38-3.35-1.14-4.6-.808-1.32-1.898-1.98-3.27-1.98-1.648 0-2.81.83-3.49 2.5-.334.81-.5 1.73-.5 2.77m-2.84 1.02c0-2.09.68-3.81 2.05-5.17 1.36-1.36 3.11-2.04 5.24-2.04 2 0 3.63.63 4.892 1.88 1.267 1.254 1.897 2.87 1.897 4.86 0 1.51-.38 2.86-1.14 4.043-.74 1.16-1.75 2.01-3.023 2.54-.89.38-1.88.57-2.98.57-1.27 0-2.42-.26-3.46-.79-1.15-.58-2.028-1.44-2.637-2.55-.55-1.02-.82-2.13-.82-3.34M137 99.06v4.77h2.645c.84 0 1.347-.204 1.513-.613.094-.22.14-.533.14-.94h.763v4.224h-.76c0-1.01-.43-1.52-1.31-1.52H137v3.42c0 .96.158 1.52.472 1.7.175.1.442.15.8.15h.36v.83h-5.68v-.82h.304c.41 0 .7-.09.867-.27.164-.18.25-.49.25-.94v-8.58c0-.59-.067-1-.197-1.25-.176-.34-.506-.51-.98-.51h-.242v-.81h9.6v2.99h-.69c-.03-.61-.104-1.05-.22-1.28-.174-.36-.5-.53-.977-.53H137z" clip-path="url(#b)"/>
    <path fill="#464749" d="M395.892 76.243c-.102 0-.203-.033-.203-.203v-.61c0-4.365 0-5.416.06-6.33.07-1.016.3-1.422 1.12-1.557.34-.07.61-.102.84-.102.37 0 .54-.1.54-.3 0-.2-.21-.27-.61-.27-1.19 0-3.25.07-3.96.07-.81 0-2.78-.06-4.37-.06-.41 0-.65.07-.65.27 0 .21.2.31.51.31.44 0 .94.04 1.18.11.95.27 1.22.58 1.28 1.56.03.91.03 1.73.03 6.09v5.08c0 2.64 0 4.91-.14 6.13-.1.85-.27 1.39-.88 1.52-.27.07-.61.11-1.05.11-.37 0-.47.17-.47.31 0 .21.2.31.57.31 1.18 0 3.15-.1 3.82-.1.84 0 2.91.1 4.84.1.37 0 .61-.1.61-.31 0-.13-.14-.3-.48-.3-.44 0-1.12-.03-1.52-.1-.88-.13-1.05-.68-1.15-1.49-.14-1.25-.17-3.45-.17-6.09v-2.2c0-.13.1-.17.2-.17h11.24c.07 0 .17.07.17.17v2.2c0 2.64 0 4.84-.14 6.06-.1.85-.27 1.39-.88 1.53-.27.07-.61.11-1.08.11-.34 0-.48.17-.48.31 0 .21.23.31.64.31 1.15 0 3.25-.1 3.92-.1.81 0 2.77.1 4.7.1.37 0 .61-.1.61-.31 0-.13-.17-.3-.48-.3-.48 0-1.12-.03-1.53-.1-.91-.13-1.08-.67-1.188-1.49-.134-1.25-.134-3.52-.134-6.16v-5.1c0-4.36 0-5.18.07-6.09.07-1.01.31-1.42 1.084-1.55.37-.07.64-.1.88-.1.34 0 .54-.1.54-.3 0-.2-.204-.27-.644-.27-1.15 0-3.12.07-3.83.07-.78 0-2.88-.07-4.47-.07-.44 0-.646.06-.646.27 0 .2.17.3.51.3.41 0 .92.03 1.153.1.95.27 1.22.57 1.29 1.55.04.91.07 1.96.07 6.33v.61c0 .17-.1.2-.17.2h-11.23zm-21.666 4.028c0 2.65 0 4.91-.134 6.13-.102.85-.27 1.39-.88 1.52-.238.07-.61.11-1.05.11-.373 0-.475.17-.475.31 0 .21.204.31.576.31 1.185 0 3.215-.1 3.893-.1.846 0 2.843.1 4.807.1.338 0 .575-.1.575-.31 0-.13-.134-.3-.474-.3-.44 0-1.117-.03-1.522-.1-.88-.13-1.05-.67-1.15-1.49-.137-1.25-.17-3.52-.17-6.16V68.63l3.756.068c2.676.034 3.454.915 3.52 1.657l.035.305c.033.44.102.576.338.576.17 0 .24-.17.28-.473 0-.744.07-2.877.07-3.484 0-.44-.03-.61-.23-.61-.1 0-.34.06-.81.13-.44.07-1.08.13-2.03.13h-12.09c-.98 0-2.1-.04-2.98-.14-.74-.1-1.05-.34-1.28-.34-.17 0-.27.17-.34.54-.06.24-.64 3.01-.64 3.49 0 .3.07.47.27.47s.27-.14.34-.38c.07-.21.2-.58.51-.98.44-.65 1.15-.85 2.88-.89l4.43-.11v11.64zm-22.104-11.4c0-.23.067-.33.27-.4.306-.06 1.018-.1 1.762-.1 1.76 0 4.535 1.05 4.535 5.12 0 2.37-1.02 3.62-1.93 4.27-.51.37-.92.48-2.1.48-.75 0-1.63-.06-2.27-.27-.21-.1-.27-.2-.27-.51v-8.57zm-3.79 11.41c0 2.64 0 4.91-.137 6.13-.103.85-.27 1.39-.88 1.52-.272.07-.61.11-1.05.11-.373 0-.474.17-.474.31 0 .21.21.31.58.31 1.19 0 3.08-.1 3.66-.1.44 0 2.92.1 4.64.1.37 0 .61-.1.61-.31 0-.13-.13-.3-.37-.3-.37 0-1.01-.03-1.45-.1-.91-.13-1.05-.67-1.15-1.52-.13-1.22-.17-3.45-.17-6.13v-.4c0-.17.1-.23.24-.23l2.68.07c.21 0 .37.04.54.21.38.44 1.63 2.37 2.81 3.93 1.66 2.23 2.78 3.59 4.07 4.23.78.41 1.59.58 3.25.58h2.85c.37 0 .58-.06.58-.31 0-.13-.13-.3-.37-.3s-.4 0-.71-.07c-.47-.1-1.52-.23-3.18-1.89-1.79-1.79-3.89-4.4-6.53-7.65 2.91-2.33 4.13-4.23 4.13-6.36 0-1.93-1.25-3.38-2.1-3.96-1.59-1.05-3.76-1.22-5.65-1.22-.91 0-3.62.07-4.64.07-.61 0-2.5-.06-4.06-.06-.44 0-.67.07-.67.27s.2.31.51.31c.44 0 .94.04 1.18.11.95.27 1.22.58 1.29 1.56.03.92.03 1.73.03 6.1v5.07zm-16.825 7.18c-5.62 0-9.005-4.67-9.005-10.59 0-7.1 3.892-8.86 7.21-8.86 4.807 0 8.632 3.93 8.632 10.29 0 8.2-4.74 9.18-6.837 9.18m-1.22 1.57c7.686 0 12.492-5.18 12.492-11.78s-4.68-10.76-12.19-10.76c-9.04 0-12.49 6.37-12.49 11.27 0 5.11 3.52 11.28 12.18 11.28M292.57 88c.27.75.44 1.057.81 1.057.44 0 .61-.34 1.15-1.53 1.21-2.64 5.21-12.83 5.72-14.05h.07l6.05 14.19c.44 1.056.64 1.395 1.05 1.395.44 0 .61-.34.94-1.36 1.45-4.3 4.5-13.44 5.89-17.06.61-1.66.95-2.742 1.66-3.012.34-.103.74-.135 1.05-.135.27 0 .4-.135.4-.34 0-.17-.21-.234-.54-.234-.98 0-2.27.07-2.47.07-.28 0-1.63-.06-3.19-.06-.476 0-.71.07-.71.27 0 .17.234.31.506.31 1.186 0 1.456.34 1.456.81 0 .4-.106.98-.31 1.66-1.05 3.35-3.316 10.94-3.89 12.6h-.105l-5.96-14.22c-.373-.91-.645-1.35-.98-1.35-.27 0-.576.23-.88 1.05l-5.68 14.7h-.1c-.44-1.32-3.15-10.04-3.66-11.93-.37-1.32-.64-2.27-.64-2.64 0-.31.03-.47.3-.58.233-.07.51-.1.74-.1.305 0 .54-.1.54-.3 0-.21-.202-.27-.642-.27-1.724 0-3.18.06-3.45.06s-1.93-.07-3.45-.07c-.45 0-.687.07-.687.27 0 .21.17.31.475.31.27 0 .85.03 1.15.24.44.27.676.94 1.05 1.99L292.53 88zm-23.05-7.69c0 2.64 0 4.91-.14 6.13-.1.845-.27 1.387-.88 1.52-.27.07-.61.105-1.05.105-.37 0-.48.168-.48.303 0 .205.2.31.58.31.61 0 1.35-.03 2.06-.063.71 0 1.35-.04 1.69-.04.88 0 1.99.04 3.45.07 1.452.067 3.25.1 5.48.1 1.12 0 1.39 0 1.59-.75.17-.575.41-2.54.41-3.18 0-.307-.04-.68-.27-.68-.21 0-.277.137-.34.44-.21 1.186-.54 1.795-1.29 2.133-.78.333-2.03.37-2.81.37-3.05 0-3.96-.44-4.03-2.406-.034-.846 0-3.283 0-4.265v-2.3c0-.17.03-.31.17-.31.743 0 4.13.065 4.67.133 1.116.1 1.49.54 1.657 1.118.066.37.066.745.1 1.05 0 .136.067.237.27.237.272 0 .306-.406.306-.644 0-.2.07-1.35.135-1.93.17-1.45.234-1.93.234-2.1 0-.17-.105-.3-.24-.3-.14 0-.24.17-.48.37-.27.31-.71.38-1.42.44-.672.07-4.53.07-5.21.07-.17 0-.202-.14-.202-.3V68.8c0-.17.07-.27.2-.27.61 0 4.165.064 4.67.133 1.49.133 1.73.54 1.966 1.05.17.334.204.843.204 1.05 0 .233.034.37.237.37.24 0 .31-.34.34-.476.07-.34.14-1.59.17-1.896.07-1.32.24-1.66.24-1.86 0-.13-.037-.27-.206-.27-.14 0-.31.1-.48.14-.23.04-.71.14-1.25.17-.57.04-7.18 0-8.12 0-.85 0-2.74-.07-4.3-.07-.44 0-.68.07-.68.27 0 .21.21.31.51.31.44 0 .95.04 1.19.11.95.27 1.22.58 1.29 1.56.03.92.03 1.73.03 6.1v5.08zm-14.69-5.08c0-4.367 0-5.18.06-6.094.06-1.02.3-1.425 1.11-1.56.34-.07.81-.1 1.15-.1.37 0 .54-.104.54-.308 0-.21-.21-.27-.65-.27-1.15 0-3.584.06-4.3.06-.81 0-2.7-.065-4.09-.065-.44 0-.646.065-.646.27 0 .203.17.305.51.305.37 0 .743.03.98.1.947.27 1.22.577 1.285 1.56.03.913.03 1.726.03 6.093v5.08c0 2.64 0 4.91-.14 6.13-.1.85-.27 1.39-.88 1.52-.27.07-.61.11-1.05.11-.37 0-.48.17-.48.3 0 .2.2.31.58.31.61 0 1.35-.03 2.06-.06.71 0 1.35-.04 1.69-.04 1.21 0 2.47.04 3.96.08 1.49.07 3.21.1 5.34.1 1.56 0 1.69-.13 1.89-.78.24-.84.44-2.98.44-3.31 0-.34-.07-.64-.27-.64-.24 0-.31.17-.34.44-.07.54-.37 1.36-.74 1.73-.75.78-1.9.81-3.49.81-2.3 0-3.45-.17-3.96-.61-.64-.54-.64-2.36-.64-6.06v-5.1zm-21.46 5.08c0 2.64 0 4.91-.14 6.13-.1.844-.27 1.386-.88 1.52-.24.07-.61.104-1.05.104-.37 0-.48.17-.48.304 0 .204.2.31.57.31 1.18 0 3.21-.1 3.89-.1.84 0 2.84.1 4.8.1.34 0 .573-.105.573-.31 0-.134-.13-.302-.47-.302-.44 0-1.12-.032-1.523-.102-.88-.13-1.05-.672-1.15-1.49-.134-1.25-.17-3.52-.17-6.16V68.63l3.76.065c2.674.034 3.453.915 3.52 1.657l.034.3c.034.44.1.575.34.575.168 0 .236-.17.27-.475 0-.744.066-2.877.066-3.484 0-.44-.03-.61-.235-.61-.105 0-.34.068-.815.137-.44.068-1.08.135-2.03.135h-12.08c-.98 0-2.1-.033-2.98-.135-.74-.1-1.05-.338-1.28-.338-.17 0-.27.167-.34.54-.07.237-.645 3.013-.645 3.487 0 .304.07.475.27.475s.27-.14.34-.38c.066-.21.2-.58.51-.98.44-.65 1.15-.85 2.875-.89l4.44-.1v11.65zm-21.43 0c0 2.64 0 4.91-.14 6.13-.11.844-.27 1.386-.88 1.52-.24.07-.61.104-1.05.104-.37 0-.48.17-.48.304 0 .204.2.31.57.31 1.18 0 3.21-.1 3.89-.1.84 0 2.84.1 4.8.1.34 0 .574-.105.574-.31 0-.134-.13-.302-.473-.302-.44 0-1.12-.032-1.52-.102-.88-.13-1.05-.672-1.15-1.49-.14-1.25-.17-3.52-.17-6.16V68.63l3.75.065c2.68.034 3.46.915 3.52 1.657l.04.3c.04.44.11.575.34.575.17 0 .24-.17.27-.475 0-.744.07-2.877.07-3.484 0-.44-.03-.61-.23-.61-.1 0-.34.068-.81.137-.44.068-1.08.135-2.03.135h-12.08c-.98 0-2.09-.033-2.97-.135-.74-.1-1.05-.338-1.28-.338-.17 0-.27.167-.34.54-.06.237-.64 3.013-.64 3.487 0 .304.07.475.27.475.21 0 .27-.14.34-.38.07-.21.21-.58.51-.98.44-.65 1.15-.85 2.88-.89l4.44-.1v11.65zm-30.98-.846c0 4.164 1.18 6.297 2.71 7.617 2.16 1.91 5.24 1.97 6.8 1.97 1.93 0 4.19-.3 6.29-2.07 2.5-2.06 2.84-5.45 2.84-8.66v-3.1c0-4.37.03-5.18.06-6.09.065-1.01.27-1.42 1.082-1.55.37-.07.54-.11.88-.11.34 0 .507-.1.507-.31 0-.2-.2-.27-.61-.27-1.15 0-3.15.07-3.48.07-.03 0-2.03-.06-3.55-.06-.41 0-.61.07-.61.27 0 .21.17.31.51.31.34 0 .85.03 1.08.1.94.27 1.18.57 1.25 1.56.03.91.07 1.73.07 6.09v3.62c0 2.95-.07 5.45-1.73 7.01-1.19 1.15-2.71 1.52-4 1.52-1.02 0-2.44-.1-3.76-1.15-1.45-1.15-2.27-2.77-2.27-6.97V75.2c0-4.366 0-5.18.06-6.093.07-1.017.3-1.423 1.08-1.558.37-.07.54-.11.88-.11.31 0 .47-.1.47-.31s-.21-.27-.65-.27c-1.09 0-3.08.06-3.83.06-.88 0-2.88-.07-4.47-.07-.44 0-.65.06-.65.27 0 .2.17.3.51.3.4 0 .91.03 1.15.1.94.27 1.22.54 1.29 1.56.06.91.03 1.72.03 6.09v4.23zm-23.86-3.2c-.11 0-.21-.033-.21-.203v-.61c0-4.36 0-5.41.06-6.33.07-1.01.3-1.42 1.113-1.55.34-.07.61-.1.846-.1.37 0 .54-.1.54-.3 0-.2-.21-.27-.61-.27-1.19 0-3.25.07-3.96.07-.82 0-2.78-.06-4.37-.06-.41 0-.65.07-.65.27 0 .21.21.31.51.31.44 0 .95.04 1.19.11.95.27 1.22.58 1.29 1.56.04.92.04 1.73.04 6.1v5.07c0 2.64 0 4.91-.14 6.13-.1.84-.27 1.39-.88 1.52-.27.07-.61.1-1.05.1-.37 0-.48.17-.48.31 0 .21.2.31.57.31 1.19 0 3.15-.1 3.82-.1.85 0 2.91.1 4.84.1.38 0 .61-.1.61-.31 0-.13-.13-.3-.47-.3-.43 0-1.11-.03-1.52-.1-.88-.13-1.05-.67-1.15-1.49-.13-1.26-.17-3.46-.17-6.1v-2.2c0-.14.1-.17.21-.17h11.23c.07 0 .17.07.17.17v2.2c0 2.64 0 4.84-.14 6.06-.1.85-.27 1.39-.88 1.52-.27.07-.61.11-1.09.11-.334 0-.47.17-.47.3 0 .2.24.31.645.31 1.15 0 3.25-.1 3.93-.1.815 0 2.78.1 4.71.1.37 0 .61-.11.61-.31 0-.13-.17-.3-.48-.3-.475 0-1.117-.03-1.525-.1-.91-.14-1.08-.68-1.18-1.49-.14-1.25-.14-3.52-.14-6.16v-5.08c0-4.37 0-5.18.067-6.1.07-1.02.3-1.42 1.08-1.56.37-.07.64-.1.88-.1.34 0 .54-.1.54-.31 0-.2-.205-.27-.645-.27-1.15 0-3.11.07-3.824.07-.78 0-2.88-.06-4.47-.06-.44 0-.64.07-.64.27 0 .21.17.31.51.31.41 0 .92.03 1.15.1.95.27 1.22.58 1.29 1.56.032.92.07 1.97.07 6.33v.61c0 .17-.1.21-.17.21H157.1zm-18.58 12.76c1.59 0 3.55-.17 4.97-1.19 2.16-1.523 2.98-3.25 2.98-5.383 0-2.6-1.22-4.8-5.15-6.97l-1.22-.67c-2.676-1.49-3.15-2.5-3.15-3.79 0-1.96 1.93-3.08 4.06-3.08 1.93 0 2.88.81 3.32 1.35.64.75.78 1.63.78 1.9 0 .34.1.51.302.51.23 0 .37-.3.37-.91 0-2.27.1-3.09.1-3.46 0-.21-.137-.31-.407-.38-.78-.2-2.303-.47-4.23-.47-4.13 0-7.516 2.27-7.516 5.79 0 2.54 1.15 4.47 4.67 6.54l1.72 1.02c2.64 1.56 2.94 2.81 2.94 4.06 0 2.03-1.56 3.66-4.13 3.66-1.86 0-4.1-.71-4.74-2.84-.17-.51-.27-1.11-.27-1.49 0-.2-.04-.47-.31-.47-.24 0-.37.31-.37.75-.04.47-.17 2.27-.17 3.82 0 .65.1.78.57.98 1.28.59 3.11.76 4.84.76" clip-path="url(#b)"/>
    <path fill="#3ba933" d="M55.353 45.237C37.82 53.62 26.938 69.517 27.543 84c.485 11.613 9.5 26.01 24.403 34.875-18.228.556-29.068-21.655-28.62-32.42-2.6 12.52 1.938 36.145 25.966 44.68 7.916 2.81 22.713 3.245 29.32-1.515 11.424-8.228 6.825-19.558-2.578-27.276-10.89-8.94-20.444-14.856-25.935-26.988-3.73-8.235-5.08-18.506 5.25-30.12" clip-path="url(#b)"/>
    <path fill="#80bd26" d="M64.7 83.957c-15.43-15.813-12.207-26.504-2.34-40.205 4.595-6.38 9.13-12.755 8.367-21.073 23.483 25.07 1.52 33.25 13.053 46.08 1.637-7.08 6.618-14.48 13.57-19.8-1.93 19.91 4.64 20.54 10.417 32.81 8.91 18.92-3.418 39.92-21.816 48.67 7.81-7.67 8.62-18.21-.57-28.58-4.68-5.28-13.16-10.23-20.67-17.92" clip-path="url(#b)"/>
  </g>
</svg>
