<?xml version="1.0" encoding="utf-8"?>
<!-- Generator: Adobe Illustrator 15.0.0, SVG Export Plug-In . SVG Version: 6.00 Build 0)  -->
<!DOCTYPE svg PUBLIC "-//W3C//DTD SVG 1.1//EN" "http://www.w3.org/Graphics/SVG/1.1/DTD/svg11.dtd">
<svg version="1.1" id="Layer_1" xmlns="http://www.w3.org/2000/svg" xmlns:xlink="http://www.w3.org/1999/xlink" x="0px" y="0px"
	 width="841.9px" height="595.3px" viewBox="0 0 841.9 595.3" style="enable-background:new 0 0 841.9 595.3;" xml:space="preserve"
	>
<style type="text/css">
<![CDATA[
	.st0{fill:#4D857C;}
	.st1{fill:#FFFFFF;}
	.st2{fill:none;}
	.st3{clip-path:url(#SVGID_2_);fill:#FFFFFF;}
	.st4{clip-path:url(#SVGID_2_);fill:none;stroke:#FFFFFF;stroke-width:3.615;}
]]>
</style>
<rect x="12.8" y="48.2" class="st0" width="816.2" height="498.9"/>
<g>
	<defs>
		<rect id="SVGID_1_" width="841.9" height="595.3"/>
	</defs>
	<clipPath id="SVGID_2_">
		<use xlink:href="#SVGID_1_"  style="overflow:visible;"/>
	</clipPath>
	<path class="st3" d="M593.1,276.6h-14.7v-17.4h14.7V276.6z M566.3,276.6h-14.7v-17.4h14.7V276.6z M539.5,276.6h-14.7v-17.4h14.7
		V276.6z M497.2,216c-0.3-1.6-0.9-3-1.6-4.3c-0.7-1.3-1.7-2.4-2.8-3.2c-1.2-0.9-2.6-1.3-4.2-1.3c-3.9,0-6.7,2.2-8.4,6.5
		c-1.7,4.3-2.6,11.5-2.6,21.4c0,4.8,0.1,9.1,0.4,12.9c0.3,3.9,0.8,7.2,1.6,9.9c0.8,2.7,1.9,4.8,3.3,6.3c1.5,1.5,3.3,2.2,5.6,2.2
		c1,0,2-0.3,3.2-0.8c1.2-0.5,2.2-1.3,3.2-2.3c1-1,1.8-2.4,2.5-4c0.7-1.6,1-3.5,1-5.6v-8.1H488v-11.8h26v43h-11.8v-7.4h-0.2
		c-1.9,3.1-4.3,5.3-7,6.6c-2.7,1.3-6,2-9.8,2c-4.9,0-8.9-0.9-12-2.6c-3.1-1.7-5.5-4.4-7.3-7.9c-1.7-3.6-2.9-8-3.5-13.2
		c-0.6-5.2-0.9-11.3-0.9-18.3c0-6.7,0.4-12.6,1.3-17.6c0.9-5.1,2.3-9.3,4.4-12.7c2.1-3.4,4.8-5.9,8.3-7.6c3.4-1.7,7.7-2.6,12.8-2.6
		c8.8,0,15.1,2.2,19,6.5c3.9,4.4,5.8,10.6,5.8,18.7h-15.4C497.7,219.1,497.5,217.6,497.2,216 M436.2,251.5h0.2v-54.6h14.7v79.7
		h-18.3l-19.6-55.8H413v55.8h-14.7v-79.7h18.5L436.2,251.5z M370.2,196.9h16.1v79.7h-16.1V196.9z M325.6,228.8h0.2l20.3-31.9h17.4
		l-21.7,34.2l24.1,45.5h-18.1l-16.4-32.7l-5.9,9v23.7h-16.1v-79.7h16.1V228.8z M283.4,251.5h0.2v-54.6h14.7v79.7H280l-19.6-55.8
		h-0.2v55.8h-14.7v-79.7h18.5L283.4,251.5z M217.4,196.9h16.1v79.7h-16.1V196.9z M170.6,196.9v30.5h18.8v-30.5h16.1v79.7h-16.1
		v-35.4h-18.8v35.4h-16.1v-79.7H170.6z M147.6,210.1h-17.4v66.5h-16.1v-66.5H96.7v-13.2h50.9V210.1z"/>
	<path class="st3" d="M370.5,397c0.7,2.4,1.1,4.8,1.1,7.1c0,2.3-0.4,4.7-1.1,7.1c-0.7,2.4-1.9,4.9-3.5,7.5h-3.5
		c0.7-1.2,1.2-2.4,1.7-3.6c0.5-1.2,0.9-2.3,1.2-3.5s0.5-2.3,0.6-3.5c0.1-1.2,0.2-2.5,0.2-3.9c0-1.4-0.1-2.7-0.2-3.9
		c-0.1-1.2-0.3-2.4-0.6-3.6c-0.3-1.2-0.7-2.3-1.2-3.5c-0.5-1.2-1.1-2.4-1.7-3.6h3.5C368.6,392.1,369.8,394.6,370.5,397 M363.2,393.3
		h-5.1v19.4h-4.7v-19.4h-5.1v-3.8h14.8V393.3z M341.9,405.4L341.9,405.4l0.1-15.9h4.3v23.2H341l-5.7-16.3h-0.1v16.3h-4.3v-23.2h5.4
		L341.9,405.4z M328.2,393.3h-8.3v5.5h7.8v3.8h-7.8v6.3h8.6v3.8h-13.3v-23.2h13V393.3z M307,389.5h4.7v23.2H307V389.5z M304.8,393.3
		h-5.1v19.4H295v-19.4h-5.1v-3.8h14.8V393.3z M279.4,389.5l-6.2,23.2h4.9l1.1-4.9h6.2l1.1,4.9h4.9l-6.2-23.2H279.4z M280,404
		l2.2-10.5h0.1l2.2,10.5H280z M267.4,389.5c1.2,0,2.2,0.2,3,0.6s1.5,0.9,2,1.6c0.5,0.7,0.9,1.4,1.1,2.2c0.2,0.8,0.3,1.7,0.3,2.6
		c0,1.2-0.2,2.2-0.5,3.1c-0.4,0.9-0.9,1.6-1.5,2.2c-0.6,0.6-1.4,1-2.3,1.3c-0.9,0.3-1.9,0.4-3,0.4h-2.5v9.3h-4.7v-23.2H267.4z
		 M265.9,400c0.9,0,1.7-0.3,2.3-0.8c0.6-0.6,0.9-1.4,0.9-2.6c0-1.2-0.2-2.1-0.7-2.7s-1.3-0.9-2.5-0.9h-2v7.1H265.9z M248.7,393.3
		h-8.3v5.5h7.8v3.8h-7.8v6.3h8.6v3.8h-13.3v-23.2h13V393.3z M225.4,389.5c1,0,1.8,0.1,2.7,0.3s1.5,0.5,2.1,1s1,1.1,1.4,1.8
		c0.3,0.8,0.5,1.7,0.5,2.8c0,1.3-0.3,2.3-0.9,3.2c-0.6,0.9-1.5,1.5-2.6,1.8v0.1c1.3,0.2,2.3,0.7,3.1,1.7c0.8,0.9,1.1,2.2,1.1,3.7
		c0,0.9-0.1,1.8-0.4,2.6c-0.2,0.8-0.6,1.5-1.2,2.2c-0.6,0.6-1.3,1.1-2.2,1.5c-0.9,0.4-2.1,0.6-3.4,0.6h-7.9v-23.2H225.4z M223.6,399
		c1.3,0,2.3-0.2,2.8-0.7c0.6-0.5,0.9-1.3,0.9-2.4c0-1.1-0.3-1.9-0.8-2.3s-1.4-0.7-2.6-0.7h-1.7v6.1H223.6z M224.1,409.3
		c1.1,0,2-0.2,2.7-0.7c0.7-0.5,1-1.4,1-2.8c0-0.7-0.1-1.2-0.3-1.7c-0.2-0.4-0.4-0.8-0.7-1.1c-0.3-0.3-0.7-0.5-1.1-0.6
		c-0.4-0.1-0.9-0.2-1.4-0.2h-2v7H224.1z M207.1,393.3h-8.3v5.5h7.8v3.8h-7.8v6.3h8.6v3.8h-13.3v-23.2h13V393.3z M181,406.2
		c0,0.5,0,1,0.1,1.5c0.1,0.4,0.2,0.8,0.5,1.1c0.2,0.3,0.6,0.5,1,0.7c0.4,0.2,0.9,0.3,1.5,0.3c0.7,0,1.4-0.2,1.9-0.7
		c0.6-0.5,0.9-1.2,0.9-2.2c0-0.5-0.1-1-0.2-1.4s-0.4-0.7-0.7-1c-0.3-0.3-0.8-0.6-1.3-0.8c-0.5-0.2-1.2-0.5-2-0.8
		c-1-0.3-1.9-0.7-2.7-1.1c-0.8-0.4-1.4-0.9-1.9-1.4c-0.5-0.6-0.9-1.2-1.1-1.9c-0.2-0.7-0.4-1.6-0.4-2.5c0-2.3,0.6-4,1.9-5.1
		c1.3-1.1,3-1.7,5.3-1.7c1,0,2,0.1,2.9,0.3c0.9,0.2,1.6,0.6,2.3,1.1c0.6,0.5,1.1,1.2,1.5,2c0.4,0.8,0.5,1.7,0.5,2.8v0.7h-4.5
		c0-1.1-0.2-2-0.6-2.6c-0.4-0.6-1-0.9-2-0.9c-0.5,0-1,0.1-1.3,0.2c-0.3,0.2-0.6,0.4-0.8,0.6c-0.2,0.2-0.3,0.5-0.4,0.9
		c-0.1,0.3-0.1,0.7-0.1,1c0,0.7,0.2,1.3,0.5,1.8c0.3,0.5,1,0.9,2,1.4l3.6,1.6c0.9,0.4,1.6,0.8,2.2,1.2c0.6,0.4,1,0.9,1.4,1.4
		c0.3,0.5,0.6,1,0.7,1.6c0.1,0.6,0.2,1.2,0.2,2c0,2.5-0.7,4.2-2.1,5.4c-1.4,1.1-3.4,1.7-5.9,1.7c-2.6,0-4.5-0.6-5.7-1.7
		c-1.1-1.2-1.7-2.8-1.7-4.9v-0.9h4.7V406.2z M163.6,389.5l-6.2,23.2h4.9l1.1-4.9h6.2l1.1,4.9h4.9l-6.2-23.2H163.6z M164.2,404
		l2.2-10.5h0.1l2.2,10.5H164.2z M156.4,393.3h-8.3v5.5h7.8v3.8h-7.8v6.3h8.6v3.8h-13.3v-23.2h13V393.3z M128.4,389.5h4.7v19.4h8.3
		v3.8h-13V389.5z M119.7,389.5c1.2,0,2.2,0.2,3,0.6c0.8,0.4,1.5,0.9,2,1.6c0.5,0.7,0.9,1.4,1.1,2.2c0.2,0.8,0.3,1.7,0.3,2.6
		c0,1.2-0.2,2.2-0.5,3.1c-0.4,0.9-0.9,1.6-1.5,2.2c-0.6,0.6-1.4,1-2.3,1.3c-0.9,0.3-1.9,0.4-3,0.4h-2.5v9.3h-4.7v-23.2H119.7z
		 M118.2,400c0.9,0,1.7-0.3,2.3-0.8c0.6-0.6,0.9-1.4,0.9-2.6c0-1.2-0.2-2.1-0.7-2.7c-0.5-0.6-1.3-0.9-2.5-0.9h-2v7.1H118.2z
		 M108.1,393.1c-0.5,1.2-0.9,2.3-1.2,3.5c-0.3,1.2-0.5,2.4-0.6,3.6c-0.1,1.2-0.2,2.5-0.2,3.9c0,1.4,0.1,2.7,0.2,3.9
		c0.1,1.2,0.3,2.4,0.6,3.5s0.7,2.3,1.2,3.5c0.5,1.2,1.1,2.4,1.7,3.6h-3.5c-1.6-2.6-2.8-5-3.5-7.5c-0.7-2.4-1.1-4.8-1.1-7.1
		c0-2.3,0.4-4.7,1.1-7.1c0.7-2.4,1.9-4.9,3.5-7.5h3.5C109.2,390.7,108.6,391.9,108.1,393.1"/>
	<path class="st4" d="M113.8,319.6c0,0-17.8,0-17.8,17.8v3.6c0,0,0,17.8,17.8,17.8h597.1c0,0,17.8,0,17.8-17.8v-3.6
		c0,0,0-17.8-17.8-17.8H113.8z"/>
</g>
<path class="st2" d="M114,325.4c0,0-12,0-12,12.1v3.6c0,0,0,12.1,12,12.1h597.1c0,0,12,0,12-12.1v-3.6c0,0,0-12.1-12-12.1H114z"/>
<g>
	<defs>
		<rect id="SVGID_3_" width="841.9" height="595.3"/>
	</defs>
	<clipPath id="SVGID_4_">
		<use xlink:href="#SVGID_3_"  style="overflow:visible;"/>
	</clipPath>
</g>
<polygon class="st1" points="565.1,353.1 576.3,325.4 555.5,325.4 544.3,353.1 "/>
<polygon class="st1" points="539.4,353.1 550.6,325.4 529.8,325.4 518.6,353.1 "/>
<polygon class="st1" points="513.8,353.1 525,325.4 504.2,325.4 493,353.1 "/>
<polygon class="st1" points="488.2,353.1 499.4,325.4 478.6,325.4 467.4,353.1 "/>
<polygon class="st1" points="462.6,353.1 473.8,325.4 453,325.4 441.8,353.1 "/>
<polygon class="st1" points="437,353.1 448.2,325.4 427.4,325.4 416.2,353.1 "/>
<polygon class="st1" points="411.4,353.1 422.5,325.4 401.7,325.4 390.6,353.1 "/>
<polygon class="st1" points="385.7,353.1 396.9,325.4 376.1,325.4 364.9,353.1 "/>
<polygon class="st1" points="360.1,353.1 371.3,325.4 350.5,325.4 339.3,353.1 "/>
<polygon class="st1" points="334.5,353.1 345.7,325.4 324.9,325.4 313.7,353.1 "/>
<polygon class="st1" points="308.9,353.1 320.1,325.4 299.3,325.4 288.1,353.1 "/>
<polygon class="st1" points="283.3,353.1 294.5,325.4 273.7,325.4 262.5,353.1 "/>
<polygon class="st1" points="257.6,353.1 268.8,325.4 248,325.4 236.8,353.1 "/>
<polygon class="st1" points="232,353.1 243.2,325.4 222.4,325.4 211.2,353.1 "/>
<polygon class="st1" points="206.4,353.1 217.6,325.4 196.8,325.4 185.6,353.1 "/>
<polygon class="st1" points="180.8,353.1 192,325.4 171.2,325.4 160,353.1 "/>
<polygon class="st1" points="155.2,353.1 166.4,325.4 145.6,325.4 134.4,353.1 "/>
<polygon class="st1" points="129.6,353.1 140.7,325.4 119.9,325.4 108.8,353.1 "/>
</svg>
