<svg xmlns="http://www.w3.org/2000/svg" xmlns:xlink="http://www.w3.org/1999/xlink" id="Layer_1" width="816.2" height="498.9" viewBox="0 0 816.19999 498.9">
  <style id="style3">
<![CDATA[
	.st0{fill:#4D857C;}
	.st1{fill:#FFFFFF;}
	.st2{fill:none;}
	.st3{clip-path:url(#SVGID_2_);fill:#FFFFFF;}
	.st4{clip-path:url(#SVGID_2_);fill:none;stroke:#FFFFFF;stroke-width:3.615;}
]]>
  </style>
  <path class="st0" id="rect5" fill="#4d857c" d="M0 0h816.2v498.9H0z"/>
  <g id="g7" transform="translate(-12.8 -48.2)">
    <defs id="defs9">
      <path id="SVGID_1_" d="M0 0h841.9v595.3H0z"/>
    </defs>
    <clipPath id="SVGID_2_">
      <use xlink:href="#SVGID_1_" id="use13" width="100%" height="100%" overflow="visible"/>
    </clipPath>
    <path class="st3" d="M593.1 276.6h-14.7v-17.4h14.7v17.4zm-26.8 0h-14.7v-17.4h14.7v17.4zm-26.8 0h-14.7v-17.4h14.7v17.4zM497.2 216c-.3-1.6-.9-3-1.6-4.3-.7-1.3-1.7-2.4-2.8-3.2-1.2-.9-2.6-1.3-4.2-1.3-3.9 0-6.7 2.2-8.4 6.5-1.7 4.3-2.6 11.5-2.6 21.4 0 4.8.1 9.1.4 12.9.3 3.9.8 7.2 1.6 9.9s1.9 4.8 3.3 6.3c1.5 1.5 3.3 2.2 5.6 2.2 1 0 2-.3 3.2-.8 1.2-.5 2.2-1.3 3.2-2.3 1-1 1.8-2.4 2.5-4s1-3.5 1-5.6v-8.1H488v-11.8h26v43h-11.8v-7.4h-.2c-1.9 3.1-4.3 5.3-7 6.6-2.7 1.3-6 2-9.8 2-4.9 0-8.9-.9-12-2.6-3.1-1.7-5.5-4.4-7.3-7.9-1.7-3.6-2.9-8-3.5-13.2-.6-5.2-.9-11.3-.9-18.3 0-6.7.4-12.6 1.3-17.6.9-5.1 2.3-9.3 4.4-12.7 2.1-3.4 4.8-5.9 8.3-7.6 3.4-1.7 7.7-2.6 12.8-2.6 8.8 0 15.1 2.2 19 6.5 3.9 4.4 5.8 10.6 5.8 18.7h-15.4c0-1.6-.2-3.1-.5-4.7m-61 35.5h.2v-54.6h14.7v79.7h-18.3l-19.6-55.8h-.2v55.8h-14.7v-79.7h18.5l19.4 54.6zm-66-54.6h16.1v79.7h-16.1v-79.7zm-44.6 31.9h.2l20.3-31.9h17.4l-21.7 34.2 24.1 45.5h-18.1l-16.4-32.7-5.9 9v23.7h-16.1v-79.7h16.1v31.9zm-42.2 22.7h.2v-54.6h14.7v79.7H280l-19.6-55.8h-.2v55.8h-14.7v-79.7H264l19.4 54.6zm-66-54.6h16.1v79.7h-16.1v-79.7zm-46.8 0v30.5h18.8v-30.5h16.1v79.7h-16.1v-35.4h-18.8v35.4h-16.1v-79.7h16.1zm-23 13.2h-17.4v66.5h-16.1v-66.5H96.7v-13.2h50.9v13.2z" id="path15" clip-path="url(#SVGID_2_)" fill="#fff"/>
    <path class="st3" d="M370.5 397c.7 2.4 1.1 4.8 1.1 7.1s-.4 4.7-1.1 7.1c-.7 2.4-1.9 4.9-3.5 7.5h-3.5c.7-1.2 1.2-2.4 1.7-3.6.5-1.2.9-2.3 1.2-3.5.3-1.2.5-2.3.6-3.5.1-1.2.2-2.5.2-3.9s-.1-2.7-.2-3.9c-.1-1.2-.3-2.4-.6-3.6-.3-1.2-.7-2.3-1.2-3.5-.5-1.2-1.1-2.4-1.7-3.6h3.5c1.6 2.5 2.8 5 3.5 7.4m-7.3-3.7h-5.1v19.4h-4.7v-19.4h-5.1v-3.8h14.8v3.8zm-21.3 12.1l.1-15.9h4.3v23.2H341l-5.7-16.3h-.1v16.3h-4.3v-23.2h5.4l5.6 15.9zm-13.7-12.1h-8.3v5.5h7.8v3.8h-7.8v6.3h8.6v3.8h-13.3v-23.2h13v3.8zm-21.2-3.8h4.7v23.2H307v-23.2zm-2.2 3.8h-5.1v19.4H295v-19.4h-5.1v-3.8h14.8v3.8zm-25.4-3.8l-6.2 23.2h4.9l1.1-4.9h6.2l1.1 4.9h4.9l-6.2-23.2h-5.8zm.6 14.5l2.2-10.5h.1l2.2 10.5H280zm-12.6-14.5c1.2 0 2.2.2 3 .6.8.4 1.5.9 2 1.6.5.7.9 1.4 1.1 2.2.2.8.3 1.7.3 2.6 0 1.2-.2 2.2-.5 3.1-.4.9-.9 1.6-1.5 2.2-.6.6-1.4 1-2.3 1.3-.9.3-1.9.4-3 .4H264v9.3h-4.7v-23.2h8.1zm-1.5 10.5c.9 0 1.7-.3 2.3-.8.6-.6.9-1.4.9-2.6 0-1.2-.2-2.1-.7-2.7-.5-.6-1.3-.9-2.5-.9h-2v7.1h2zm-17.2-6.7h-8.3v5.5h7.8v3.8h-7.8v6.3h8.6v3.8h-13.3v-23.2h13v3.8zm-23.3-3.8c1 0 1.8.1 2.7.3.9.2 1.5.5 2.1 1 .6.5 1 1.1 1.4 1.8.3.8.5 1.7.5 2.8 0 1.3-.3 2.3-.9 3.2-.6.9-1.5 1.5-2.6 1.8v.1c1.3.2 2.3.7 3.1 1.7.8.9 1.1 2.2 1.1 3.7 0 .9-.1 1.8-.4 2.6-.2.8-.6 1.5-1.2 2.2-.6.6-1.3 1.1-2.2 1.5-.9.4-2.1.6-3.4.6h-7.9v-23.2h7.7zm-1.8 9.5c1.3 0 2.3-.2 2.8-.7.6-.5.9-1.3.9-2.4 0-1.1-.3-1.9-.8-2.3-.5-.4-1.4-.7-2.6-.7h-1.7v6.1h1.4zm.5 10.3c1.1 0 2-.2 2.7-.7.7-.5 1-1.4 1-2.8 0-.7-.1-1.2-.3-1.7-.2-.4-.4-.8-.7-1.1-.3-.3-.7-.5-1.1-.6-.4-.1-.9-.2-1.4-.2h-2v7h1.8zm-17-16h-8.3v5.5h7.8v3.8h-7.8v6.3h8.6v3.8h-13.3v-23.2h13v3.8zM181 406.2c0 .5 0 1 .1 1.5.1.4.2.8.5 1.1.2.3.6.5 1 .7.4.2.9.3 1.5.3.7 0 1.4-.2 1.9-.7.6-.5.9-1.2.9-2.2 0-.5-.1-1-.2-1.4-.1-.4-.4-.7-.7-1-.3-.3-.8-.6-1.3-.8-.5-.2-1.2-.5-2-.8-1-.3-1.9-.7-2.7-1.1-.8-.4-1.4-.9-1.9-1.4-.5-.6-.9-1.2-1.1-1.9-.2-.7-.4-1.6-.4-2.5 0-2.3.6-4 1.9-5.1 1.3-1.1 3-1.7 5.3-1.7 1 0 2 .1 2.9.3.9.2 1.6.6 2.3 1.1.6.5 1.1 1.2 1.5 2 .4.8.5 1.7.5 2.8v.7h-4.5c0-1.1-.2-2-.6-2.6-.4-.6-1-.9-2-.9-.5 0-1 .1-1.3.2-.3.2-.6.4-.8.6-.2.2-.3.5-.4.9-.1.3-.1.7-.1 1 0 .7.2 1.3.5 1.8s1 .9 2 1.4l3.6 1.6c.9.4 1.6.8 2.2 1.2.6.4 1 .9 1.4 1.4.3.5.6 1 .7 1.6.1.6.2 1.2.2 2 0 2.5-.7 4.2-2.1 5.4-1.4 1.1-3.4 1.7-5.9 1.7-2.6 0-4.5-.6-5.7-1.7-1.1-1.2-1.7-2.8-1.7-4.9v-.9h4.7v.3zm-17.4-16.7l-6.2 23.2h4.9l1.1-4.9h6.2l1.1 4.9h4.9l-6.2-23.2h-5.8zm.6 14.5l2.2-10.5h.1l2.2 10.5h-4.5zm-7.8-10.7h-8.3v5.5h7.8v3.8h-7.8v6.3h8.6v3.8h-13.3v-23.2h13v3.8zm-28-3.8h4.7v19.4h8.3v3.8h-13v-23.2zm-8.7 0c1.2 0 2.2.2 3 .6.8.4 1.5.9 2 1.6.5.7.9 1.4 1.1 2.2.2.8.3 1.7.3 2.6 0 1.2-.2 2.2-.5 3.1-.4.9-.9 1.6-1.5 2.2-.6.6-1.4 1-2.3 1.3-.9.3-1.9.4-3 .4h-2.5v9.3h-4.7v-23.2h8.1zm-1.5 10.5c.9 0 1.7-.3 2.3-.8.6-.6.9-1.4.9-2.6 0-1.2-.2-2.1-.7-2.7-.5-.6-1.3-.9-2.5-.9h-2v7.1h2zm-10.1-6.9c-.5 1.2-.9 2.3-1.2 3.5-.3 1.2-.5 2.4-.6 3.6-.1 1.2-.2 2.5-.2 3.9s.1 2.7.2 3.9c.1 1.2.3 2.4.6 3.5s.7 2.3 1.2 3.5c.5 1.2 1.1 2.4 1.7 3.6h-3.5c-1.6-2.6-2.8-5-3.5-7.5-.7-2.4-1.1-4.8-1.1-7.1s.4-4.7 1.1-7.1c.7-2.4 1.9-4.9 3.5-7.5h3.5c-.6 1.3-1.2 2.5-1.7 3.7" id="path17" clip-path="url(#SVGID_2_)" fill="#fff"/>
    <path class="st4" d="M113.8 319.6s-17.8 0-17.8 17.8v3.6s0 17.8 17.8 17.8h597.1s17.8 0 17.8-17.8v-3.6s0-17.8-17.8-17.8H113.8z" id="path19" clip-path="url(#SVGID_2_)" fill="none" stroke="#fff" stroke-width="3.615"/>
  </g>
  <path class="st2" d="M101.2 277.2s-12 0-12 12.1v3.6s0 12.1 12 12.1h597.1s12 0 12-12.1v-3.6s0-12.1-12-12.1H101.2z" id="path21" fill="none"/>
  <g id="g23" transform="translate(-12.8 -48.2)">
    <defs id="defs25">
      <path id="SVGID_3_" d="M0 0h841.9v595.3H0z"/>
    </defs>
    <clipPath id="SVGID_4_">
      <use xlink:href="#SVGID_3_" id="use29" width="100%" height="100%" overflow="visible"/>
    </clipPath>
  </g>
  <path class="st1" id="polygon31" fill="#fff" d="M531.5 304.9h20.8l11.2-27.7h-20.8z"/>
  <path class="st1" id="polygon33" fill="#fff" d="M505.8 304.9h20.8l11.2-27.7H517z"/>
  <path class="st1" id="polygon35" fill="#fff" d="M480.2 304.9H501l11.2-27.7h-20.8z"/>
  <path class="st1" id="polygon37" fill="#fff" d="M454.6 304.9h20.8l11.2-27.7h-20.8z"/>
  <path class="st1" id="polygon39" fill="#fff" d="M429 304.9h20.8l11.2-27.7h-20.8z"/>
  <path class="st1" id="polygon41" fill="#fff" d="M403.4 304.9h20.8l11.2-27.7h-20.8z"/>
  <path class="st1" id="polygon43" fill="#fff" d="M377.8 304.9h20.8l11.1-27.7h-20.8z"/>
  <path class="st1" id="polygon45" fill="#fff" d="M352.1 304.9h20.8l11.2-27.7h-20.8z"/>
  <path class="st1" id="polygon47" fill="#fff" d="M326.5 304.9h20.8l11.2-27.7h-20.8z"/>
  <path class="st1" id="polygon49" fill="#fff" d="M300.9 304.9h20.8l11.2-27.7h-20.8z"/>
  <path class="st1" id="polygon51" fill="#fff" d="M275.3 304.9h20.8l11.2-27.7h-20.8z"/>
  <path class="st1" id="polygon53" fill="#fff" d="M249.7 304.9h20.8l11.2-27.7h-20.8z"/>
  <path class="st1" id="polygon55" fill="#fff" d="M224 304.9h20.8l11.2-27.7h-20.8z"/>
  <path class="st1" id="polygon57" fill="#fff" d="M198.4 304.9h20.8l11.2-27.7h-20.8z"/>
  <path class="st1" id="polygon59" fill="#fff" d="M172.8 304.9h20.8l11.2-27.7H184z"/>
  <path class="st1" id="polygon61" fill="#fff" d="M147.2 304.9H168l11.2-27.7h-20.8z"/>
  <path class="st1" id="polygon63" fill="#fff" d="M121.6 304.9h20.8l11.2-27.7h-20.8z"/>
  <path class="st1" id="polygon65" fill="#fff" d="M96 304.9h20.8l11.1-27.7h-20.8z"/>
</svg>
