<?xml version="1.0" encoding="utf-8"?>
<!-- Generator: Adobe Illustrator 15.0.0, SVG Export Plug-In . SVG Version: 6.00 Build 0)  -->
<!DOCTYPE svg PUBLIC "-//W3C//DTD SVG 1.1//EN" "http://www.w3.org/Graphics/SVG/1.1/DTD/svg11.dtd">
<svg version="1.1" id="Ebene_1" xmlns="http://www.w3.org/2000/svg" xmlns:xlink="http://www.w3.org/1999/xlink" x="0px" y="0px"
	 width="100px" height="100px" viewBox="0 0 100 100" enable-background="new 0 0 100 100" xml:space="preserve">
<path fill="#FFFFFF" d="M43.204,45.839h-25.89c-3.382,0-6.119,2.738-6.119,6.119v34.865c0,3.381,2.737,6.119,6.119,6.119h25.89
	c3.379,0,6.118-2.738,6.118-6.119V51.958C49.322,48.577,46.583,45.839,43.204,45.839z M27.709,84.786
	c0,1.125-0.912,2.037-2.039,2.037h-7.135c-1.127,0-2.037-0.912-2.037-2.037v-6.118c0-1.126,0.91-2.038,2.037-2.038h7.135
	c1.127,0,2.039,0.912,2.039,2.038V84.786z M27.709,70.514c0,1.125-0.912,2.038-2.039,2.038h-7.135c-1.127,0-2.037-0.913-2.037-2.038
	v-6.118c0-1.127,0.91-2.04,2.037-2.04h7.135c1.127,0,2.039,0.913,2.039,2.04V70.514z M27.709,58.278
	c0,1.126-0.912,2.037-2.039,2.037h-7.135c-1.127,0-2.037-0.911-2.037-2.037v-6.117c0-1.127,0.91-2.039,2.037-2.039h7.135
	c1.127,0,2.039,0.912,2.039,2.039V58.278z M44.021,84.786c0,1.125-0.912,2.037-2.039,2.037h-7.139c-1.128,0-2.043-0.912-2.043-2.037
	v-6.118c0-1.126,0.915-2.038,2.043-2.038h7.139c1.127,0,2.039,0.912,2.039,2.038V84.786z M44.021,70.514
	c0,1.125-0.912,2.038-2.039,2.038h-7.139c-1.128,0-2.043-0.913-2.043-2.038v-6.118c0-1.127,0.915-2.04,2.043-2.04h7.139
	c1.127,0,2.039,0.913,2.039,2.04V70.514z M44.021,58.278c0,1.126-0.912,2.037-2.039,2.037h-7.139c-1.128,0-2.043-0.911-2.043-2.037
	v-6.117c0-1.127,0.915-2.039,2.043-2.039h7.139c1.127,0,2.039,0.912,2.039,2.039V58.278z"/>
<path fill="#FFFFFF" d="M89.021,46.657v-34.87c0-3.377-2.74-6.117-6.119-6.117H57.008c-3.377,0-6.113,2.74-6.113,6.117v34.87
	c0,1.77,0,3.527,0,5.301v34.865c0,3.381,2.736,6.119,6.113,6.119h25.894c3.379,0,6.119-2.738,6.119-6.119V51.958
	C89.021,50.185,89.021,48.427,89.021,46.657z M72.5,11.991c0-1.127,0.915-2.037,2.042-2.037h7.139c1.127,0,2.038,0.91,2.038,2.037
	v6.116c0,1.128-0.911,2.041-2.038,2.041h-7.139c-1.127,0-2.042-0.913-2.042-2.041V11.991z M72.5,24.227
	c0-1.128,0.915-2.041,2.042-2.041h7.139c1.127,0,2.038,0.913,2.038,2.041v6.115c0,1.127-0.911,2.04-2.038,2.04h-7.139
	c-1.127,0-2.042-0.913-2.042-2.04V24.227z M72.5,38.5c0-1.128,0.915-2.04,2.042-2.04h7.139c1.127,0,2.038,0.912,2.038,2.04v6.116
	c0,1.127-0.911,2.041-2.038,2.041h-7.139c-1.127,0-2.042-0.914-2.042-2.041V38.5z M56.191,11.991c0-1.127,0.916-2.037,2.038-2.037
	h7.14c1.126,0,2.034,0.91,2.034,2.037v6.116c0,1.128-0.908,2.041-2.034,2.041h-7.14c-1.122,0-2.038-0.913-2.038-2.041V11.991z
	 M56.191,24.227c0-1.128,0.916-2.041,2.038-2.041h7.14c1.126,0,2.034,0.913,2.034,2.041v6.115c0,1.127-0.908,2.04-2.034,2.04h-7.14
	c-1.122,0-2.038-0.913-2.038-2.04V24.227z M56.191,38.5c0-1.128,0.916-2.04,2.038-2.04h7.14c1.126,0,2.034,0.912,2.034,2.04v6.116
	c0,1.127-0.908,2.041-2.034,2.041h-7.14c-1.122,0-2.038-0.914-2.038-2.041V38.5z M67.403,84.786c0,1.125-0.908,2.037-2.034,2.037
	h-7.14c-1.122,0-2.038-0.912-2.038-2.037v-6.118c0-1.126,0.916-2.038,2.038-2.038h7.14c1.126,0,2.034,0.912,2.034,2.038V84.786z
	 M67.403,70.514c0,1.125-0.908,2.038-2.034,2.038h-7.14c-1.122,0-2.038-0.913-2.038-2.038v-6.118c0-1.127,0.916-2.04,2.038-2.04
	h7.14c1.126,0,2.034,0.913,2.034,2.04V70.514z M67.403,58.278c0,1.126-0.908,2.037-2.034,2.037h-7.14
	c-1.122,0-2.038-0.911-2.038-2.037v-6.117c0-1.127,0.916-2.039,2.038-2.039h7.14c1.126,0,2.034,0.912,2.034,2.039V58.278z
	 M83.719,84.786c0,1.125-0.911,2.037-2.038,2.037h-7.139c-1.127,0-2.042-0.912-2.042-2.037v-6.118c0-1.126,0.915-2.038,2.042-2.038
	h7.139c1.127,0,2.038,0.912,2.038,2.038V84.786z M83.719,70.514c0,1.125-0.911,2.038-2.038,2.038h-7.139
	c-1.127,0-2.042-0.913-2.042-2.038v-6.118c0-1.127,0.915-2.04,2.042-2.04h7.139c1.127,0,2.038,0.913,2.038,2.04V70.514z
	 M83.719,58.278c0,1.126-0.911,2.037-2.038,2.037h-7.139c-1.127,0-2.042-0.911-2.042-2.037v-6.117c0-1.127,0.915-2.039,2.042-2.039
	h7.139c1.127,0,2.038,0.912,2.038,2.039V58.278z"/>
</svg>
