<?xml version="1.0" encoding="utf-8"?>
<!-- Generator: Adobe Illustrator 15.0.0, SVG Export Plug-In . SVG Version: 6.00 Build 0)  -->
<!DOCTYPE svg PUBLIC "-//W3C//DTD SVG 1.0//EN" "http://www.w3.org/TR/2001/REC-SVG-20010904/DTD/svg10.dtd">
<svg version="1.0" id="Layer_1" xmlns="http://www.w3.org/2000/svg" xmlns:xlink="http://www.w3.org/1999/xlink" x="0px" y="0px"
	 width="105px" height="98px" viewBox="30 28 48 51" style="enable-background:new 0 0 105 98;" xml:space="preserve">
<style type="text/css">
<![CDATA[
	.st0{fill:#4E5867;}
]]>
</style>
<g>
	<path class="st0" d="M59.59,56.328h-9.385c-0.881,0-1.594,0.707-1.594,1.584c0,0.861,0.713,1.588,1.594,1.588h9.385
		c0.877,0,1.587-0.727,1.587-1.588C61.177,57.035,60.467,56.328,59.59,56.328z"/>
	<path class="st0" d="M50.205,49.975h4.62c0.88,0,1.595-0.725,1.595-1.596c0-0.873-0.715-1.592-1.595-1.592h-4.62
		c-0.881,0-1.594,0.719-1.594,1.592C48.611,49.25,49.324,49.975,50.205,49.975z"/>
	<path class="st0" d="M54.052,28.941c-13.601,0-24.625,11.023-24.625,24.623s11.024,24.625,24.625,24.625
		s24.624-11.025,24.624-24.625S67.652,28.941,54.052,28.941z M68,58.035c-0.025,4.574-3.748,8.32-8.33,8.32H50.1
		c-4.582,0-8.327-3.746-8.327-8.32v-9.721c0-4.584,3.745-8.338,8.327-8.338h5.824c2.152,0.256,5.281,2.098,6.436,4.549
		c0.316,0.686,0.484,0.793,0.747,2.83c0.142,1.049,0.214,1.824,0.683,2.254c0.658,0.6,3.109,0.197,3.593,0.574l0.372,0.291
		l0.221,0.459l0.077,0.367L68,58.035z"/>
</g>
</svg>
