<?xml version="1.0" encoding="utf-8"?>
<!-- Generator: Adobe Illustrator 15.0.0, SVG Export Plug-In . SVG Version: 6.00 Build 0)  -->
<!DOCTYPE svg PUBLIC "-//W3C//DTD SVG 1.1//EN" "http://www.w3.org/Graphics/SVG/1.1/DTD/svg11.dtd">
<svg version="1.1"
	 id="Ebene_1" xmlns:inkscape="http://www.inkscape.org/namespaces/inkscape" xmlns:rdf="http://www.w3.org/1999/02/22-rdf-syntax-ns#" xmlns:cc="http://creativecommons.org/ns#" xmlns:svg="http://www.w3.org/2000/svg" sodipodi:docname="team.svg" xmlns:dc="http://purl.org/dc/elements/1.1/" inkscape:version="0.48.2 r9819" xmlns:sodipodi="http://sodipodi.sourceforge.net/DTD/sodipodi-0.dtd"
	 xmlns="http://www.w3.org/2000/svg" xmlns:xlink="http://www.w3.org/1999/xlink" x="0px" y="0px" width="100px" height="100px"
	 viewBox="6 20 88 70" enable-background="new 0 0 100 100" xml:space="preserve">
<sodipodi:namedview  showgrid="false" id="namedview3072" bordercolor="#666666" inkscape:window-width="1920" inkscape:pageshadow="2" inkscape:cx="3.3898305" inkscape:window-maximized="1" pagecolor="#ffffff" gridtolerance="10" guidetolerance="10" inkscape:zoom="2.36" inkscape:current-layer="Ebene_1" inkscape:cy="50" borderopacity="1" inkscape:window-y="-4" inkscape:window-height="1017" objecttolerance="10" inkscape:pageopacity="0" inkscape:window-x="-4">
	</sodipodi:namedview>
<path fill="#FBB916" d="M92.34,45.149c-1.986-1.031-4.203-1.536-4.312-1.62c-1.886-1.475-3.166-1.482-3.315-1.486
	c-2.025-0.044-11.07,1.135-11.07,1.135s-0.389-0.422-0.452-0.416c-0.062,0.006-0.231-0.011-0.187,0.059
	c0.049,0.07,0.163,0.411,0.018,0.432c-10.366,1.453-15.666,3.239-15.773,3.252c-6.525,0.742-7.436,1.079-7.684,1.014
	c-0.401-0.103-9.176-2.323-9.314-2.342c-0.139-0.021-0.91,0.063-0.996-0.009c-0.16-0.135-3.795-1.771-3.974-1.755
	c-0.104,0.012-1.664,0.046-1.509,0.176c0.719,0.592,1.945,2.262,2.32,2.209c0.377-0.056,2.121,0.764,2.121,0.764l0.594,0.055
	c0,0-0.556,0.154-0.26,0.171c0.299,0.015,3.682,1.677,3.661,1.677c-0.149,0.01-10.849,1.395-10.849,1.395s-0.109-0.304-0.279-0.289
	c-0.168,0.017-0.141,0.332-0.141,0.332s-0.567,0.039-0.946,0.083c-0.795,0.092-3.272-0.178-3.748-0.518
	c-0.349-0.249-14.17-8.718-14.528-8.96c-0.285-0.191-3.373,0.274-4.938,0.496c1.253,1.978,6.039,10.325,6.039,10.325
	c-1.468-0.082-3.267,0.148-3.414,0.162c-0.284,0.023,0.017,0.189,0.017,0.189s1.961,1.154,1.893,1.189
	c-0.172,0.09-0.209,0.638-0.209,0.638l-0.141,0.012l0.07,0.814l0.169-0.018c0.069,0.49,0.907,0.926,1.526,0.961
	c0.181,0.008,3.068,0.221,3.758,0.268c0.427,0.027,9.799,0.732,9.799,0.732l-0.104,0.24c0.342,0.08,0.479-0.189,0.479-0.189
	c0.52,0.006,6.977,0.525,8.963,0.617c1.77,0.08,5.586-0.215,5.586-0.215l-0.029,0.266c0.242-0.02,0.41-0.303,0.41-0.303l2.743-0.295
	l0.022,0.488c0.135-0.023,0.408-0.525,0.408-0.525c0.082-0.016,0.576-0.051,0.576-0.051l0.041,0.453c0,0,0.352-0.062,0.508-0.002
	c0.15,0.059,2.777,0.307,2.777,0.307v0.146l-0.197,0.125l2.974-0.221l0.051,0.215l0.197-0.037l0.006,0.201
	c-0.627,0.678-0.669,0.82-0.642,0.998c0.074,0.459,0.275,0.568,0.513,0.65c0.185,0.07,0.271,0.055,0.437,0.023
	c0.383-0.062,0.747-0.645,0.747-0.645s0.175-0.1,0.212-0.02c0.09,0.203,0.242,0.195,0.432,0.225c0.13,0.021,0.279,0.004,0.427-0.066
	c0.159-0.078,0.96-0.857,0.926-1.254c-0.055-0.633-0.644-0.623-0.651-0.695c-0.021-0.221,0.734-0.773,0.734-0.773v-0.475l0.523-0.07
	l0.072,0.818c-0.203,0.029-0.439,1.141-0.427,1.287c0.013,0.145,0.046,0.746,0.046,0.746c-0.111,0.055-0.342,0.23-0.31,0.578
	c0.065,0.732,0.612,0.727,0.772,0.713c0.473-0.029,0.827-0.551,0.803-0.834c-0.014-0.154-0.051-0.381,0.023-0.338
	c0.18,0.1,0.319,0.047,0.52,0.029c0.275-0.025,0.682-0.561,0.66-0.811c-0.01-0.105-0.021-0.318-0.09-0.416
	c-0.173-0.238,0.061-0.303,0.291-0.322c0.406-0.037,0.609-0.635,0.717-0.613c0.108,0.023,1.797,0,1.797,0l0.051,0.303l-0.241,0.045
	l0.024,0.164c0,0,2.1-0.201,2.289-0.221c2.623-0.264,2.644-0.605,2.644-0.605l-0.026-1.781c0.301-0.029,5.108-0.938,5.108-0.938
	l-0.043,0.458c0.378-0.031,0.46-0.562,0.531-0.573c1.071-0.211,6.54-0.916,6.846-0.943c2.185-0.191,7.071-1.352,7.071-1.352
	l0.094,0.658l-0.424,0.482l0.029,0.207l0.526-0.021c0,0,0.236,0.76,0.154,0.777c-0.085,0.02-0.741,0.244-0.683,0.929
	c0.053,0.576,0.752,0.609,0.857,0.602c0.587-0.055,0.855-0.635,0.835-0.875c-0.028-0.317-0.323-0.423-0.284-0.56
	c0.104-0.379-0.302-1.141-0.302-1.141l0.149-0.105l-0.057-0.516l0.59-0.285l-0.074-0.554c4.622-1.475,6.173-2.82,6.513-3.111
	c0.578-0.496,0.852-0.773,0.812-1.214C93.18,45.593,92.506,45.237,92.34,45.149z"/>
</svg>
