<?xml version="1.0" encoding="utf-8"?>
<!-- Generator: Adobe Illustrator 15.0.0, SVG Export Plug-In . SVG Version: 6.00 Build 0)  -->
<!DOCTYPE svg PUBLIC "-//W3C//DTD SVG 1.0//EN" "http://www.w3.org/TR/2001/REC-SVG-20010904/DTD/svg10.dtd">
<svg version="1.0" id="Layer_1" xmlns="http://www.w3.org/2000/svg" xmlns:xlink="http://www.w3.org/1999/xlink" x="0px" y="0px"
	 width="105px" height="98px" viewBox="30 24 48 51" style="enable-background:new 0 0 105 98;" xml:space="preserve">
<style type="text/css">
<![CDATA[
	.st0{fill:#4E5867;}
]]>
</style>
<path class="st0" d="M52.501,24.376c-13.6,0-24.625,11.027-24.625,24.625c0,13.6,11.025,24.623,24.625,24.623
	s24.623-11.023,24.623-24.623C77.124,35.403,66.101,24.376,52.501,24.376z M64.906,44.036c0.013,0.267,0.017,0.534,0.017,0.803
	c0,8.201-6.241,17.657-17.656,17.657c-3.504,0-6.766-1.027-9.513-2.788c0.485,0.057,0.979,0.086,1.479,0.086
	c2.908,0,5.584-0.992,7.708-2.656c-2.716-0.051-5.007-1.845-5.796-4.31c0.378,0.073,0.766,0.111,1.167,0.111
	c0.566,0,1.114-0.075,1.636-0.218c-2.84-0.57-4.979-3.079-4.979-6.084c0-0.027,0-0.053,0.001-0.079
	c0.836,0.465,1.793,0.744,2.811,0.777c-1.665-1.115-2.761-3.013-2.761-5.166c0-1.138,0.306-2.204,0.841-3.12
	c3.061,3.755,7.633,6.225,12.791,6.483c-0.105-0.454-0.16-0.928-0.16-1.414c0-3.427,2.778-6.205,6.205-6.205
	c1.785,0,3.398,0.754,4.529,1.959c1.414-0.277,2.742-0.795,3.941-1.506c-0.464,1.45-1.447,2.666-2.729,3.434
	c1.257-0.15,2.452-0.484,3.565-0.978C67.171,42.067,66.118,43.161,64.906,44.036z"/>
</svg>
